<svg width="30" height="22" viewBox="0 0 30 22" fill="none" xmlns="http://www.w3.org/2000/svg">
<path fill-rule="evenodd" clip-rule="evenodd" d="M19.2514 3.14988C17.8926 3.06835 16.4758 3.02759 14.9997 3.02759C13.3596 3.02759 11.7922 3.07696 10.2971 3.17553C8.80182 3.27411 7.4288 3.48036 6.17788 3.7943C4.92729 4.10808 3.84014 4.5797 2.91658 5.20886C1.99287 5.83801 1.27615 6.67454 0.765787 7.71876C0.255262 8.76283 0 10.0691 0 11.6448C0 13.2206 0.294703 14.631 0.884267 15.876C1.11411 16.3613 1.37718 16.8067 1.67348 17.2122L3.33231 15.8852C3.11103 15.5709 2.9186 15.2186 2.75503 14.8283C2.37624 13.9245 2.18692 12.8633 2.18692 11.645C2.18692 10.1772 2.47674 9.01414 3.05621 8.15588C3.63567 7.29762 4.4775 6.65968 5.58138 6.24206C6.68541 5.82443 8.02909 5.55315 9.61257 5.42805C11.196 5.30296 12.9917 5.24049 14.9996 5.24049C15.5561 5.24049 16.0963 5.24529 16.6202 5.25489L19.2514 3.14988ZM14.3419 14.281C14.5531 14.2553 14.7724 14.2424 14.9997 14.2424C15.683 14.2424 16.2899 14.3586 16.83 14.5909C17.37 14.8232 17.8751 15.109 18.3461 15.448C18.817 15.787 19.2914 16.1277 19.7691 16.4696C20.2509 16.8139 20.7693 17.1026 21.3144 17.3304C21.8671 17.5622 22.497 17.6766 23.2044 17.6735C24.1423 17.6735 24.9553 17.4253 25.6436 16.9287C26.3319 16.4322 26.8655 15.7321 27.2441 14.8283C27.6229 13.9245 27.8122 12.8633 27.8122 11.645C27.8122 10.1772 27.5224 9.01414 26.943 8.15588C26.3635 7.29762 25.5213 6.65968 24.4167 6.24206C24.4108 6.23982 24.4049 6.2376 24.3989 6.23537L26.2819 4.72902C26.5613 4.87808 26.8283 5.03904 27.0829 5.21189C28.0064 5.83913 28.7246 6.67582 29.237 7.72196C29.7496 8.7681 30.0039 10.0758 30 11.645C30 13.2207 29.7051 14.6311 29.1155 15.8762C28.526 17.1212 27.7171 18.1035 26.6886 18.8231C25.6602 19.5426 24.4896 19.9026 23.177 19.9026C22.3563 19.9026 21.6164 19.7874 20.9569 19.557C20.2975 19.3266 19.6948 19.0394 19.1493 18.6952C18.6314 18.3697 18.1244 18.0266 17.6292 17.6667C17.1614 17.3251 16.7142 17.0393 16.2874 16.8089C15.8607 16.5785 15.4315 16.4635 15.0001 16.4635C14.5686 16.4635 14.1395 16.5787 13.7127 16.8089C13.2858 17.0393 12.8385 17.3259 12.3708 17.6689C11.903 18.0119 11.3964 18.3548 10.8507 18.6975C10.305 19.0402 9.70234 19.3274 9.04288 19.5593C8.52394 19.7417 7.9539 19.8514 7.33269 19.8884L14.3419 14.281Z" fill="white"/>
<path d="M26.25 1.15259L1.875 20.8474" stroke="white" stroke-width="2" stroke-linecap="round"/>
</svg>
