<svg width="393" height="189" viewBox="0 0 393 189" fill="none" xmlns="http://www.w3.org/2000/svg">
<g clip-path="url(#clip0_1420_504)">
<rect y="-0.349609" width="393" height="215.384" fill="url(#paint0_linear_1420_504)"/>
<path style="mix-blend-mode:screen" d="M-0.122318 78.4634L-37.9648 100.468L0.121975 122.481L37.9645 100.468L-0.122318 78.4634Z" fill="url(#paint1_linear_1420_504)"/>
<path style="mix-blend-mode:screen" opacity="0.2" d="M90.1876 129.834L48 154.374L90.46 178.906L132.648 154.374L90.1876 129.834Z" fill="url(#paint2_linear_1420_504)"/>
<path style="mix-blend-mode:screen" opacity="0.2" d="M175.716 158.836L153.41 171.801L175.861 184.775L198.158 171.801L175.716 158.836Z" fill="url(#paint3_linear_1420_504)"/>
<path style="mix-blend-mode:screen" opacity="0.3" d="M151.977 21.8052L126.121 36.842L152.14 51.8788L177.995 36.842L151.977 21.8052Z" fill="url(#paint4_linear_1420_504)"/>
<path style="mix-blend-mode:screen" opacity="0.3" d="M156.333 126.536L130.023 141.836L176.433 168.621L202.742 153.321L156.333 126.536Z" fill="url(#paint5_linear_1420_504)"/>
<path style="mix-blend-mode:screen" opacity="0.3" d="M354.043 109.728L331.955 122.575L370.911 145.062L392.999 132.215L354.043 109.728Z" fill="url(#paint6_linear_1420_504)"/>
<path style="mix-blend-mode:screen" opacity="0.3" d="M126.228 62.4819L95.1523 80.5534L149.977 112.199L181.053 94.1183L126.228 62.4819Z" fill="url(#paint7_linear_1420_504)"/>
<path style="mix-blend-mode:screen" opacity="0.3" d="M293.074 80.199L250.887 104.73L293.347 129.271L335.534 104.73L293.074 80.199Z" fill="url(#paint8_linear_1420_504)"/>
<path style="mix-blend-mode:screen" d="M377.881 152.395C377.881 154.085 376.51 155.457 374.821 155.457C373.133 155.457 371.762 154.085 371.762 152.395C371.762 150.705 373.133 149.333 374.821 149.333C376.51 149.333 377.881 150.705 377.881 152.395Z" fill="url(#paint9_radial_1420_504)"/>
<path style="mix-blend-mode:screen" d="M316.629 26.2377C316.629 27.9276 315.258 29.2995 313.569 29.2995C311.881 29.2995 310.51 27.9276 310.51 26.2377C310.51 24.5477 311.881 23.1758 313.569 23.1758C315.258 23.1758 316.629 24.5477 316.629 26.2377Z" fill="url(#paint10_radial_1420_504)"/>
<path style="mix-blend-mode:screen" d="M384.709 14.0409C384.709 15.7308 383.338 17.1028 381.649 17.1028C379.961 17.1028 378.59 15.7308 378.59 14.0409C378.59 12.3509 379.961 10.979 381.649 10.979C383.338 10.979 384.709 12.3509 384.709 14.0409Z" fill="url(#paint11_radial_1420_504)"/>
<path style="mix-blend-mode:screen" d="M197.51 118.829C197.51 120.519 196.139 121.891 194.45 121.891C192.761 121.891 191.391 120.519 191.391 118.829C191.391 117.139 192.761 115.767 194.45 115.767C196.139 115.767 197.51 117.139 197.51 118.829Z" fill="url(#paint12_radial_1420_504)"/>
<path style="mix-blend-mode:screen" d="M158.826 13.7499C158.826 15.4398 157.455 16.8117 155.766 16.8117C154.078 16.8117 152.707 15.4398 152.707 13.7499C152.707 12.0599 154.078 10.688 155.766 10.688C157.455 10.688 158.826 12.0599 158.826 13.7499Z" fill="url(#paint13_radial_1420_504)"/>
<g opacity="0.5" clip-path="url(#clip1_1420_504)">
<path d="M347.583 167.173C347.583 170.981 347.709 171.259 347.133 172.091C346.957 172.293 347.032 172.217 346.807 172.394L346.607 172.495C346.356 172.595 346.431 172.57 346.181 172.621C345.905 172.621 346.006 172.621 345.705 172.621C345.204 172.52 345.104 172.469 344.703 172.242C305.755 149.595 308.66 151.285 308.234 151.007C307.808 150.705 307.683 150.604 307.182 150.049C306.756 149.519 306.656 149.368 306.331 148.788C306.03 148.157 305.955 148.006 305.78 147.401C305.629 146.745 305.629 146.619 305.604 146.14C305.604 116.507 305.554 118.65 305.73 117.944C305.855 117.642 305.805 117.743 305.93 117.49C306.105 117.263 306.03 117.339 306.23 117.137C306.431 116.986 306.356 117.036 306.606 116.885C306.857 116.784 306.782 116.809 307.032 116.759C307.984 116.709 308.084 116.885 311.415 118.827C311.415 144.98 311.365 142.811 311.515 143.668C311.666 144.299 311.716 144.475 311.966 145.055C312.267 145.636 312.342 145.812 312.743 146.342C313.169 146.871 313.294 146.997 313.745 147.401C314.296 147.83 311.49 146.165 347.558 167.123L347.583 167.173Z" fill="url(#paint14_linear_1420_504)"/>
<path d="M349.462 142.13V169.443V169.72L349.412 169.998L349.387 170.174L349.337 170.326L349.237 170.603L349.111 170.83L348.961 171.032L348.786 171.208L348.585 171.335L348.36 171.435L348.134 171.486L347.884 171.511H347.608L347.333 171.435L347.032 171.335L346.807 171.234L346.556 171.108L310.413 150.1L310.113 149.923L309.837 149.696L309.587 149.469L309.311 149.217L309.061 148.939L308.835 148.662L308.61 148.334L308.41 148.032L308.234 147.704L308.059 147.351L307.909 147.023L307.783 146.67L307.683 146.317L307.608 145.964L307.533 145.61L307.508 145.383V145.03V117.743V117.415L307.558 117.112L307.633 116.86L307.708 116.608L307.833 116.381L307.959 116.179L308.109 116.028L308.284 115.902L308.485 115.776L308.685 115.725L308.91 115.675L309.161 115.649L309.411 115.675L309.662 115.75L309.937 115.826L310.113 115.902L310.413 116.053L346.556 137.086L346.857 137.263L347.133 137.464L347.383 137.691L347.659 137.944L347.909 138.221L348.134 138.524L348.36 138.826L348.56 139.154L348.736 139.482L348.911 139.81L349.061 140.163L349.186 140.516L349.287 140.869L349.362 141.222L349.437 141.575L349.462 141.802V142.13Z" fill="url(#paint15_linear_1420_504)"/>
<path d="M349.336 170.326C349.211 170.704 349.186 170.704 349.036 170.931C348.835 171.158 348.911 171.082 348.685 171.259C348.435 171.41 348.51 171.36 348.234 171.461C347.934 171.511 348.059 171.511 347.733 171.511C347.408 171.461 347.533 171.511 347.157 171.385C346.782 171.234 346.932 171.309 346.556 171.108C307.658 148.511 310.538 150.2 310.112 149.923C309.286 149.318 308.81 148.687 308.284 147.83C307.983 147.224 307.908 147.048 307.708 146.443C307.432 145.383 307.507 145.963 307.507 138.297L308.334 135.043C310.037 129.47 309.661 130.605 310.187 129.142C310.764 127.957 310.538 128.335 311.164 127.427C311.69 126.847 311.49 127.049 312.116 126.544C312.617 126.267 312.442 126.343 312.893 126.166C313.469 126.015 313.268 126.065 313.844 126.015C314.496 126.04 314.245 126.015 314.871 126.141C315.447 126.317 315.222 126.242 315.773 126.469C316.324 126.746 316.124 126.645 316.625 126.948C317.226 127.402 317.401 127.578 317.902 128.133C318.678 129.117 318.904 129.545 319.43 130.529C320.106 131.967 319.856 131.361 320.582 133.152L321.108 134.665C323.187 142.281 323.362 143.769 325.141 145.56C325.541 145.913 325.541 145.913 325.992 146.19C326.318 146.342 326.193 146.291 326.518 146.417C326.819 146.493 326.719 146.468 327.019 146.518C327.345 146.518 327.32 146.518 327.62 146.417C327.921 146.241 327.62 146.493 329.098 145.106C329.699 144.652 329.499 144.778 329.975 144.526C330.426 144.375 330.25 144.425 330.701 144.349H331.077C331.478 144.4 331.327 144.349 331.703 144.45C332.104 144.602 331.954 144.526 332.354 144.702C332.755 144.929 332.605 144.854 333.006 145.106C333.607 145.56 333.757 145.711 334.258 146.291C334.759 146.922 334.884 147.124 335.31 147.88C335.761 148.788 335.585 148.41 336.036 149.469C337.865 155.169 337.94 155.824 339.267 156.959C339.668 157.262 339.793 157.312 340.219 157.489C340.62 157.59 340.67 157.59 340.996 157.565C342.273 157.262 342.298 157.262 342.699 157.287C342.949 157.338 342.824 157.287 343.175 157.388C343.55 157.539 343.4 157.489 343.751 157.665C344.127 157.918 343.976 157.817 344.327 158.069C344.903 158.573 345.078 158.725 345.83 159.683C346.356 160.465 346.18 160.162 346.631 160.944C347.333 162.281 347.383 162.508 347.833 163.794C349.437 170.78 349.211 169.746 349.336 170.275V170.326Z" fill="url(#paint16_linear_1420_504)"/>
<path d="M344.754 146.871C344.754 147.477 344.754 147.25 344.754 147.855C344.704 148.233 344.754 148.057 344.629 148.561C344.479 149.04 344.529 148.864 344.353 149.267C344.128 149.62 344.228 149.494 343.953 149.822C343.652 150.074 343.777 149.999 343.427 150.2C343.051 150.352 343.201 150.301 342.8 150.402C342.375 150.427 342.525 150.427 342.099 150.402C341.648 150.326 341.824 150.377 341.323 150.226C340.847 150.024 341.022 150.125 340.496 149.847C339.995 149.519 340.145 149.646 339.82 149.393C339.144 148.838 338.943 148.637 338.317 147.88C337.766 147.124 337.616 146.922 337.14 145.989C336.739 145.081 336.639 144.829 336.413 143.946C336.288 143.341 336.338 143.568 336.263 142.937C336.263 142.332 336.238 142.559 336.263 141.954C336.313 141.575 336.263 141.752 336.388 141.247L336.514 140.869C336.689 140.466 336.614 140.617 336.864 140.239C337.115 139.936 337.015 140.037 337.315 139.785C337.666 139.583 337.54 139.633 337.891 139.482C338.292 139.381 338.142 139.406 338.542 139.381C338.968 139.381 338.793 139.381 339.269 139.457L339.67 139.583C340.17 139.785 339.97 139.684 340.496 139.961C341.097 140.339 341.247 140.44 341.974 141.121C342.6 141.802 342.775 142.004 343.326 142.836C343.802 143.643 343.928 143.895 344.278 144.829C344.579 145.787 344.629 146.014 344.729 146.871H344.754Z" fill="url(#paint17_linear_1420_504)"/>
<path d="M355.974 141.373C355.974 171.738 356.049 168.939 355.799 170.2C355.598 170.805 355.673 170.603 355.448 171.133C355.147 171.587 355.273 171.435 354.922 171.839C354.421 172.268 355.248 171.738 348.46 175.697C348.911 175.42 348.76 175.521 349.136 175.193C349.487 174.79 349.361 174.941 349.662 174.487C349.913 173.957 349.812 174.184 350.013 173.579C350.163 172.822 350.163 172.923 350.188 172.041C350.188 141.676 350.188 145.03 350.188 144.097C350.088 143.265 350.138 143.568 349.988 142.786C349.687 141.626 349.587 141.323 349.061 140.138C348.485 139.053 348.335 138.751 347.558 137.691C347.032 137.036 347.232 137.288 346.631 136.632C346.03 136.077 346.256 136.279 345.629 135.724C345.179 135.396 345.379 135.548 344.728 135.119C304.552 111.816 308.735 114.237 307.983 113.833C307.332 113.556 307.558 113.657 306.956 113.48C306.33 113.38 306.556 113.405 306.005 113.38C305.479 113.43 305.679 113.38 305.153 113.531L304.777 113.682L310.538 110.303C311.014 110.101 310.839 110.151 311.34 110.051C311.891 110 311.69 110 312.241 110.051C312.818 110.151 312.592 110.101 313.243 110.278C313.869 110.53 313.619 110.429 314.32 110.782C353.82 133.732 350.639 131.79 351.891 132.824C352.743 133.631 352.943 133.858 353.745 134.917C354.421 135.951 354.596 136.254 355.122 137.439C355.423 138.246 355.323 137.918 355.598 138.776C355.799 139.583 355.723 139.28 355.899 140.112C355.999 140.894 355.974 140.592 355.999 141.424L355.974 141.373Z" fill="url(#paint18_linear_1420_504)"/>
<path d="M350.189 144.753C350.189 175.117 350.264 172.318 350.013 173.579C349.813 174.184 349.888 173.982 349.663 174.487C349.362 174.941 349.487 174.789 349.137 175.193C348.761 175.521 348.911 175.42 348.46 175.697C347.985 175.899 348.16 175.823 347.659 175.95C347.108 176 347.308 176 346.757 175.95C346.181 175.849 346.407 175.899 345.755 175.723C345.129 175.47 345.38 175.571 344.678 175.218C343.902 174.764 343.902 174.764 344.578 175.142L345.054 175.344C345.63 175.521 345.43 175.47 345.956 175.546C346.457 175.546 346.256 175.571 346.757 175.546C347.208 175.445 347.033 175.496 347.484 175.319C347.884 175.067 347.734 175.168 348.085 174.865C348.41 174.487 348.285 174.638 348.561 174.235C348.786 173.781 348.711 173.957 348.886 173.402C349.037 172.696 349.011 172.822 349.062 172.015C349.062 141.928 349.162 144.526 348.861 142.987C348.611 141.979 348.485 141.676 348.01 140.617C347.509 139.658 347.358 139.381 346.657 138.423C345.931 137.54 345.705 137.338 344.929 136.682C344.553 136.405 344.728 136.531 344.127 136.128C304.778 113.304 307.909 115.069 306.982 114.691C306.406 114.514 306.606 114.565 306.08 114.489C305.58 114.489 305.78 114.464 305.279 114.489C304.828 114.59 305.003 114.54 304.553 114.716C304.152 114.968 304.302 114.867 303.951 115.17C303.626 115.548 303.751 115.397 303.476 115.8C303.25 116.254 303.325 116.078 303.15 116.633C303 117.339 303.025 117.213 302.975 118.02C302.975 116.507 303.025 116.481 303.15 115.8C303.35 115.195 303.275 115.397 303.501 114.893C303.801 114.439 303.676 114.59 304.027 114.186C304.402 113.859 304.252 113.959 304.703 113.707C305.179 113.506 305.003 113.556 305.504 113.455C306.055 113.405 305.855 113.405 306.406 113.455C306.982 113.556 306.757 113.506 307.408 113.682C308.034 113.934 307.784 113.833 308.485 114.186C348.21 137.262 344.829 135.22 346.056 136.228C346.682 136.834 346.457 136.607 347.033 137.212C347.609 137.893 347.408 137.641 347.909 138.322C348.586 139.356 348.786 139.684 349.287 140.844C349.588 141.651 349.487 141.323 349.763 142.18C349.963 142.987 349.888 142.685 350.063 143.517C350.164 144.324 350.139 144.021 350.164 144.828L350.189 144.753Z" fill="url(#paint19_linear_1420_504)"/>
<path d="M307.032 116.431C306.632 116.356 306.782 116.356 306.431 116.33C306.081 116.33 306.206 116.33 305.88 116.406C305.58 116.507 305.68 116.456 305.404 116.608C305.154 116.809 305.229 116.734 305.004 116.961C304.803 117.238 304.878 117.137 304.703 117.465C304.578 117.818 304.603 117.667 304.528 118.096C304.478 118.55 304.478 118.373 304.453 118.827C304.453 148.511 304.402 146.19 304.578 147.25C304.753 147.956 304.803 148.158 305.129 148.939C305.48 149.62 305.58 149.822 306.056 150.503C306.557 151.133 306.707 151.285 307.258 151.764C307.684 152.067 307.533 151.966 307.909 152.218C347.033 174.966 344.178 173.352 344.979 173.629C345.38 173.705 345.229 173.68 345.58 173.73C345.931 173.73 345.806 173.73 346.131 173.68C346.432 173.579 346.332 173.629 346.607 173.453C346.858 173.251 346.782 173.327 347.008 173.1C347.208 172.797 347.133 172.923 347.308 172.595C347.634 171.738 347.559 171.889 347.559 167.173C347.559 141.55 347.609 143.795 347.434 142.811C347.258 142.105 347.208 141.903 346.883 141.121C346.557 140.44 346.432 140.264 345.956 139.558C345.455 138.927 345.305 138.776 344.754 138.297C344.328 137.994 344.478 138.095 344.102 137.843C305.029 115.12 307.859 116.709 307.032 116.431ZM349.012 144.778C349.012 175.168 349.087 172.293 348.836 173.428C348.661 173.983 348.736 173.781 348.511 174.26C348.26 174.663 348.36 174.512 348.035 174.89C347.684 175.193 347.834 175.092 347.434 175.344C347.008 175.521 347.158 175.471 346.707 175.571C346.206 175.622 346.407 175.622 345.906 175.571C345.38 175.471 345.58 175.521 345.004 175.37C344.428 175.143 344.653 175.244 344.027 174.916C305.254 152.319 308.21 154.059 307.458 153.58C306.682 153.025 306.381 152.697 305.83 152.092C305.104 151.234 304.928 150.957 304.377 149.999C303.876 149.015 303.751 148.763 303.401 147.653C303.225 146.947 303.275 147.199 303.125 146.468C303.025 145.736 303.05 146.014 303.025 145.283C303 114.943 302.95 117.768 303.175 116.633C303.35 116.078 303.275 116.28 303.501 115.801C303.751 115.397 303.651 115.523 303.977 115.17C304.327 114.868 304.177 114.968 304.578 114.716C305.004 114.54 304.853 114.59 305.304 114.489C305.805 114.439 305.605 114.439 306.106 114.489C306.632 114.59 306.431 114.54 307.007 114.691C307.583 114.918 307.358 114.817 307.984 115.145C346.833 137.717 343.877 136.002 344.628 136.481C345.43 137.061 345.705 137.364 346.256 137.969C346.983 138.826 347.158 139.104 347.709 140.062C348.235 141.096 348.36 141.399 348.686 142.407C348.861 143.114 348.811 142.861 348.962 143.593C349.037 144.324 349.012 144.072 349.062 144.778H349.012Z" fill="url(#paint20_linear_1420_504)"/>
<path d="M347.584 170.527C347.584 171.536 347.584 171.637 347.433 172.268C347.308 172.646 347.358 172.52 347.183 172.822L347.008 173.049C346.782 173.276 346.882 173.201 346.607 173.403C346.306 173.554 346.432 173.503 346.131 173.63L345.855 173.68C345.505 173.68 345.655 173.68 345.279 173.68C344.879 173.604 345.029 173.63 344.653 173.503C344.353 173.377 344.478 173.428 344.102 173.226C305.154 150.579 307.809 152.218 306.932 151.461C306.406 150.932 306.256 150.78 305.78 150.1C305.354 149.444 305.254 149.217 304.928 148.485C304.678 147.754 304.603 147.527 304.477 146.796C304.452 146.443 304.452 146.594 304.427 146.115C304.427 116.532 304.327 118.424 304.678 117.44C304.853 117.137 304.778 117.238 304.978 116.936C305.204 116.709 305.104 116.784 305.379 116.583C305.68 116.431 305.554 116.482 305.855 116.381L306.131 116.33C306.481 116.33 306.331 116.33 306.707 116.33C307.107 116.406 306.957 116.381 307.333 116.507C307.633 116.633 307.508 116.583 307.884 116.784C308.41 117.087 308.71 117.238 308.184 116.986C307.959 116.885 308.059 116.936 307.734 116.809C307.408 116.734 307.533 116.759 307.233 116.734H306.982C306.707 116.809 306.807 116.759 306.556 116.86C306.331 116.986 306.406 116.936 306.181 117.112L306.03 117.289C305.855 117.541 305.93 117.44 305.78 117.692C305.68 117.995 305.705 117.869 305.63 118.222C305.579 118.575 305.605 118.424 305.579 118.852C305.579 148.788 305.529 146.241 305.68 147.073C305.83 147.704 305.88 147.88 306.131 148.46C306.406 149.04 306.506 149.192 306.907 149.746C307.333 150.276 307.458 150.402 307.909 150.806C308.234 151.058 308.109 150.957 308.46 151.184C347.559 173.907 344.678 172.293 345.355 172.52C345.68 172.596 345.555 172.57 345.855 172.596C346.131 172.596 346.031 172.596 346.306 172.545C346.557 172.444 346.457 172.495 346.707 172.369C346.933 172.192 346.857 172.268 347.033 172.066C347.208 171.814 347.133 171.915 347.283 171.662C347.383 171.36 347.358 171.486 347.433 171.133C347.484 170.78 347.484 170.906 347.484 170.502L347.584 170.527Z" fill="url(#paint21_linear_1420_504)"/>
</g>
<path style="mix-blend-mode:screen" d="M28.9716 54.4222C28.9716 55.9545 27.7235 57.1985 26.186 57.1985C24.6485 57.1985 23.4004 55.9545 23.4004 54.4222C23.4004 52.8899 24.6485 51.646 26.186 51.646C27.7235 51.646 28.9716 52.8899 28.9716 54.4222Z" fill="url(#paint22_radial_1420_504)"/>
<path style="mix-blend-mode:screen" d="M34.5419 140.722C34.5419 142.254 33.2938 143.498 31.7563 143.498C30.2189 143.498 28.9707 142.254 28.9707 140.722C28.9707 139.189 30.2189 137.945 31.7563 137.945C33.2938 137.945 34.5419 139.189 34.5419 140.722Z" fill="url(#paint23_radial_1420_504)"/>
<g style="mix-blend-mode:overlay" filter="url(#filter0_f_1420_504)">
<circle cx="369.728" cy="101.343" r="66.8571" fill="#4EE2E0" fill-opacity="0.5"/>
</g>
<g style="mix-blend-mode:overlay" filter="url(#filter1_f_1420_504)">
<circle cx="68.6865" cy="-17.9702" r="119.313" fill="#4EE2E0" fill-opacity="0.5"/>
</g>
<g opacity="0.5" clip-path="url(#clip2_1420_504)">
<path d="M74.1048 39.2882C73.3021 38.8687 73.3663 38.9023 73.88 39.1708C75.3904 39.8788 76.4691 40.2393 78.0012 40.5929C80.5504 41.1121 82.7489 41.2854 85.4547 41.114C88.1938 40.8788 90.3704 40.3902 92.6342 39.5C93.5793 39.0996 94.0031 38.9145 94.9507 38.3527C95.359 38.1189 95.4412 38.0399 95.065 38.2905C93.8387 39.0725 92.8102 39.6326 91.0368 40.21C89.9145 40.5585 89.2969 40.7235 88.1116 40.9578C85.8554 41.3641 84.0575 41.4409 81.8744 41.3162C80.5003 41.2079 79.6926 41.1109 78.4186 40.811C77.1125 40.4943 76.3394 40.2529 75.2298 39.7949C74.6352 39.5248 74.6031 39.508 74.1369 39.305L74.1048 39.2882Z" fill="url(#paint24_linear_1420_504)"/>
<path d="M106.758 56.4347C87.7186 46.4838 89.3239 47.3229 88.4095 46.8043C87.0956 45.955 85.9924 45.0938 84.5436 43.5642C83.8911 42.8573 83.3349 42.2007 82.7325 41.398C84.2697 41.429 85.4357 41.3879 87.0255 41.1618C87.5842 41.6571 87.9682 41.9391 88.5924 42.3873C89.1215 42.7045 87.7897 41.9677 106.572 51.7844C107.118 52.0696 107.52 52.2391 108.182 52.3815C108.698 52.4887 109.086 52.5287 109.637 52.4914C109.896 52.4644 109.994 52.4341 110.286 52.3432C110.547 52.2355 110.628 52.2371 110.857 52.1127C111.085 51.9882 111.134 51.973 111.364 51.7679C111.577 51.5947 111.61 51.5309 111.808 51.309C112.089 50.9274 112.256 50.6081 112.442 50.0956C112.717 49.1008 112.729 48.2943 112.6 47.2914C112.12 43.8291 110.02 40.4954 107.414 38.4424C106.39 37.6634 106.806 37.9622 99.2291 34.002C87.831 28.0449 88.5695 28.4309 88.0558 28.1624C87.4766 27.941 87.09 27.8203 86.5083 27.7601C86.1526 27.7368 86.0717 27.7352 85.7801 27.7455C85.4886 27.7557 85.4398 27.7709 85.115 27.845C84.8222 27.9359 84.7734 27.9511 84.5127 28.0588C84.2842 28.1832 84.2187 28.2303 83.9734 28.3867C83.7436 28.5918 83.6948 28.607 83.5292 28.8457C83.3636 29.0843 83.2981 29.1314 83.1646 29.3869C82.981 29.7381 82.8475 29.9936 82.7423 30.5078C81.2385 30.4129 79.7539 30.1249 78.3874 29.5327C78.386 28.5969 78.4437 28.0172 78.6015 27.246C78.7234 26.6999 78.7748 26.5234 78.9442 26.0428C79.1624 25.5471 79.2292 25.4193 79.4782 25.021C79.7273 24.6227 79.8262 24.5117 80.1394 24.1469C80.4681 23.8309 80.5182 23.7351 80.9111 23.4526C81.2873 23.202 81.4016 23.1398 81.8254 22.9547C82.2324 22.8016 82.3467 22.7393 82.8501 22.6365C83.3047 22.5489 83.4665 22.5521 83.9686 22.53C84.5028 22.5246 84.6479 22.5598 85.1488 22.6183C85.7138 22.7103 85.8589 22.7455 86.4227 22.9182C87.26 23.1932 87.6941 23.3794 88.4647 23.7822C104.422 32.1221 105.578 32.7262 106.124 33.0115C106.734 33.3303 106.845 33.4294 107.47 33.8776C108.542 34.6413 109.133 35.1534 110.041 36.0752C112.638 38.6928 114.485 41.6502 115.727 44.9827C116.162 46.1854 116.392 46.9967 116.599 48.2432C116.806 49.4897 116.858 50.249 116.841 51.3781C116.815 51.9745 116.796 52.1677 116.689 52.7625C116.566 53.3893 116.548 53.5019 116.379 53.9825C116.159 54.5589 116.109 54.6547 115.909 55.0378C115.675 55.4849 115.576 55.5958 115.28 55.9287C114.983 56.2615 114.901 56.3405 114.524 56.6718C114.179 56.9391 114.049 57.0333 113.657 57.2351C113.233 57.4202 113.119 57.4824 112.68 57.6188C112.208 57.7384 112.079 57.7519 111.609 57.7908C111.107 57.813 110.945 57.8097 110.444 57.7512C109.911 57.676 109.749 57.6727 109.185 57.5C108.218 57.2385 107.72 57.0188 106.821 56.5489L106.758 56.4347Z" fill="url(#paint25_linear_1420_504)"/>
<path d="M107.367 56.7536C106.757 56.4348 106.468 56.2837 107.111 56.6193C107.817 56.9885 108.236 57.126 109.122 57.3859C109.67 57.5098 109.815 57.545 110.38 57.6371C110.881 57.6956 111.043 57.6988 111.545 57.6767C112.015 57.6377 112.145 57.6242 112.616 57.5046C113.055 57.3683 113.153 57.338 113.593 57.121C113.985 56.9191 114.116 56.8249 114.46 56.5576C114.804 56.2902 114.886 56.2112 115.216 55.8145C115.481 55.4649 115.58 55.3539 115.845 54.9237C116.046 54.5405 116.096 54.4447 116.315 53.8683C116.485 53.3877 116.519 53.2432 116.626 52.6484C116.787 51.6352 116.814 50.9581 116.752 49.7468C116.643 48.47 116.509 47.709 116.188 46.5248C115.836 45.2431 115.54 44.4788 114.993 43.2578C113.96 41.0105 112.791 39.1799 111.17 37.2757C110.296 36.2901 109.674 35.6806 108.733 34.8227C107.71 33.9631 107.102 33.5637 106.043 32.9292C105.498 32.644 104.342 32.0399 88.3843 23.6999C87.9669 23.4818 88.1275 23.5657 87.7101 23.3475C86.6493 22.8744 86.0046 22.7001 85.1005 22.5528C84.5676 22.4776 84.4058 22.4743 83.9203 22.4645C83.4182 22.4867 83.2885 22.5002 82.8018 22.5711C82.3794 22.6755 82.2497 22.689 81.7771 22.8893C81.3855 23.0911 81.2391 23.1366 80.8629 23.3871C80.5187 23.6545 80.4366 23.7335 80.0912 24.0815C79.7946 24.4143 79.679 24.5572 79.43 24.9556C79.213 25.3707 79.1463 25.4984 78.8959 25.9774C78.7265 26.458 78.6752 26.6344 78.5533 27.1805C78.3954 27.9518 78.3211 28.5634 78.3392 29.4672C78.289 28.5466 78.3133 28.0308 78.3722 27.3705C78.4466 26.7589 78.4813 26.6144 78.6044 25.9876C78.7584 25.4583 78.7931 25.3138 79.028 24.7861C79.2783 24.3071 79.3451 24.1794 79.5787 23.7324C79.8432 23.3827 79.8599 23.3508 80.091 23.0651C80.4364 22.7171 80.5353 22.6061 80.9282 22.3236C81.1901 22.1353 81.1079 22.2143 81.402 22.0427C81.6794 21.9031 81.5818 21.9334 81.8912 21.8106C82.315 21.6255 82.4447 21.612 82.9647 21.4773C83.3217 21.4199 83.192 21.4334 83.549 21.3761C83.9381 21.3355 83.8084 21.349 84.1487 21.3236C84.6829 21.3182 84.8769 21.3383 85.4098 21.4135C86.4269 21.5792 87.0549 21.7855 88.1966 22.2602C88.6461 22.4952 88.4856 22.4113 88.903 22.6294C108.071 32.6474 106.08 31.607 106.594 31.8755C107.733 32.5115 108.405 33.0252 109.444 33.8528C110.514 34.7779 111.119 35.4193 112.058 36.4385C113.806 38.4905 114.958 40.3529 116.101 42.7799C116.679 44.0984 116.958 44.8946 117.358 46.2418C117.695 47.4747 117.842 48.3651 117.952 49.6419C117.989 50.3525 117.987 50.5138 117.958 51.2715C117.916 51.8999 117.897 52.0931 117.806 52.7367C117.699 53.3315 117.665 53.476 117.462 54.0205C117.276 54.533 117.209 54.6607 116.959 55.1397C116.708 55.6187 116.61 55.7296 116.296 56.0944C115.983 56.4592 115.884 56.5701 115.491 56.8526C115.098 57.1351 115.016 57.2141 114.576 57.4312C114.152 57.6162 114.038 57.6785 113.518 57.8132C112.997 57.9479 112.868 57.9615 112.366 57.9836C111.783 58.0041 111.67 57.9857 111.12 57.9424C110.555 57.8503 110.361 57.8303 109.781 57.6895C108.83 57.3961 108.251 57.1747 107.288 56.6713L107.367 56.7536Z" fill="url(#paint26_linear_1420_504)"/>
<path d="M73.4959 38.9694C54.6811 29.136 56.0296 29.8408 55.1152 29.3222C54.1224 28.6407 53.6112 28.2109 52.9587 27.504C52.5772 27.0607 52.4822 26.9297 52.2137 26.5049C51.9453 26.08 51.899 25.9338 51.696 25.4619C51.5419 24.9747 51.4956 24.8286 51.4056 24.375C51.349 23.8576 51.4018 24.617 51.059 17.6079C51.0861 17.9473 51.0694 17.9792 51.1593 18.4328C51.2814 18.9031 51.2956 19.0325 51.4985 19.5044C51.7182 19.9445 51.7812 20.0587 52.065 20.5323C52.3977 20.9907 52.4928 21.1217 52.8588 21.5163C53.2891 21.9445 53.433 22.0603 53.8799 22.4565C54.5837 22.987 55.0165 23.2538 55.8346 23.7221C75.0027 33.74 73.012 32.6997 73.5257 32.9681C74.1358 33.287 74.3451 33.3557 75.1015 33.6291C76.3408 34.0735 77.1628 34.2998 78.551 34.5375C81.2144 34.9945 83.4797 35.0401 86.0416 34.7529C88.5714 34.4489 90.7159 33.9435 93.0799 32.8618C93.6834 32.5674 94.2869 32.273 95.0882 31.7567L99.0695 33.8375C98.9359 34.0929 98.9514 34.1416 98.7177 34.5887C98.4507 35.0996 98.3518 35.2105 98.0052 35.6392C97.6418 36.0997 97.4942 36.2258 97.0666 36.6529C96.2949 37.3472 95.6889 37.8029 94.5127 38.4891C93.4187 39.0963 92.6367 39.4194 91.3025 39.8604C88.846 40.6499 86.6552 41.0091 83.9675 41.0679C81.3773 41.0964 79.1633 40.8744 76.6334 40.162C75.3286 39.7646 74.5888 39.4593 73.4163 38.8871L73.4959 38.9694Z" fill="url(#paint27_linear_1420_504)"/>
<path d="M115.128 57.2325C115.521 56.95 115.635 56.8878 115.981 56.5398C116.31 56.2237 116.408 56.1128 116.723 55.6674C116.989 55.2371 117.055 55.1094 117.274 54.6136C117.509 54.0859 117.543 53.9414 117.697 53.4121C117.923 52.4325 118.014 51.789 118.002 50.4819C117.957 49.2386 117.857 48.4138 117.57 47.085C116.962 44.572 116.104 42.538 114.797 40.269C114.055 39.0279 113.533 38.3075 112.661 37.1605C111.74 36.0287 111.135 35.3873 110.146 34.4639C109.06 33.4902 108.389 32.9765 107.347 32.3101C106.417 31.7429 108.07 32.6474 88.9021 22.6294C88.2921 22.3106 88.1315 22.2267 87.456 21.9549C86.8768 21.7335 86.7317 21.6983 86.087 21.524C85.4577 21.3984 85.3126 21.3632 84.763 21.3199C84.2133 21.2765 84.0348 21.3052 83.5327 21.3273C83.046 21.3982 82.9163 21.4117 82.3963 21.5465C81.8916 21.7299 81.6964 21.7905 81.1571 22.1185C84.7537 19.8515 83.9692 20.3358 85.6205 19.2881C86.6503 18.6473 87.0111 18.3481 88.213 18.0819C88.6997 18.011 88.7973 17.9807 89.3803 17.9602C89.9954 17.9564 90.1084 17.9748 90.6414 18.0501C92.7398 18.415 93.8623 19.083 95.7245 20.0563C113.159 29.1681 111.714 28.413 112.612 28.9635C113.22 29.3629 113.381 29.4469 114.053 29.9605C116.083 31.5503 117.578 33.2261 119.082 35.3538C120.617 37.5789 121.573 39.5826 122.408 42.0518C122.84 43.4158 123.006 44.1935 123.179 45.5039C123.336 46.8462 123.34 47.6207 123.209 48.7313C123.135 49.3429 123.1 49.4874 122.977 50.1142C122.789 50.788 122.722 50.9157 122.554 51.3157C122.303 51.7947 122.237 51.9224 122.003 52.3694C121.705 52.7829 121.606 52.8939 121.261 53.2419C120.932 53.5579 120.801 53.6521 120.408 53.9346L115.144 57.2812L115.128 57.2325Z" fill="url(#paint28_linear_1420_504)"/>
<path d="M106.555 51.7357C87.7727 41.9191 89.1533 42.6406 88.5754 42.3386C87.9345 41.9223 87.5505 41.6403 87.0085 41.1131C87.4952 41.0422 87.901 40.9697 88.5341 40.8534C88.8539 41.1019 89.1107 41.2361 89.383 41.4191C89.8325 41.654 107.138 50.6987 107.267 50.7658C107.78 51.0343 108.135 51.1383 108.715 51.279C109.28 51.3711 109.572 51.3608 110.01 51.3051C110.448 51.2494 110.725 51.1097 111.085 50.8911C111.33 50.7347 111.363 50.6708 111.511 50.5447C111.692 50.3548 111.709 50.3229 111.874 50.0842C112.289 49.4472 112.56 48.6943 112.545 47.5485C112.616 48.1953 112.576 48.6624 112.519 49.2421C112.428 49.8856 112.293 50.2217 112.091 50.6855C111.841 51.1645 111.675 51.4032 111.298 51.7344C111.085 51.9076 111.019 51.9546 110.791 52.0791C110.562 52.2036 110.465 52.2339 110.221 52.3096C109.977 52.3854 109.896 52.3838 109.571 52.4579C109.311 52.4849 109.263 52.5001 108.875 52.46C107.986 52.3614 107.326 52.1384 106.523 51.7189L106.555 51.7357Z" fill="url(#paint29_linear_1420_504)"/>
<path d="M107.107 50.6818C88.1954 40.798 89.7045 41.5867 89.2228 41.335C88.966 41.2008 88.8542 41.1017 88.5987 40.8868C89.8327 40.6374 90.6134 40.395 91.8346 39.9355C93.2677 39.3836 93.9534 39.0102 95.0653 38.2904C117.605 50.0704 111.504 46.882 112.596 47.4526C112.61 47.5819 112.595 47.5332 112.59 47.8558C112.564 48.4523 112.493 48.8219 112.341 49.2706C112.239 49.5428 112.206 49.6067 112.072 49.8621C111.956 50.0857 111.922 50.1495 111.741 50.3395C111.445 50.6723 111.231 50.8455 110.84 51.0474C110.448 51.2492 110.14 51.2914 109.702 51.3471C109.2 51.3693 108.861 51.3141 108.393 51.1917C107.862 51.0358 107.588 50.9335 107.107 50.6818Z" fill="url(#paint30_linear_1420_504)"/>
<path d="M73.2202 32.7683C54.2448 22.851 55.7539 23.6397 54.8395 23.1211C54.327 22.772 54.1665 22.6881 53.6553 22.2583C53.2083 21.8621 53.0966 21.763 52.683 21.3029C52.3336 20.8764 52.2386 20.7454 51.938 20.3038C51.6862 19.8469 51.5912 19.716 51.4203 19.2608C51.2661 18.7736 51.2199 18.6275 51.1299 18.1739C51.0566 17.6884 51.0425 17.5591 51.0822 17.092C51.122 16.6249 51.1566 16.4804 51.2451 15.9982C51.3979 15.5495 51.4325 15.405 51.6507 14.9092C51.8844 14.4622 51.9511 14.3344 52.2824 13.8571C52.6624 13.3646 52.7613 13.2536 53.1722 12.8586C53.583 12.4635 53.6819 12.3525 54.2879 11.8969C54.894 11.4412 54.9595 11.3941 55.8583 10.8475C54.7951 11.5521 54.3034 11.9456 53.6447 12.6583C53.2659 13.0702 53.1504 13.2131 52.8525 13.6266C52.5701 14.0888 52.5033 14.2165 52.3185 14.6484C52.1169 15.1122 52.0823 15.2567 51.9783 15.6903C51.8898 16.1725 51.8719 16.2851 51.8488 16.7202C51.8437 17.0428 51.8296 16.9134 51.8733 17.2209C51.917 17.5283 51.9029 17.3989 51.9299 17.7383C52.0365 18.1599 52.0507 18.2893 52.2537 18.7613C52.4412 19.1845 52.5042 19.2987 52.8047 19.7404C53.1053 20.1821 53.2171 20.2811 53.551 20.6589C53.9492 21.0703 54.0609 21.1693 54.5246 21.5336C54.9407 21.8324 55.0524 21.9315 55.6933 22.3477C56.1107 22.5659 55.9502 22.482 56.3675 22.7001C72.3249 31.0401 73.4807 31.6442 74.0265 31.9294C75.1349 32.468 75.8913 32.7414 77.1165 33.0565C78.3737 33.3884 79.1648 33.5172 80.5222 33.6575C83.011 33.9012 85.1324 33.831 87.6159 33.3809C89.7913 32.9729 91.8574 32.3046 93.7848 31.1979L95.037 31.8524C93.9417 32.5402 92.9144 33.0197 91.8229 33.4656C90.553 33.9402 89.7401 34.1658 88.3109 34.4758C86.8983 34.7539 86.0225 34.8654 84.5804 34.9654C81.9402 35.0897 79.7737 34.9332 77.1449 34.3317C75.6295 33.9462 74.5187 33.5689 73.0738 32.8138L73.2202 32.7683Z" fill="url(#paint31_linear_1420_504)"/>
<path d="M73.7886 31.6826C54.7811 21.7486 56.258 22.5205 55.472 22.069C54.9596 21.7199 54.8311 21.6528 54.3521 21.2398C53.9372 20.8603 53.8576 20.7781 53.4273 20.3499C53.0934 19.9721 53.0304 19.8579 52.7299 19.4162C52.4781 18.9594 52.4151 18.8452 52.2597 18.4387C52.1209 18.0003 52.058 17.8861 51.9847 17.4006C51.9268 16.9638 51.9281 16.8832 51.9524 16.3674C51.9922 15.9003 52.0101 15.7877 52.1307 15.3223C52.2835 14.8736 52.3181 14.7291 52.503 14.2972C52.7366 13.8501 52.8034 13.7224 53.1012 13.3089C53.4479 12.8803 53.5635 12.7374 53.9255 12.3575C54.3364 11.9624 54.4841 11.8363 54.9758 11.4428C55.9093 10.7517 56.5629 10.3616 57.6877 9.85178C58.8614 9.32686 59.61 9.06766 60.862 8.70565C63.3648 8.06229 65.4233 7.87787 67.8992 7.91159C70.3417 8.00918 72.3759 8.34055 74.694 9.14553C75.3374 9.4005 75.5146 9.45247 76.2056 9.77293C76.7514 10.0582 77.9073 10.6623 93.8646 19.0022C94.3462 19.2539 94.603 19.3882 95.0834 19.7205C93.8312 19.0661 93.5101 18.8983 92.4159 18.489C91.6749 18.2644 91.5298 18.2292 91.0456 18.1388C90.4485 18.0299 90.2867 18.0267 89.7691 18.0001C89.2349 18.0055 89.0731 18.0022 88.5864 18.0731C88.0997 18.144 87.9533 18.1894 87.4975 18.3577C86.8131 18.6505 86.7476 18.6976 85.7178 19.3383C71.3016 11.8039 72.4896 12.4247 71.9759 12.1563C69.9981 11.3259 67.946 11.1071 65.8232 11.2579C63.7326 11.4256 61.7333 11.9661 59.9998 13.0929C59.5414 13.4225 59.1973 13.6898 58.7364 14.1807C58.3897 14.6093 58.2074 14.8799 57.9892 15.3757C57.8197 15.8563 57.7671 16.1134 57.7916 16.614C57.8199 16.8727 57.8186 16.9534 57.879 17.2289C57.9561 17.4724 57.987 17.5699 58.0962 17.8302C58.2221 18.0586 58.2529 18.156 58.443 18.418C58.6331 18.68 58.7127 18.7623 58.9362 18.9604C59.3511 19.3398 59.703 19.605 60.2963 19.9558C60.6495 20.1404 77.6984 29.0509 78.0516 29.2355C78.8864 29.6717 79.5311 29.8461 80.4018 30.0572C82.3217 30.4508 84.1337 30.5034 86.2435 30.1426C87.5264 29.878 88.632 29.5614 89.7748 28.9391L93.9809 31.1374C91.694 32.4627 88.4889 33.5114 84.2447 33.7325C82.8681 33.7854 82.0269 33.7524 80.6695 33.6121C79.3121 33.4718 78.5377 33.311 77.2638 33.0111C75.9423 32.6457 75.0574 32.3052 73.8207 31.6994L73.7886 31.6826Z" fill="url(#paint32_linear_1420_504)"/>
<path d="M61.0648 20.4392C60.2621 20.0196 59.8768 19.8183 59.173 19.2878C58.7261 18.8916 58.4872 18.6448 58.2033 18.1712C57.9515 17.7143 57.8423 17.454 57.769 16.9685C57.7407 16.7098 57.742 16.6292 57.7304 16.3385C57.7509 16.0646 57.7522 15.984 57.8536 15.7118C57.9909 15.2144 58.1411 14.927 58.4878 14.4983C58.8678 14.0058 59.131 13.7369 59.6228 13.3434C60.2121 12.9197 60.6205 12.6859 61.2407 12.3596C63.213 11.4796 65.2574 11.1659 67.4097 11.1931C68.898 11.2392 70.1732 11.4585 71.5089 11.9532C72.3937 12.2937 71.3175 11.7719 85.7337 19.3064L84.5729 20.0413C70.9273 12.9096 72.1153 13.5304 71.6979 13.3123C70.492 12.804 69.444 12.5409 68.1187 12.4174C66.7446 12.309 65.594 12.3988 64.247 12.6298C62.9962 12.9112 61.9548 13.2613 60.8595 13.9491C60.369 14.2619 60.0904 14.4822 59.6461 14.9412C59.2674 15.353 59.1172 15.6404 58.9169 16.0236C58.7333 16.3748 58.6795 16.7126 58.6564 17.1477C58.6655 17.5997 58.7426 17.8432 58.898 18.2497C59.101 18.7217 59.2757 18.9349 59.5775 19.296C60.0078 19.7241 60.3751 20.038 61.1136 20.424L61.0648 20.4392Z" fill="url(#paint33_linear_1420_504)"/>
<path d="M60.8401 20.3217C61.3473 19.977 61.8853 19.7296 62.4234 19.4823C63.6612 18.991 64.7977 18.7718 66.1268 18.6534C68.071 18.5312 69.8971 18.7132 71.7144 19.4597C72.1318 19.6778 72.1318 19.6778 72.9023 20.0806C72.0997 19.6611 71.3432 19.3877 70.0693 19.0877C69.2461 18.9421 68.7941 18.8685 67.9529 18.8354C66.4324 18.7725 65.1521 18.8758 63.6895 19.2497C62.9255 19.4602 62.4863 19.5965 61.7531 19.9045C60.808 20.3049 60.8555 20.3704 60.8401 20.3217Z" fill="url(#paint34_linear_1420_504)"/>
<path d="M60.8413 20.3219C60.3276 20.0534 60.0399 19.8217 59.6251 19.4423C59.2744 19.0964 59.0843 18.8344 58.8646 18.3944C58.6771 17.9711 58.6 17.7276 58.5909 17.2756C58.5793 16.985 58.596 16.953 58.6319 16.7279C58.6679 16.5027 58.7012 16.4389 58.8026 16.1666C58.9708 15.7667 59.1531 15.4961 59.451 15.0826C60.1764 14.2421 61.1073 13.7123 62.15 13.2815C65.0007 12.1289 68.6105 12.1048 71.4089 13.2421C71.8584 13.477 70.831 12.94 84.4766 20.0718C80.6835 22.48 81.0109 22.2446 80.5025 22.67C80.1738 22.9861 79.9606 23.1592 79.6294 23.6366C71.3778 19.324 72.1484 19.7267 71.6668 19.475C70.4442 18.9986 69.3796 18.7675 68.0543 18.644C66.0972 18.5562 64.2647 18.7774 62.4246 19.4825C61.8544 19.713 61.3652 19.9452 60.8413 20.3219Z" fill="url(#paint35_linear_1420_504)"/>
<path d="M82.6786 30.3935C82.8172 29.8155 82.9853 29.4155 83.2511 28.9853C83.549 28.5718 83.7788 28.3667 84.155 28.1161C84.5633 27.8823 84.8407 27.7427 85.3274 27.6718C85.7974 27.6329 86.1377 27.6075 86.7349 27.7163C87.7674 27.9307 88.2965 28.2479 89.1634 28.701C88.2644 28.2311 87.6839 28.0904 87.0213 28.0286C86.5847 28.0037 86.2931 28.014 85.8052 28.1655C85.3981 28.3186 85.1696 28.4431 84.8254 28.7104C84.6444 28.9004 84.5789 28.9475 84.4467 29.1223C84.1488 29.5358 83.9974 29.9038 83.86 30.4012C83.4876 30.4098 83.0343 30.4168 82.6465 30.3768L82.6786 30.3935Z" fill="url(#paint36_linear_1420_504)"/>
<path d="M83.8922 30.4179C84.1489 29.5357 84.5482 28.85 85.3481 28.4143C85.7886 28.1973 86.0326 28.1216 86.4383 28.0491C87.3783 27.9712 88.1194 28.1958 88.9875 28.5683C88.9696 28.6809 88.9953 29.1009 89.0249 29.2789C87.4275 29.9889 85.6579 30.3244 83.8768 30.3692L83.8922 30.4179Z" fill="url(#paint37_linear_1420_504)"/>
<path d="M89.0572 29.2958C89.0122 29.0691 89.0186 28.6658 89.0199 28.5852C89.0199 28.5852 88.9878 28.5684 89.106 29.2807L89.0893 29.3126L89.0572 29.2958Z" fill="url(#paint38_linear_1420_504)"/>
<path d="M123.274 46.7319C123.21 45.6012 123.095 44.7277 122.761 43.3334C122.425 42.0198 122.146 41.2236 121.585 39.8732C120.523 37.4478 119.323 35.5199 117.656 33.4695C116.686 32.3529 116.113 31.7283 115.075 30.82C113.926 29.8127 112.95 29.0993 111.505 28.3441C112.243 28.7301 112.018 28.6126 112.468 28.8475C113.543 29.45 114.215 29.9637 115.157 30.741C116.148 31.5838 116.69 32.111 117.595 33.194C119.199 35.1302 120.338 36.8633 121.418 39.1761C121.981 40.4458 122.259 41.242 122.613 42.4431C123.086 44.2757 123.168 45.2132 123.225 46.747L123.274 46.7319Z" fill="url(#paint39_linear_1420_504)"/>
</g>
</g>
<defs>
<filter id="filter0_f_1420_504" x="222.871" y="-45.5139" width="293.715" height="293.714" filterUnits="userSpaceOnUse" color-interpolation-filters="sRGB">
<feFlood flood-opacity="0" result="BackgroundImageFix"/>
<feBlend mode="normal" in="SourceGraphic" in2="BackgroundImageFix" result="shape"/>
<feGaussianBlur stdDeviation="40" result="effect1_foregroundBlur_1420_504"/>
</filter>
<filter id="filter1_f_1420_504" x="-130.627" y="-217.284" width="398.627" height="398.627" filterUnits="userSpaceOnUse" color-interpolation-filters="sRGB">
<feFlood flood-opacity="0" result="BackgroundImageFix"/>
<feBlend mode="normal" in="SourceGraphic" in2="BackgroundImageFix" result="shape"/>
<feGaussianBlur stdDeviation="40" result="effect1_foregroundBlur_1420_504"/>
</filter>
<linearGradient id="paint0_linear_1420_504" x1="-3.64409" y1="-12.0461" x2="390.001" y2="203.919" gradientUnits="userSpaceOnUse">
<stop stop-color="#004675"/>
<stop offset="1" stop-color="#001674"/>
</linearGradient>
<linearGradient id="paint1_linear_1420_504" x1="-37.9648" y1="100.468" x2="37.9645" y2="100.468" gradientUnits="userSpaceOnUse">
<stop stop-color="#006FBA"/>
<stop offset="0.19" stop-color="#0A4E9B"/>
<stop offset="0.38" stop-color="#113482"/>
<stop offset="0.57" stop-color="#162271"/>
<stop offset="0.77" stop-color="#191767"/>
<stop offset="1" stop-color="#1B1464"/>
</linearGradient>
<linearGradient id="paint2_linear_1420_504" x1="48" y1="154.374" x2="132.648" y2="154.374" gradientUnits="userSpaceOnUse">
<stop stop-color="#006FBA"/>
<stop offset="0.19" stop-color="#0A4E9B"/>
<stop offset="0.38" stop-color="#113482"/>
<stop offset="0.57" stop-color="#162271"/>
<stop offset="0.77" stop-color="#191767"/>
<stop offset="1" stop-color="#1B1464"/>
</linearGradient>
<linearGradient id="paint3_linear_1420_504" x1="153.41" y1="171.801" x2="198.158" y2="171.801" gradientUnits="userSpaceOnUse">
<stop stop-color="#006FBA"/>
<stop offset="0.19" stop-color="#0A4E9B"/>
<stop offset="0.38" stop-color="#113482"/>
<stop offset="0.57" stop-color="#162271"/>
<stop offset="0.77" stop-color="#191767"/>
<stop offset="1" stop-color="#1B1464"/>
</linearGradient>
<linearGradient id="paint4_linear_1420_504" x1="126.121" y1="36.842" x2="177.995" y2="36.842" gradientUnits="userSpaceOnUse">
<stop stop-color="#006FBA"/>
<stop offset="0.19" stop-color="#0A4E9B"/>
<stop offset="0.38" stop-color="#113482"/>
<stop offset="0.57" stop-color="#162271"/>
<stop offset="0.77" stop-color="#191767"/>
<stop offset="1" stop-color="#1B1464"/>
</linearGradient>
<linearGradient id="paint5_linear_1420_504" x1="130.023" y1="147.578" x2="202.742" y2="147.578" gradientUnits="userSpaceOnUse">
<stop stop-color="#006FBA"/>
<stop offset="0.19" stop-color="#0A4E9B"/>
<stop offset="0.38" stop-color="#113482"/>
<stop offset="0.57" stop-color="#162271"/>
<stop offset="0.77" stop-color="#191767"/>
<stop offset="1" stop-color="#1B1464"/>
</linearGradient>
<linearGradient id="paint6_linear_1420_504" x1="331.955" y1="127.399" x2="392.999" y2="127.399" gradientUnits="userSpaceOnUse">
<stop stop-color="#006FBA"/>
<stop offset="0.19" stop-color="#0A4E9B"/>
<stop offset="0.38" stop-color="#113482"/>
<stop offset="0.57" stop-color="#162271"/>
<stop offset="0.77" stop-color="#191767"/>
<stop offset="1" stop-color="#1B1464"/>
</linearGradient>
<linearGradient id="paint7_linear_1420_504" x1="95.1523" y1="87.3404" x2="181.053" y2="87.3404" gradientUnits="userSpaceOnUse">
<stop stop-color="#006FBA"/>
<stop offset="0.19" stop-color="#0A4E9B"/>
<stop offset="0.38" stop-color="#113482"/>
<stop offset="0.57" stop-color="#162271"/>
<stop offset="0.77" stop-color="#191767"/>
<stop offset="1" stop-color="#1B1464"/>
</linearGradient>
<linearGradient id="paint8_linear_1420_504" x1="250.887" y1="104.73" x2="335.534" y2="104.73" gradientUnits="userSpaceOnUse">
<stop stop-color="#006FBA"/>
<stop offset="0.19" stop-color="#0A4E9B"/>
<stop offset="0.38" stop-color="#113482"/>
<stop offset="0.57" stop-color="#162271"/>
<stop offset="0.77" stop-color="#191767"/>
<stop offset="1" stop-color="#1B1464"/>
</linearGradient>
<radialGradient id="paint9_radial_1420_504" cx="0" cy="0" r="1" gradientUnits="userSpaceOnUse" gradientTransform="translate(374.821 152.395) scale(3.05945 3.06188)">
<stop stop-color="#00FEFE"/>
<stop offset="0.12" stop-color="#00C3C3"/>
<stop offset="0.25" stop-color="#008F8F"/>
<stop offset="0.37" stop-color="#006363"/>
<stop offset="0.5" stop-color="#003F3F"/>
<stop offset="0.62" stop-color="#002323"/>
<stop offset="0.75" stop-color="#000F0F"/>
<stop offset="0.87" stop-color="#000303"/>
<stop offset="1"/>
</radialGradient>
<radialGradient id="paint10_radial_1420_504" cx="0" cy="0" r="1" gradientUnits="userSpaceOnUse" gradientTransform="translate(313.569 26.2377) scale(3.05945 3.06188)">
<stop stop-color="#00FEFE"/>
<stop offset="0.12" stop-color="#00C3C3"/>
<stop offset="0.25" stop-color="#008F8F"/>
<stop offset="0.37" stop-color="#006363"/>
<stop offset="0.5" stop-color="#003F3F"/>
<stop offset="0.62" stop-color="#002323"/>
<stop offset="0.75" stop-color="#000F0F"/>
<stop offset="0.87" stop-color="#000303"/>
<stop offset="1"/>
</radialGradient>
<radialGradient id="paint11_radial_1420_504" cx="0" cy="0" r="1" gradientUnits="userSpaceOnUse" gradientTransform="translate(381.649 14.0409) scale(3.05945 3.06188)">
<stop stop-color="#00FEFE"/>
<stop offset="0.12" stop-color="#00C3C3"/>
<stop offset="0.25" stop-color="#008F8F"/>
<stop offset="0.37" stop-color="#006363"/>
<stop offset="0.5" stop-color="#003F3F"/>
<stop offset="0.62" stop-color="#002323"/>
<stop offset="0.75" stop-color="#000F0F"/>
<stop offset="0.87" stop-color="#000303"/>
<stop offset="1"/>
</radialGradient>
<radialGradient id="paint12_radial_1420_504" cx="0" cy="0" r="1" gradientUnits="userSpaceOnUse" gradientTransform="translate(194.45 118.829) scale(3.05945 3.06188)">
<stop stop-color="#00FEFE"/>
<stop offset="0.12" stop-color="#00C3C3"/>
<stop offset="0.25" stop-color="#008F8F"/>
<stop offset="0.37" stop-color="#006363"/>
<stop offset="0.5" stop-color="#003F3F"/>
<stop offset="0.62" stop-color="#002323"/>
<stop offset="0.75" stop-color="#000F0F"/>
<stop offset="0.87" stop-color="#000303"/>
<stop offset="1"/>
</radialGradient>
<radialGradient id="paint13_radial_1420_504" cx="0" cy="0" r="1" gradientUnits="userSpaceOnUse" gradientTransform="translate(155.766 13.7499) scale(3.05945 3.06188)">
<stop stop-color="#00FEFE"/>
<stop offset="0.12" stop-color="#00C3C3"/>
<stop offset="0.25" stop-color="#008F8F"/>
<stop offset="0.37" stop-color="#006363"/>
<stop offset="0.5" stop-color="#003F3F"/>
<stop offset="0.62" stop-color="#002323"/>
<stop offset="0.75" stop-color="#000F0F"/>
<stop offset="0.87" stop-color="#000303"/>
<stop offset="1"/>
</radialGradient>
<linearGradient id="paint14_linear_1420_504" x1="304.202" y1="118.297" x2="338.466" y2="177.234" gradientUnits="userSpaceOnUse">
<stop stop-color="#4088EE"/>
<stop offset="0.13" stop-color="#428BEE"/>
<stop offset="0.24" stop-color="#4996F0"/>
<stop offset="0.35" stop-color="#55A8F2"/>
<stop offset="0.41" stop-color="#5FB7F4"/>
<stop offset="0.48" stop-color="#5FA8F8"/>
<stop offset="0.58" stop-color="#5E9CFC"/>
<stop offset="0.72" stop-color="#5E94FE"/>
<stop offset="1" stop-color="#5E92FF"/>
</linearGradient>
<linearGradient id="paint15_linear_1420_504" x1="307.508" y1="143.593" x2="349.462" y2="143.593" gradientUnits="userSpaceOnUse">
<stop stop-color="#00B4FE"/>
<stop offset="0.49" stop-color="#4074EE"/>
<stop offset="1" stop-color="#7B3AE0"/>
</linearGradient>
<linearGradient id="paint16_linear_1420_504" x1="307.507" y1="148.788" x2="349.336" y2="148.788" gradientUnits="userSpaceOnUse">
<stop stop-color="#80FFE4"/>
<stop offset="0.19" stop-color="#7BFAE5"/>
<stop offset="0.41" stop-color="#6DECE9"/>
<stop offset="0.66" stop-color="#56D4EF"/>
<stop offset="0.91" stop-color="#37B3F7"/>
<stop offset="1" stop-color="#29A5FB"/>
</linearGradient>
<linearGradient id="paint17_linear_1420_504" x1="336.263" y1="144.904" x2="344.754" y2="144.904" gradientUnits="userSpaceOnUse">
<stop stop-color="#D6FFFF"/>
<stop offset="0.22" stop-color="#D1FFFF"/>
<stop offset="0.49" stop-color="#C3FFFF"/>
<stop offset="0.77" stop-color="#ABFFFF"/>
<stop offset="1" stop-color="#92FFFF"/>
</linearGradient>
<linearGradient id="paint18_linear_1420_504" x1="318.553" y1="105.637" x2="356.563" y2="171.008" gradientUnits="userSpaceOnUse">
<stop stop-color="#00B4FE"/>
<stop offset="0.53" stop-color="#4074EE"/>
<stop offset="1" stop-color="#7B3AE0"/>
</linearGradient>
<linearGradient id="paint19_linear_1420_504" x1="314.071" y1="108.235" x2="352.08" y2="173.605" gradientUnits="userSpaceOnUse">
<stop stop-color="#1ED2FF"/>
<stop offset="0.49" stop-color="#5E92FF"/>
<stop offset="1" stop-color="#9958FE"/>
</linearGradient>
<linearGradient id="paint20_linear_1420_504" x1="303" y1="145.03" x2="349.037" y2="145.03" gradientUnits="userSpaceOnUse">
<stop stop-color="#80FFE4"/>
<stop offset="0.31" stop-color="#7BFAE5"/>
<stop offset="0.68" stop-color="#6DECE9"/>
<stop offset="1" stop-color="#5BD9EE"/>
</linearGradient>
<linearGradient id="paint21_linear_1420_504" x1="302.549" y1="118.272" x2="337.648" y2="178.667" gradientUnits="userSpaceOnUse">
<stop stop-color="#1ED2FF"/>
<stop offset="0.49" stop-color="#5E92FF"/>
<stop offset="1" stop-color="#9958FE"/>
</linearGradient>
<radialGradient id="paint22_radial_1420_504" cx="0" cy="0" r="1" gradientUnits="userSpaceOnUse" gradientTransform="translate(26.186 54.4222) scale(2.78561 2.77623)">
<stop stop-color="#00FEFE"/>
<stop offset="0.12" stop-color="#00C3C3"/>
<stop offset="0.25" stop-color="#008F8F"/>
<stop offset="0.37" stop-color="#006363"/>
<stop offset="0.5" stop-color="#003F3F"/>
<stop offset="0.62" stop-color="#002323"/>
<stop offset="0.75" stop-color="#000F0F"/>
<stop offset="0.87" stop-color="#000303"/>
<stop offset="1"/>
</radialGradient>
<radialGradient id="paint23_radial_1420_504" cx="0" cy="0" r="1" gradientUnits="userSpaceOnUse" gradientTransform="translate(31.7563 140.722) scale(2.78561 2.77623)">
<stop stop-color="#00FEFE"/>
<stop offset="0.12" stop-color="#00C3C3"/>
<stop offset="0.25" stop-color="#008F8F"/>
<stop offset="0.37" stop-color="#006363"/>
<stop offset="0.5" stop-color="#003F3F"/>
<stop offset="0.62" stop-color="#002323"/>
<stop offset="0.75" stop-color="#000F0F"/>
<stop offset="0.87" stop-color="#000303"/>
<stop offset="1"/>
</radialGradient>
<linearGradient id="paint24_linear_1420_504" x1="95.4016" y1="39.5235" x2="73.5741" y2="40.4942" gradientUnits="userSpaceOnUse">
<stop stop-color="#1ED2FF"/>
<stop offset="0.49" stop-color="#5E92FF"/>
<stop offset="1" stop-color="#9958FE"/>
</linearGradient>
<linearGradient id="paint25_linear_1420_504" x1="116.319" y1="39.3154" x2="78.8492" y2="40.9648" gradientUnits="userSpaceOnUse">
<stop stop-color="#00B4FE"/>
<stop offset="0.53" stop-color="#4074EE"/>
<stop offset="1" stop-color="#7B3AE0"/>
</linearGradient>
<linearGradient id="paint26_linear_1420_504" x1="117.506" y1="38.9199" x2="78.8217" y2="40.6313" gradientUnits="userSpaceOnUse">
<stop stop-color="#1ED2FF"/>
<stop offset="0.49" stop-color="#5E92FF"/>
<stop offset="1" stop-color="#9958FE"/>
</linearGradient>
<linearGradient id="paint27_linear_1420_504" x1="98.9003" y1="28.1388" x2="51.699" y2="30.2353" gradientUnits="userSpaceOnUse">
<stop stop-color="#00B4FE"/>
<stop offset="0.53" stop-color="#4074EE"/>
<stop offset="1" stop-color="#7B3AE0"/>
</linearGradient>
<linearGradient id="paint28_linear_1420_504" x1="122.831" y1="36.7845" x2="81.9288" y2="38.607" gradientUnits="userSpaceOnUse">
<stop stop-color="#80FFE4"/>
<stop offset="0.19" stop-color="#7BFAE5"/>
<stop offset="0.41" stop-color="#6DECE9"/>
<stop offset="0.66" stop-color="#56D4EF"/>
<stop offset="0.91" stop-color="#37B3F7"/>
<stop offset="1" stop-color="#29A5FB"/>
</linearGradient>
<linearGradient id="paint29_linear_1420_504" x1="112.552" y1="46.1289" x2="87.3076" y2="47.2405" gradientUnits="userSpaceOnUse">
<stop stop-color="#1ED2FF"/>
<stop offset="0.49" stop-color="#5E92FF"/>
<stop offset="1" stop-color="#9958FE"/>
</linearGradient>
<linearGradient id="paint30_linear_1420_504" x1="112.466" y1="44.4168" x2="88.792" y2="45.4882" gradientUnits="userSpaceOnUse">
<stop stop-color="#00B4FE"/>
<stop offset="0.53" stop-color="#4074EE"/>
<stop offset="1" stop-color="#7B3AE0"/>
</linearGradient>
<linearGradient id="paint31_linear_1420_504" x1="94.7412" y1="21.8595" x2="51.4097" y2="23.806" gradientUnits="userSpaceOnUse">
<stop stop-color="#1ED2FF"/>
<stop offset="0.49" stop-color="#5E92FF"/>
<stop offset="1" stop-color="#9958FE"/>
</linearGradient>
<linearGradient id="paint32_linear_1420_504" x1="79.1915" y1="11.3335" x2="69.6788" y2="29.5347" gradientUnits="userSpaceOnUse">
<stop stop-color="#80FFE4"/>
<stop offset="0.19" stop-color="#7BFAE5"/>
<stop offset="0.41" stop-color="#6DECE9"/>
<stop offset="0.66" stop-color="#56D4EF"/>
<stop offset="0.91" stop-color="#37B3F7"/>
<stop offset="1" stop-color="#29A5FB"/>
</linearGradient>
<linearGradient id="paint33_linear_1420_504" x1="85.5224" y1="15.2525" x2="57.7196" y2="16.5023" gradientUnits="userSpaceOnUse">
<stop stop-color="#1ED2FF"/>
<stop offset="0.49" stop-color="#5E92FF"/>
<stop offset="1" stop-color="#9958FE"/>
</linearGradient>
<linearGradient id="paint34_linear_1420_504" x1="72.8829" y1="19.2573" x2="60.836" y2="19.7654" gradientUnits="userSpaceOnUse">
<stop stop-color="#1ED2FF"/>
<stop offset="0.49" stop-color="#5E92FF"/>
<stop offset="1" stop-color="#9958FE"/>
</linearGradient>
<linearGradient id="paint35_linear_1420_504" x1="84.435" y1="17.5702" x2="58.689" y2="18.7064" gradientUnits="userSpaceOnUse">
<stop stop-color="#00B4FE"/>
<stop offset="0.53" stop-color="#4074EE"/>
<stop offset="1" stop-color="#7B3AE0"/>
</linearGradient>
<linearGradient id="paint36_linear_1420_504" x1="89.2418" y1="28.8639" x2="82.6515" y2="29.1496" gradientUnits="userSpaceOnUse">
<stop stop-color="#1ED2FF"/>
<stop offset="0.49" stop-color="#5E92FF"/>
<stop offset="1" stop-color="#9958FE"/>
</linearGradient>
<linearGradient id="paint37_linear_1420_504" x1="89.0441" y1="29.0857" x2="83.8624" y2="29.3287" gradientUnits="userSpaceOnUse">
<stop stop-color="#00B4FE"/>
<stop offset="0.53" stop-color="#4074EE"/>
<stop offset="1" stop-color="#7B3AE0"/>
</linearGradient>
<linearGradient id="paint38_linear_1420_504" x1="89.1111" y1="28.9581" x2="89.0302" y2="28.9568" gradientUnits="userSpaceOnUse">
<stop stop-color="#1ED2FF"/>
<stop offset="0.49" stop-color="#5E92FF"/>
<stop offset="1" stop-color="#9958FE"/>
</linearGradient>
<linearGradient id="paint39_linear_1420_504" x1="122.871" y1="37.3338" x2="111.99" y2="37.7953" gradientUnits="userSpaceOnUse">
<stop stop-color="#1ED2FF"/>
<stop offset="0.49" stop-color="#5E92FF"/>
<stop offset="1" stop-color="#9958FE"/>
</linearGradient>
<clipPath id="clip0_1420_504">
<rect width="393" height="189" fill="white"/>
</clipPath>
<clipPath id="clip1_1420_504">
<rect width="53" height="66" fill="white" transform="translate(303 110)"/>
</clipPath>
<clipPath id="clip2_1420_504">
<rect width="27.2028" height="79.6652" fill="white" transform="translate(129.664 37.7126) rotate(117.593)"/>
</clipPath>
</defs>
</svg>
