<svg width="30" height="30" viewBox="0 0 30 30" fill="none" xmlns="http://www.w3.org/2000/svg">
<path d="M29 15.0028C29 15.5013 28.972 15.9942 28.9216 16.4759C28.7872 17.7754 28.4735 19.0244 28.003 20.1894C26.5299 23.8862 23.5221 26.81 19.7638 28.1654C18.3299 28.6863 16.7952 28.9776 15.1876 28.9944C15.126 29 15.0588 29 14.9972 29C7.26766 29 1 22.7324 1 15.0028C1 7.27326 7.26766 1 14.9972 1C16.7055 1 18.3467 1.30806 19.859 1.86817C21.5281 2.48429 23.046 3.41408 24.3455 4.57912C24.984 5.14483 25.5665 5.77215 26.0818 6.44989C27.1292 7.79976 27.9302 9.35127 28.4287 11.0316C28.7984 12.2919 29 13.6249 29 15.0028Z" stroke="white" stroke-width="1.8" stroke-linecap="round" stroke-linejoin="round"/>
<path d="M14.998 1V28.9944" stroke="white" stroke-width="2" stroke-linecap="round" stroke-linejoin="round"/>
<path d="M19.7692 6.44995H15.1875V11.0317H19.7692V6.44995Z" fill="white"/>
<path d="M24.3454 11.0258H19.7637V15.6075H24.3454V11.0258Z" fill="white"/>
<path d="M24.3454 4.57911V6.44988H19.7637V1.86816H19.8589C21.528 2.48429 23.0459 3.41408 24.3454 4.57911Z" fill="white"/>
<path d="M19.7692 15.6075H15.1875V20.1893H19.7692V15.6075Z" fill="white"/>
<path d="M28.4289 11.0317H24.3457V6.44995H26.0821C27.1295 7.79982 27.9304 9.35133 28.4289 11.0317Z" fill="white"/>
<path d="M28.9218 15.6075V16.4757C28.7874 17.7752 28.4737 19.0242 28.0032 20.1893H24.3457V15.6075H28.9218Z" fill="white"/>
<path d="M24.3454 20.1893H19.7637V24.7711H24.3454V20.1893Z" fill="white"/>
<path d="M19.7636 24.7708V28.165C18.3297 28.6859 16.795 28.9772 15.1875 28.994V24.7708H19.7636Z" fill="white"/>
</svg>
