<svg width="393" height="140" viewBox="0 0 393 140" fill="none" xmlns="http://www.w3.org/2000/svg">
<g clip-path="url(#clip0_1409_5581)">
<rect y="-0.349609" width="393" height="215.384" fill="url(#paint0_linear_1409_5581)"/>
<path style="mix-blend-mode:screen" d="M-0.122318 78.4634L-37.9648 100.468L0.121975 122.481L37.9645 100.468L-0.122318 78.4634Z" fill="url(#paint1_linear_1409_5581)"/>
<path style="mix-blend-mode:screen" opacity="0.2" d="M90.1876 129.834L48 154.374L90.46 178.906L132.648 154.374L90.1876 129.834Z" fill="url(#paint2_linear_1409_5581)"/>
<path style="mix-blend-mode:screen" opacity="0.3" d="M151.977 21.8052L126.121 36.842L152.14 51.8788L177.995 36.842L151.977 21.8052Z" fill="url(#paint3_linear_1409_5581)"/>
<path style="mix-blend-mode:screen" opacity="0.3" d="M156.333 126.536L130.023 141.836L176.433 168.621L202.742 153.321L156.333 126.536Z" fill="url(#paint4_linear_1409_5581)"/>
<path style="mix-blend-mode:screen" opacity="0.3" d="M354.043 109.728L331.955 122.575L370.911 145.062L392.999 132.215L354.043 109.728Z" fill="url(#paint5_linear_1409_5581)"/>
<path style="mix-blend-mode:screen" opacity="0.3" d="M173.076 46L142 64.0715L196.825 95.7169L227.9 77.6364L173.076 46Z" fill="url(#paint6_linear_1409_5581)"/>
<path style="mix-blend-mode:screen" opacity="0.3" d="M293.074 80.199L250.887 104.73L293.347 129.271L335.534 104.73L293.074 80.199Z" fill="url(#paint7_linear_1409_5581)"/>
<path style="mix-blend-mode:screen" d="M316.629 26.2377C316.629 27.9276 315.258 29.2995 313.569 29.2995C311.881 29.2995 310.51 27.9276 310.51 26.2377C310.51 24.5477 311.881 23.1758 313.569 23.1758C315.258 23.1758 316.629 24.5477 316.629 26.2377Z" fill="url(#paint8_radial_1409_5581)"/>
<path style="mix-blend-mode:screen" d="M197.51 118.829C197.51 120.519 196.139 121.891 194.45 121.891C192.761 121.891 191.391 120.519 191.391 118.829C191.391 117.139 192.761 115.767 194.45 115.767C196.139 115.767 197.51 117.139 197.51 118.829Z" fill="url(#paint9_radial_1409_5581)"/>
<path style="mix-blend-mode:screen" d="M158.826 13.7499C158.826 15.4398 157.455 16.8117 155.766 16.8117C154.078 16.8117 152.707 15.4398 152.707 13.7499C152.707 12.0599 154.078 10.688 155.766 10.688C157.455 10.688 158.826 12.0599 158.826 13.7499Z" fill="url(#paint10_radial_1409_5581)"/>
<g opacity="0.5" clip-path="url(#clip1_1409_5581)">
<path d="M325.365 121.371C329.239 123.572 329.262 127.145 325.41 129.346L284.358 152.847C280.512 155.048 274.251 155.048 270.376 152.847L229.055 129.346C225.18 127.145 225.158 123.572 229.01 121.371L270.062 97.8702C273.908 95.6689 280.169 95.6689 284.043 97.8702L325.365 121.371Z" fill="url(#paint11_linear_1409_5581)"/>
<path d="M325.411 129.346L284.359 152.847C280.512 155.048 274.251 155.048 270.377 152.847L229.055 129.346C227.107 128.24 226.13 126.78 226.135 125.331L226.107 134.927C226.107 136.382 227.079 137.836 229.027 138.943L270.349 162.443C274.223 164.644 280.484 164.644 284.33 162.443L325.383 138.943C327.292 137.847 328.252 136.415 328.252 134.982L328.28 125.386C328.28 126.819 327.32 128.251 325.411 129.346Z" fill="url(#paint12_linear_1409_5581)"/>
<g style="mix-blend-mode:overlay" opacity="0.55">
<path d="M226.139 125.845C226.139 127.3 227.111 128.755 229.059 129.861L270.381 153.361C274.255 155.563 280.516 155.563 284.362 153.361L325.415 129.861C327.318 128.771 328.273 127.344 328.284 125.917V125.386C328.284 126.819 327.324 128.251 325.415 129.346L284.362 152.847C280.516 155.048 274.255 155.048 270.381 152.847L229.059 129.346C227.111 128.24 226.134 126.78 226.139 125.331L226.111 134.927C226.111 134.927 226.111 134.938 226.111 134.944L226.139 125.845Z" fill="white"/>
</g>
<path d="M336.651 34.7519C339.813 36.5495 342.368 40.9133 342.362 44.4918L342.272 76.6925C342.261 80.271 339.689 81.7145 336.528 79.917L308.082 63.7392C304.92 61.9417 302.36 57.5778 302.371 53.9994L302.467 21.7987C302.478 18.2202 305.05 16.7766 308.211 18.5742L336.657 34.7519H336.651Z" fill="url(#paint13_linear_1409_5581)"/>
<path d="M343.289 30.9522L314.843 14.7744C313.253 13.8674 311.81 13.7844 310.766 14.3817L304.129 18.1814C305.168 17.5841 306.611 17.6671 308.205 18.5741L336.652 34.7519C339.813 36.5494 342.368 40.9133 342.362 44.4918L342.267 76.6925C342.267 78.4734 341.627 79.7234 340.593 80.3097L347.23 76.51C348.258 75.9237 348.898 74.6682 348.904 72.8928L348.994 40.6921C349.005 37.1136 346.45 32.7497 343.283 30.9522H343.289Z" fill="url(#paint14_linear_1409_5581)"/>
<g style="mix-blend-mode:overlay" opacity="0.41">
<path d="M342.267 76.6871C342.267 78.0034 341.913 79.0266 341.312 79.7124C342.065 79.0432 342.514 77.926 342.519 76.4382L342.609 44.2375C342.62 40.659 340.066 36.2951 336.899 34.4976L308.458 18.3253C307.161 17.5897 305.971 17.4017 305.005 17.6782L304.129 18.1815C305.168 17.5842 306.611 17.6672 308.205 18.5742L336.652 34.752C339.813 36.5496 342.373 40.9134 342.362 44.4919L342.267 76.6926V76.6871Z" fill="#F5ECFC"/>
<path d="M347.489 76.2558L341.133 79.8951C340.97 80.0499 340.796 80.1937 340.6 80.3043L347.237 76.5046C347.506 76.3498 347.742 76.1507 347.955 75.9128C347.809 76.0401 347.658 76.1617 347.489 76.2558Z" fill="#F5ECFC"/>
</g>
<path d="M308.957 37.9874V51.3665C308.957 52.0966 309.232 52.799 309.732 53.3411L320.227 64.6904C320.973 65.4979 322.119 65.8298 323.191 65.5532L331.715 63.3243C333.018 62.9814 333.927 61.8199 333.927 60.4869V47.1078C333.927 46.3777 333.652 45.6753 333.153 45.1332L322.658 33.7839C321.911 32.9764 320.766 32.6445 319.693 32.9211L311.169 35.15C309.867 35.4929 308.957 36.6544 308.957 37.9874Z" fill="url(#paint15_linear_1409_5581)"/>
<path style="mix-blend-mode:screen" d="M285.173 79.8505L335.956 55.0003L308.189 39.2097L257.406 64.0599L285.173 79.8505Z" fill="url(#paint16_linear_1409_5581)"/>
<path d="M286.532 37.169C291.142 39.7906 294.882 46.1677 294.865 51.3888L294.624 135.37C294.607 140.591 290.845 142.703 286.235 140.082L257.081 123.5C252.471 120.879 248.731 114.502 248.748 109.28L248.99 25.2997C249.006 20.0786 252.769 17.9713 257.379 20.593L286.532 37.1745V37.169Z" fill="url(#paint17_linear_1409_5581)"/>
<path d="M292.747 134.308L292.989 50.3271C293 46.2785 290.097 41.3339 286.526 39.2986L257.367 22.717C253.79 20.6817 250.87 22.3188 250.859 26.3674L250.617 110.348C250.606 114.397 253.503 119.341 257.08 121.377L286.234 137.958C289.811 139.988 292.731 138.356 292.742 134.308" fill="#002C55"/>
<path d="M286.6 41.3062C289.222 42.7995 291.345 46.4167 291.333 49.3812L291.092 133.362C291.081 136.332 288.947 137.532 286.325 136.039L257.171 119.457C254.543 117.964 252.426 114.347 252.438 111.377L252.679 27.396C252.69 24.4259 254.818 23.2313 257.446 24.7246L261.54 27.0531L261.983 29.4646C262.163 30.4491 262.854 31.4667 263.657 31.9203L280.367 41.4223C281.17 41.8758 281.861 41.6491 282.046 40.8747L282.501 38.9721L286.594 41.3006L286.6 41.3062Z" fill="url(#paint18_linear_1409_5581)"/>
<path d="M299.195 48.9608L298.953 132.941C298.947 135.535 298.01 137.361 296.51 138.223L292.181 140.651C292.181 140.651 292.221 140.629 292.237 140.613C292.383 140.53 292.524 140.436 292.659 140.325C292.698 140.292 292.743 140.259 292.782 140.226C292.928 140.104 293.074 139.966 293.203 139.816C293.265 139.744 293.332 139.661 293.394 139.584C293.529 139.413 293.652 139.225 293.765 139.031C293.793 138.981 293.821 138.937 293.849 138.882C293.933 138.716 294.017 138.544 294.09 138.362C294.107 138.323 294.124 138.279 294.141 138.24C294.175 138.146 294.208 138.052 294.236 137.958C294.315 137.715 294.382 137.46 294.439 137.2C294.461 137.112 294.478 137.023 294.489 136.924C294.506 136.846 294.517 136.769 294.528 136.686C294.551 136.537 294.568 136.382 294.579 136.227C294.584 136.127 294.596 136.039 294.596 135.934C294.601 135.873 294.601 135.812 294.607 135.746C294.607 135.624 294.613 135.502 294.613 135.375L294.854 51.3944C294.871 46.1732 291.131 39.7961 286.521 37.1745C286.443 37.1302 286.364 37.086 286.285 37.0417L257.373 20.5874C256.683 20.1947 256.014 19.9071 255.369 19.7246C255.296 19.7025 255.223 19.6859 255.15 19.6638C255.004 19.625 254.858 19.5919 254.717 19.5697C254.644 19.5531 254.571 19.5421 254.504 19.531C253.937 19.4425 253.398 19.4425 252.892 19.52C252.887 19.52 252.881 19.52 252.875 19.52C252.797 19.531 252.718 19.5421 252.645 19.5642C252.572 19.5753 252.488 19.5919 252.415 19.614C252.297 19.6416 252.185 19.6748 252.073 19.7246C251.96 19.7633 251.859 19.8076 251.752 19.8573C251.679 19.885 251.612 19.9182 251.545 19.9624C251.528 19.968 251.511 19.979 251.494 19.9846L255.756 17.5952C257.278 16.7213 259.383 16.8486 261.702 18.1649L290.862 34.7464C295.472 37.3681 299.206 43.7452 299.195 48.9663V48.9608Z" fill="url(#paint19_linear_1409_5581)"/>
<path d="M298.443 60.8134L298.387 80.1161C298.387 80.4259 298.128 80.6748 297.814 80.6748H297.443C297.758 80.6748 298.01 80.4259 298.016 80.1161L298.067 60.8134C298.067 60.5037 297.814 60.2493 297.5 60.2493H297.87C298.185 60.2493 298.443 60.5037 298.443 60.8134Z" fill="url(#paint20_linear_1409_5581)"/>
<path d="M298.017 80.1161L298.073 60.8134C298.073 60.5037 297.821 60.2493 297.506 60.2493H296.608C296.293 60.2493 296.041 60.4982 296.041 60.8079L295.984 80.1106C295.984 80.4203 296.237 80.6748 296.551 80.6748H297.45C297.764 80.6748 298.017 80.4259 298.017 80.1161Z" fill="url(#paint21_linear_1409_5581)"/>
<g style="mix-blend-mode:overlay">
<path d="M296.31 80.1162L296.366 60.8135C296.366 60.5038 296.618 60.2549 296.933 60.2549H296.596C296.281 60.2549 296.029 60.5038 296.029 60.8135L295.973 80.1162C295.973 80.426 296.225 80.6804 296.54 80.6804H296.877C296.562 80.6804 296.31 80.426 296.31 80.1162Z" fill="white"/>
</g>
<path d="M259.143 64.2481V77.6273C259.143 78.3573 259.418 79.0598 259.917 79.6018L270.412 90.9511C271.159 91.7586 272.304 92.0905 273.377 91.8139L281.901 89.585C283.203 89.2421 284.113 88.0806 284.113 86.7477V73.3685C284.113 72.6384 283.838 71.936 283.338 71.394L272.843 60.0446C272.097 59.2371 270.951 58.9053 269.879 59.1818L261.355 61.4108C260.052 61.7537 259.143 62.9152 259.143 64.2481Z" fill="url(#paint22_linear_1409_5581)"/>
<path d="M257.407 64.0601L257.379 65.0888L285.146 80.8794L285.174 79.8507L257.407 64.0601Z" fill="#94DFFF"/>
<path style="mix-blend-mode:screen" d="M257.407 94.762L257.379 65.0889L285.146 80.8795L285.174 110.553L257.407 94.762Z" fill="url(#paint23_linear_1409_5581)"/>
<path d="M264.47 51.9861L258.939 49.1985C257.962 48.7063 257.025 48.6454 256.334 49.0271C255.643 49.4087 255.256 50.2051 255.256 51.2394V57.08M288.447 73.7943V67.9537C288.447 66.9194 288.059 65.7358 287.369 64.6573C286.678 63.5788 285.74 62.6938 284.763 62.2016L279.232 59.414M279.232 100.696L284.763 103.484C285.74 103.976 286.678 104.037 287.369 103.655C288.059 103.274 288.447 102.477 288.447 101.443V95.6025M255.256 78.8882V84.7288C255.256 85.7631 255.643 86.9467 256.334 88.0252C257.025 89.1037 257.962 89.9887 258.939 90.4809L264.47 93.2685" stroke="#94DFFF" stroke-linecap="round" stroke-linejoin="round"/>
<path style="mix-blend-mode:screen" d="M216.496 61.6405C216.496 63.3304 215.125 64.7024 213.436 64.7024C211.748 64.7024 210.377 63.3304 210.377 61.6405C210.377 59.9505 211.748 58.5786 213.436 58.5786C215.125 58.5786 216.496 59.9505 216.496 61.6405Z" fill="url(#paint24_radial_1409_5581)"/>
</g>
<path style="mix-blend-mode:screen" d="M28.9716 54.4222C28.9716 55.9545 27.7235 57.1985 26.186 57.1985C24.6485 57.1985 23.4004 55.9545 23.4004 54.4222C23.4004 52.8899 24.6485 51.646 26.186 51.646C27.7235 51.646 28.9716 52.8899 28.9716 54.4222Z" fill="url(#paint25_radial_1409_5581)"/>
<path style="mix-blend-mode:screen" d="M34.5419 140.722C34.5419 142.254 33.2938 143.498 31.7563 143.498C30.2189 143.498 28.9707 142.254 28.9707 140.722C28.9707 139.189 30.2189 137.945 31.7563 137.945C33.2938 137.945 34.5419 139.189 34.5419 140.722Z" fill="url(#paint26_radial_1409_5581)"/>
<g style="mix-blend-mode:overlay" filter="url(#filter0_f_1409_5581)">
<circle cx="369.728" cy="101.343" r="66.8571" fill="#4EE2E0" fill-opacity="0.5"/>
</g>
<g style="mix-blend-mode:overlay" filter="url(#filter1_f_1409_5581)">
<circle cx="68.6865" cy="-17.9702" r="119.313" fill="#4EE2E0" fill-opacity="0.5"/>
</g>
<g opacity="0.5">
<path d="M122.927 107.325C126.537 109.384 126.558 112.727 122.969 114.786L84.721 136.773C81.1373 138.833 75.3041 138.833 71.6943 136.773L33.1951 114.786C29.5853 112.727 29.5644 109.384 33.1532 107.325L71.4013 85.3378C74.985 83.2783 80.8182 83.2783 84.428 85.3378L122.927 107.325Z" fill="url(#paint27_linear_1409_5581)"/>
<path d="M122.968 114.787L84.7197 136.773C81.1361 138.833 75.3029 138.833 71.6931 136.773L33.1938 114.787C31.3785 113.752 30.4682 112.386 30.4734 111.03L30.4473 120.008C30.4473 121.369 31.3523 122.73 33.1677 123.764L71.6669 145.751C75.2767 147.811 81.1099 147.811 84.6936 145.751L122.942 123.764C124.72 122.74 125.615 121.4 125.615 120.059L125.641 111.082C125.641 112.422 124.747 113.762 122.968 114.787Z" fill="url(#paint28_linear_1409_5581)"/>
<g style="mix-blend-mode:overlay" opacity="0.55">
<path d="M30.4773 111.511C30.4773 112.872 31.3824 114.233 33.1978 115.268L71.697 137.255C75.3068 139.314 81.14 139.314 84.7236 137.255L122.972 115.268C124.745 114.248 125.635 112.913 125.645 111.578V111.082C125.645 112.422 124.751 113.762 122.972 114.787L84.7236 136.773C81.14 138.833 75.3068 138.833 71.697 136.773L33.1978 114.787C31.3824 113.752 30.4721 112.386 30.4773 111.03L30.4512 120.008C30.4512 120.008 30.4512 120.018 30.4512 120.023L30.4773 111.511Z" fill="white"/>
</g>
<g clip-path="url(#clip2_1409_5581)">
<path d="M68.6475 126.891L66.8184 127.965L70.504 130.14L72.292 129.094L70.4903 128.03L76.0646 124.758L74.24 123.675L70.5452 125.845L68.6658 124.739L66.8275 125.817L68.6475 126.891Z" fill="#0FB4FF"/>
<path d="M68.6652 124.711L68.6426 124.725L68.6652 124.739L68.6924 124.725L68.6652 124.711Z" fill="#0FB4FF"/>
<path d="M76.1449 120.347L76.1222 120.333L76.0996 120.347L76.1222 120.36L76.1449 120.347Z" fill="#0FB4FF"/>
<path d="M87.2668 120.338L87.2441 120.351L87.2668 120.365L87.2939 120.351L87.2668 120.338Z" fill="#0FB4FF"/>
<path d="M96.5726 121.443L96.55 121.43L96.5273 121.443L96.55 121.457L96.5726 121.443Z" fill="#0FB4FF"/>
<path d="M85.466 110.489L85.4434 110.503L85.4705 110.516L85.4931 110.503L85.466 110.489Z" fill="#0FB4FF"/>
<path d="M87.3538 109.41L87.3267 109.396L87.3086 109.41L87.3312 109.424L87.3538 109.41Z" fill="#0FB4FF"/>
<path d="M98.5296 102.847L98.507 102.833L98.4844 102.847L98.507 102.861L98.5296 102.847Z" fill="#0FB4FF"/>
<path d="M102.116 102.843L100.332 101.788C99.7332 102.141 99.1342 102.49 98.5352 102.843L100.319 103.898L102.116 102.843Z" fill="#0FB4FF"/>
<path d="M94.8123 100.649L94.7852 100.663L94.8078 100.677L94.8349 100.658L94.8123 100.649Z" fill="#0FB4FF"/>
<path d="M70.6172 103.94L70.6398 103.953L70.6624 103.94L70.6398 103.926L70.6172 103.94Z" fill="#0FB4FF"/>
<path d="M65.0488 102.847L65.0715 102.861L65.0986 102.847L65.076 102.833L65.0488 102.847Z" fill="#0FB4FF"/>
<path d="M65.0752 107.221L65.048 107.207L65.0254 107.221L65.0525 107.235L65.0752 107.221Z" fill="#0FB4FF"/>
<path d="M66.9627 108.336L66.9853 108.323L66.9582 108.304L66.9355 108.318L66.9627 108.336Z" fill="#0FB4FF"/>
<path d="M66.8633 110.442L68.7016 109.364C68.1437 109.034 67.5538 108.685 66.9594 108.337L65.1211 109.415L66.8588 110.442H66.8633Z" fill="#0FB4FF"/>
<path d="M68.7416 107.221L66.9125 106.143L65.0742 107.221C65.7007 107.579 66.3272 107.942 66.9582 108.304C67.5527 107.946 68.1471 107.584 68.7416 107.221Z" fill="#0FB4FF"/>
<path d="M68.7874 107.221L68.7648 107.207L68.7422 107.221L68.7648 107.235L68.7874 107.221Z" fill="#0FB4FF"/>
<path d="M72.4564 107.221L70.6273 106.143L68.7891 107.221L70.6182 108.304L72.4564 107.221Z" fill="#0FB4FF"/>
<path d="M109.523 111.595L104.077 108.378L98.5801 111.604L104.026 114.82L109.523 111.595Z" fill="#0FB4FF"/>
<path d="M65.2116 96.2941L78.0795 103.893L91.0113 96.3034L78.1389 88.7041L65.207 96.2941H65.2116ZM78.084 101.69L68.9522 96.2987L78.1846 90.8793L87.3165 96.2708L78.084 101.69Z" fill="#0FB4FF"/>
<path d="M85.5015 103.926L92.9552 99.5523L94.8072 100.649L96.5997 99.5941L92.9598 97.4421L83.709 102.871C84.3034 103.224 84.9025 103.573 85.4969 103.926H85.5015Z" fill="#0FB4FF"/>
<path d="M85.5011 103.958L85.5283 103.944L85.5011 103.926L85.4785 103.94L85.5011 103.958Z" fill="#0FB4FF"/>
<path d="M65.0977 102.848L68.7742 105.023L70.617 103.94L68.8062 102.875L70.6307 101.802L68.7605 100.7L65.0977 102.848Z" fill="#0FB4FF"/>
<path d="M91.0941 105.037L91.0715 105.023L91.0488 105.037L91.0715 105.05L91.0941 105.037Z" fill="#0FB4FF"/>
<path d="M72.4546 102.889C71.8602 103.238 71.2611 103.591 70.6621 103.944L74.3432 106.12L76.1357 105.065L72.4546 102.889Z" fill="#0FB4FF"/>
<path d="M92.9177 103.963L91.0932 105.032L92.9177 106.11L94.7514 105.037L96.5714 106.11L98.4142 105.027L96.5943 103.954L98.4874 102.843C97.2619 102.118 96.0364 101.393 94.8109 100.672L91.0703 102.866L92.9223 103.963H92.9177Z" fill="#0FB4FF"/>
<path d="M92.9191 106.115L92.8965 106.129L92.9236 106.143L92.9463 106.129L92.9191 106.115Z" fill="#0FB4FF"/>
<path d="M65.0243 107.221L61.3203 105.032L65.0471 102.847L63.2226 101.769L66.9174 99.5986L65.0837 98.5156L61.4209 100.668L59.5781 99.58L54.0312 102.833L63.2317 108.267L65.0197 107.216L65.0243 107.221ZM59.5003 103.893L57.7352 102.847L59.4957 101.816L61.2608 102.861L59.5003 103.893Z" fill="#0FB4FF"/>
<path d="M94.7066 107.198L92.9232 106.143L87.3535 109.411L89.1369 110.466L94.7066 107.198Z" fill="#0FB4FF"/>
<path d="M78.0478 108.304L79.9135 107.212L85.4695 110.493C86.0822 110.135 86.695 109.773 87.3077 109.415L85.4603 108.323L91.0529 105.041L89.1826 103.935L87.3169 105.027L85.5061 103.958C84.8842 104.312 84.2623 104.665 83.6449 105.018L81.7884 103.921C79.8952 105.032 78.0615 106.11 76.2324 107.184C76.836 107.556 77.4442 107.928 78.0524 108.299L78.0478 108.304ZM83.6312 107.156L81.8432 106.101L83.6358 105.051C84.2302 105.404 84.8247 105.752 85.4237 106.106L83.6312 107.156Z" fill="#0FB4FF"/>
<path d="M116.933 111.595L104.074 104L91.1426 111.59L104.001 119.185L116.933 111.595ZM104.079 106.203L113.229 111.609L104.015 117.014L94.8648 111.609L104.079 106.203Z" fill="#0FB4FF"/>
<path d="M92.7625 117.089L98.3596 120.393C97.7743 120.737 97.1707 121.091 96.5716 121.444L98.3596 122.499L102.032 120.347L92.8951 114.951L89.2734 117.079L91.0294 118.116L92.7716 117.093L92.7625 117.089Z" fill="#0FB4FF"/>
<path d="M79.7723 133.407L81.5649 132.352C80.9658 131.999 80.3714 131.65 79.7769 131.297L77.9844 132.352L79.7723 133.407Z" fill="#0FB4FF"/>
<path d="M89.0949 125.826L89.122 125.813L89.0949 125.799L89.0723 125.813L89.0949 125.826Z" fill="#0FB4FF"/>
<path d="M85.4058 121.458L79.8498 118.176L76.1504 120.347C76.7495 120.714 77.3485 121.077 77.9475 121.444L76.123 122.513L79.8224 124.697L74.2207 127.983L79.7812 131.269C81.0159 130.544 82.246 129.824 83.4806 129.099L79.8498 126.956L81.7155 125.859L83.4669 126.896L85.3052 125.817L81.7018 123.689L83.6178 122.564L89.1006 125.803L92.7954 123.638L94.6154 124.711L96.4582 123.628L94.6382 122.555L96.5268 121.444L92.8914 119.296L91.0715 120.365L92.8046 121.388L90.8977 122.508L87.276 120.365L85.4149 121.458H85.4058ZM79.7904 120.389L81.5738 121.439L79.7767 122.494L77.9933 121.444C78.5923 121.09 79.1913 120.742 79.7904 120.389Z" fill="#0FB4FF"/>
<path d="M66.8388 123.628L66.8162 123.614L66.7891 123.628L66.8162 123.642L66.8388 123.628Z" fill="#0FB4FF"/>
<path d="M68.6781 122.55L66.8398 123.628L68.6644 124.711L70.5072 123.628L68.6781 122.55Z" fill="#0FB4FF"/>
<path d="M66.8265 125.817L66.8039 125.803L66.7812 125.817L66.8039 125.831L66.8265 125.817Z" fill="#0FB4FF"/>
<path d="M64.9283 124.725L66.7894 123.628L64.9649 122.55L61.3066 124.692L64.9877 126.868L66.7803 125.817L64.9283 124.725Z" fill="#0FB4FF"/>
<path d="M68.6789 122.522L68.6562 122.536L68.6789 122.55L68.706 122.536L68.6789 122.522Z" fill="#0FB4FF"/>
<path d="M79.8507 118.148L79.8281 118.162L79.8507 118.176L79.8734 118.162L79.8507 118.148Z" fill="#0FB4FF"/>
<path d="M78.0486 108.332L78.0713 108.318L78.0486 108.304L78.0215 108.318L78.0486 108.332Z" fill="#0FB4FF"/>
<path d="M83.6279 111.599L83.6053 111.586L83.5781 111.599L83.6053 111.613L83.6279 111.599Z" fill="#0FB4FF"/>
<path d="M76.1465 111.599L76.1691 111.613L76.1963 111.599L76.1691 111.586L76.1465 111.599Z" fill="#0FB4FF"/>
<path d="M78.0265 112.678L78.0039 112.692L78.0265 112.705L78.0492 112.692L78.0265 112.678Z" fill="#0FB4FF"/>
<path d="M59.4277 121.406L61.2569 122.489C61.8879 122.118 62.4915 121.764 63.0951 121.411C62.5281 121.076 61.9611 120.737 61.266 120.328C60.6075 120.714 60.0176 121.062 59.4277 121.406Z" fill="#0FB4FF"/>
<path d="M63.0957 121.406L63.1183 121.42L63.1455 121.406L63.1183 121.393L63.0957 121.406Z" fill="#0FB4FF"/>
<path d="M59.377 121.406L59.3996 121.42L59.4267 121.406L59.4041 121.393V121.416V121.393L59.377 121.406Z" fill="#0FB4FF"/>
<path d="M57.5441 120.337L57.5215 120.351L57.5441 120.365L57.5667 120.351L57.5441 120.337Z" fill="#0FB4FF"/>
<path d="M55.748 121.421L57.5497 122.485C58.1716 122.118 58.7752 121.764 59.3788 121.411C58.7661 121.063 58.1579 120.719 57.5452 120.37L55.748 121.425V121.421Z" fill="#0FB4FF"/>
<path d="M57.5543 118.227L55.7617 119.278C56.3562 119.631 56.9552 119.98 57.5497 120.333L59.3422 119.282L57.5543 118.227Z" fill="#0FB4FF"/>
<path d="M65.0018 115.959L64.9746 115.978L64.9972 115.991L65.0244 115.973L65.0018 115.959Z" fill="#0FB4FF"/>
<path d="M39.1523 111.604L51.9836 119.185L64.9384 111.581L52.1071 104L39.1523 111.604ZM51.9882 117.019L42.8289 111.609L52.0293 106.208L61.1887 111.618L51.9882 117.019Z" fill="#0FB4FF"/>
<path d="M65.0074 113.854L63.2148 114.904C63.8093 115.257 64.4083 115.606 65.0028 115.959L66.7953 114.909L65.0074 113.854Z" fill="#0FB4FF"/>
<path d="M70.5781 112.692L70.6007 112.705L70.6234 112.692L70.6007 112.678L70.5781 112.692Z" fill="#0FB4FF"/>
<path d="M66.9922 112.696L68.7756 113.751C69.3746 113.398 69.9737 113.05 70.5727 112.696L68.7893 111.641L66.9922 112.696Z" fill="#0FB4FF"/>
<path d="M72.5059 107.221L74.3075 108.286C74.9432 107.914 75.5605 107.551 76.1778 107.189C75.5651 106.84 74.9569 106.492 74.3441 106.143C73.7314 106.501 73.1186 106.863 72.5059 107.221Z" fill="#0FB4FF"/>
<path d="M76.1797 107.188L76.2023 107.202L76.2295 107.184L76.2068 107.175L76.2023 107.193V107.175L76.1797 107.188Z" fill="#0FB4FF"/>
<path d="M72.5049 107.221L72.4822 107.207L72.4551 107.221L72.4777 107.235L72.5049 107.221Z" fill="#0FB4FF"/>
<path d="M87.2769 118.227L85.4844 119.282C86.0788 119.636 86.6779 119.984 87.2723 120.337L89.0649 119.282L87.2769 118.227Z" fill="#0FB4FF"/>
<path d="M81.7392 117.065L81.7121 117.051L81.6895 117.065L81.7166 117.079L81.7392 117.065Z" fill="#0FB4FF"/>
<path d="M64.966 122.55L64.9886 122.536L64.966 122.522L64.9434 122.536L64.966 122.55Z" fill="#0FB4FF"/>
<path d="M64.9652 122.522L66.8309 121.43L68.6783 122.522L70.5028 121.453L72.3548 122.55C73.6581 121.783 74.879 121.067 76.0954 120.356L74.312 119.301L78.0662 117.098L79.8496 118.153C80.4624 117.795 81.0751 117.433 81.6879 117.07L78.0114 114.899L79.8771 113.807L81.7245 114.899L83.5856 113.807L85.4376 114.899L81.7382 117.07L83.5216 118.125L90.9524 113.765C89.1187 112.682 87.2941 111.604 85.465 110.526L83.6222 111.609L85.4513 112.687L83.5856 113.779L81.7565 112.696C82.3647 112.334 82.9683 111.967 83.5765 111.604L78.0434 108.337L76.2234 109.406L78.0754 110.498L76.196 111.604L78.0251 112.687L79.8633 111.609C80.5584 112.018 81.1392 112.362 81.7153 112.701L79.8771 113.779C79.2597 113.426 78.6424 113.068 78.0251 112.715L76.2325 113.765L74.3577 112.659L76.1502 111.609L72.524 109.466L70.704 110.535L72.5057 111.599L70.6263 112.701L74.2845 114.862L72.4188 115.959L74.2571 117.047L68.724 120.296L65.0978 118.153L66.8766 117.107L65.0017 116.001L63.1772 117.07L61.3618 115.996L59.4961 117.089L64.988 120.333C64.3387 120.714 63.7442 121.063 63.1498 121.411C63.7579 121.783 64.3661 122.155 64.9743 122.527L64.9652 122.522Z" fill="#0FB4FF"/>
<path d="M74.3436 106.115L74.3164 106.129L74.3436 106.143L74.3662 106.129L74.3436 106.115Z" fill="#0FB4FF"/>
<path d="M89.0907 127.937L90.8832 126.882C90.2842 126.528 89.6897 126.18 89.0953 125.827L87.3027 126.882L89.0907 127.937Z" fill="#0FB4FF"/>
<path d="M83.5277 129.099L83.505 129.085L83.4824 129.099L83.505 129.112L83.5277 129.099Z" fill="#0FB4FF"/>
<path d="M87.1078 129.094L85.3245 128.044C84.7254 128.397 84.1264 128.746 83.5273 129.099L85.3107 130.149L87.1078 129.094Z" fill="#0FB4FF"/>
<path d="M79.7765 131.297L79.8037 131.283L79.7765 131.269L79.7539 131.283L79.7765 131.297Z" fill="#0FB4FF"/>
<path d="M72.666 96.28L78.1488 99.5149L83.6041 96.3126L78.1259 93.073L72.666 96.28Z" fill="#0FB4FF"/>
<path d="M46.5742 111.604L52.025 114.825L57.5124 111.604L52.0616 108.383L46.5742 111.604Z" fill="#0FB4FF"/>
</g>
<g clip-path="url(#clip3_1409_5581)">
<path style="mix-blend-mode:screen" opacity="0.3" d="M124.295 71.2912L25.2949 55.9998L38.5141 108.034C38.4471 109.264 39.0063 110.523 40.1955 111.223L76.3484 132.533C77.3998 133.153 78.6953 133.153 79.7467 132.529L115.632 111.235C116.766 110.563 117.325 109.385 117.317 108.211H117.341L124.299 71.2872L124.295 71.2912Z" fill="url(#paint29_linear_1409_5581)"/>
</g>
<path d="M115.909 99.2146C110.986 102.09 103.026 102.133 98.1613 99.3032L19.9042 53.822C15.0398 50.9926 15.0883 46.3543 20.0113 43.4787L51.1463 25.2941C56.0692 22.4184 64.03 22.3762 68.8944 25.2055L147.152 70.6868C152.016 73.5161 151.962 78.1514 147.039 81.0271L115.904 99.2116L115.909 99.2146Z" fill="url(#paint30_linear_1409_5581)"/>
<path d="M21.902 52.6496L100.159 98.1308C103.932 100.323 110.106 100.287 113.924 98.0618L145.062 79.8721C148.883 77.6416 148.923 74.0431 145.15 71.8509L66.8931 26.3696C63.1202 24.1774 56.9489 24.2081 53.128 26.4386L21.9931 44.6232C18.1774 46.8567 18.1321 50.4521 21.905 52.6443" fill="#002C55"/>
<path d="M54.8708 27.5572C57.673 25.9226 62.1893 25.8974 64.9503 27.5054L143.207 72.9867C145.974 74.5977 145.948 77.2294 143.146 78.864L112.011 97.0486C109.206 98.6884 104.692 98.7084 101.926 97.0974L23.6689 51.6161C20.9027 50.0051 20.9306 47.3816 23.7359 45.7417L28.1078 43.1886L30.5968 44.0755C31.6123 44.4389 32.9331 44.3448 33.7877 43.8423L51.6317 33.4178C52.4863 32.9153 52.6456 32.1506 52.0224 31.5609L50.4907 30.1125L54.8626 27.5594L54.8708 27.5572Z" fill="url(#paint31_linear_1409_5581)"/>
<g clip-path="url(#clip4_1409_5581)">
<path d="M74.687 69.2267L73.5625 69.875L75.8284 71.1886L76.9276 70.5571L75.82 69.9143L79.2469 67.9384L78.1252 67.2844L75.8537 68.5952L74.6983 67.9272L73.5681 68.5783L74.687 69.2267Z" fill="#0FB4FF"/>
<path d="M74.6982 67.9104L74.6836 67.9194L74.6982 67.9283L74.7158 67.9194L74.6982 67.9104Z" fill="#0FB4FF"/>
<path d="M79.2985 65.2752L79.284 65.2664L79.2695 65.2752L79.284 65.2841L79.2985 65.2752Z" fill="#0FB4FF"/>
<path d="M86.1357 65.2693L86.1211 65.2782L86.1357 65.2872L86.1533 65.2782L86.1357 65.2693Z" fill="#0FB4FF"/>
<path d="M91.8571 65.9378L91.8426 65.929L91.8281 65.9378L91.8426 65.9467L91.8571 65.9378Z" fill="#0FB4FF"/>
<path d="M85.0283 59.322L85.0137 59.331L85.0312 59.3399L85.0458 59.331L85.0283 59.322Z" fill="#0FB4FF"/>
<path d="M86.1891 58.6712L86.1717 58.6624L86.1602 58.6712L86.1746 58.6801L86.1891 58.6712Z" fill="#0FB4FF"/>
<path d="M93.0602 54.7081L93.0457 54.6992L93.0312 54.7081L93.0457 54.717L93.0602 54.7081Z" fill="#0FB4FF"/>
<path d="M95.2618 54.7048L94.1654 54.0676C93.7971 54.2809 93.4288 54.4914 93.0605 54.7048L94.1569 55.3419L95.2618 54.7048Z" fill="#0FB4FF"/>
<path d="M90.7734 53.3801L90.7559 53.3891L90.7705 53.3981L90.788 53.3861L90.7734 53.3801Z" fill="#0FB4FF"/>
<path d="M75.8984 55.3675L75.9129 55.3764L75.9274 55.3675L75.9129 55.3586L75.8984 55.3675Z" fill="#0FB4FF"/>
<path d="M72.4746 54.7079L72.4892 54.7169L72.5068 54.7079L72.4922 54.699L72.4746 54.7079Z" fill="#0FB4FF"/>
<path d="M72.4931 57.3493L72.4756 57.3403L72.4609 57.3493L72.4785 57.3583L72.4931 57.3493Z" fill="#0FB4FF"/>
<path d="M73.6523 58.0236L73.6669 58.0146L73.6494 58.0027L73.6348 58.0116L73.6523 58.0236Z" fill="#0FB4FF"/>
<path d="M73.5906 59.2937L74.7208 58.6425C74.3778 58.4432 74.0151 58.2327 73.6497 58.0222L72.5195 58.6734L73.5878 59.2937H73.5906Z" fill="#0FB4FF"/>
<path d="M74.7449 57.3487L73.6204 56.6975L72.4902 57.3487C72.8754 57.5648 73.2605 57.7837 73.6485 58.0026C74.0139 57.7865 74.3794 57.5676 74.7449 57.3487Z" fill="#0FB4FF"/>
<path d="M74.7751 57.3492L74.7606 57.3403L74.7461 57.3492L74.7606 57.3581L74.7751 57.3492Z" fill="#0FB4FF"/>
<path d="M77.03 57.3487L75.9055 56.6975L74.7754 57.3487L75.8999 58.0026L77.03 57.3487Z" fill="#0FB4FF"/>
<path d="M99.8172 59.9899L96.469 58.0476L93.0898 59.9955L96.4381 61.9377L99.8172 59.9899Z" fill="#0FB4FF"/>
<path d="M72.577 50.7501L80.4879 55.3391L88.4382 50.7557L80.5245 46.1667L72.5742 50.7501H72.577ZM80.4908 54.0087L74.8766 50.7529L80.5526 47.4803L86.1667 50.7361L80.4908 54.0087Z" fill="#0FB4FF"/>
<path d="M85.0512 55.3587L89.6336 52.7176L90.7722 53.38L91.8742 52.7429L89.6364 51.4434L83.9492 54.7216C84.3147 54.9349 84.683 55.1454 85.0484 55.3587H85.0512Z" fill="#0FB4FF"/>
<path d="M85.0517 55.3796L85.0693 55.3706L85.0517 55.3586L85.0371 55.3676L85.0517 55.3796Z" fill="#0FB4FF"/>
<path d="M72.5059 54.7076L74.7661 56.0211L75.8991 55.3672L74.7858 54.7244L75.9075 54.0761L74.7577 53.4109L72.5059 54.7076Z" fill="#0FB4FF"/>
<path d="M88.4899 56.0301L88.4754 56.0212L88.4609 56.0301L88.4754 56.039L88.4899 56.0301Z" fill="#0FB4FF"/>
<path d="M77.0298 54.7329C76.6643 54.9434 76.296 55.1567 75.9277 55.37L78.1908 56.6836L79.2928 56.0465L77.0298 54.7329Z" fill="#0FB4FF"/>
<path d="M89.6104 55.3812L88.4887 56.0267L89.6104 56.6779L90.7377 56.0295L91.8566 56.6779L92.9895 56.0239L91.8706 55.3756L93.0345 54.7048C92.2811 54.2669 91.5276 53.8291 90.7742 53.394L88.4746 54.7188L89.6132 55.3812H89.6104Z" fill="#0FB4FF"/>
<path d="M89.6103 56.6809L89.5957 56.6899L89.6132 56.6988L89.6279 56.6899L89.6103 56.6809Z" fill="#0FB4FF"/>
<path d="M72.4614 57.3488L70.1843 56.0268L72.4755 54.7077L71.3538 54.0565L73.6253 52.7458L72.498 52.0918L70.2461 53.3913L69.1132 52.7345L65.7031 54.6992L71.3594 57.9803L72.4586 57.346L72.4614 57.3488ZM69.0654 55.3392L67.9803 54.7077L69.0626 54.0846L70.1477 54.7161L69.0654 55.3392Z" fill="#0FB4FF"/>
<path d="M90.71 57.3346L89.6136 56.6975L86.1895 58.6706L87.2858 59.3078L90.71 57.3346Z" fill="#0FB4FF"/>
<path d="M80.4676 58.0027L81.6146 57.3431L85.0303 59.3247C85.407 59.1085 85.7837 58.8896 86.1605 58.6735L85.0247 58.0139L88.4629 56.0324L87.3131 55.3644L86.1661 56.024L85.0528 55.3784C84.6705 55.5917 84.2882 55.805 83.9086 56.0183L82.7673 55.356C81.6034 56.0268 80.4761 56.6779 79.3516 57.3263C79.7227 57.5508 80.0966 57.7753 80.4704 57.9999L80.4676 58.0027ZM83.9002 57.3094L82.801 56.6723L83.903 56.038C84.2685 56.2513 84.6339 56.4618 85.0022 56.6751L83.9002 57.3094Z" fill="#0FB4FF"/>
<path d="M104.375 59.9897L96.4698 55.4036L88.5195 59.9869L96.4248 64.5731L104.375 59.9897ZM96.4726 56.7339L102.098 59.9982L96.4333 63.2624L90.8079 59.9982L96.4726 56.7339Z" fill="#0FB4FF"/>
<path d="M89.5141 63.3074L92.9551 65.303C92.5953 65.5107 92.2242 65.724 91.8559 65.9373L92.9551 66.5745L95.2126 65.275L89.5957 62.0164L87.3691 63.3018L88.4487 63.9277L89.5198 63.3103L89.5141 63.3074Z" fill="#0FB4FF"/>
<path d="M81.5269 73.1617L82.629 72.5246C82.2607 72.3113 81.8952 72.1008 81.5298 71.8875L80.4277 72.5246L81.5269 73.1617Z" fill="#0FB4FF"/>
<path d="M87.2607 68.5851L87.2783 68.5761L87.2607 68.5671L87.2461 68.5761L87.2607 68.5851Z" fill="#0FB4FF"/>
<path d="M84.9916 65.9457L81.5759 63.9641L79.3016 65.2748C79.6699 65.4966 80.0381 65.7155 80.4064 65.9372L79.2847 66.5828L81.559 67.9019L78.1152 69.8863L81.5337 71.8706C82.2928 71.4328 83.049 70.9977 83.8081 70.5599L81.5759 69.266L82.7229 68.6036L83.7996 69.2295L84.9298 68.5784L82.7145 67.2929L83.8924 66.6137L87.2631 68.5699L89.5346 67.262L90.6535 67.9104L91.7864 67.2564L90.6676 66.608L91.8286 65.9372L89.5936 64.6405L88.4748 65.2861L89.5402 65.9036L88.3679 66.58L86.1414 65.2861L84.9972 65.9457H84.9916ZM81.5394 65.3001L82.6358 65.9344L81.5309 66.5715L80.4345 65.9372C80.8028 65.7239 81.1711 65.5134 81.5394 65.3001Z" fill="#0FB4FF"/>
<path d="M73.579 67.2568L73.5644 67.2478L73.5469 67.2568L73.5644 67.2657L73.579 67.2568Z" fill="#0FB4FF"/>
<path d="M74.7083 66.6052L73.5781 67.2564L74.6998 67.9103L75.8328 67.2564L74.7083 66.6052Z" fill="#0FB4FF"/>
<path d="M73.57 68.5789L73.5555 68.5701L73.541 68.5789L73.5555 68.5878L73.57 68.5789Z" fill="#0FB4FF"/>
<path d="M72.4023 67.9188L73.5465 67.2564L72.4248 66.6052L70.1758 67.8991L72.4389 69.2127L73.5409 68.5783L72.4023 67.9188Z" fill="#0FB4FF"/>
<path d="M74.708 66.5884L74.6934 66.5973L74.708 66.6063L74.7255 66.5973L74.708 66.5884Z" fill="#0FB4FF"/>
<path d="M81.575 63.9473L81.5605 63.9561L81.575 63.965L81.5895 63.9561L81.575 63.9473Z" fill="#0FB4FF"/>
<path d="M80.4687 58.0206L80.4833 58.0116L80.4687 58.0027L80.4512 58.0116L80.4687 58.0206Z" fill="#0FB4FF"/>
<path d="M83.8974 59.9931L83.8828 59.9841L83.8652 59.9931L83.8828 60.0021L83.8974 59.9931Z" fill="#0FB4FF"/>
<path d="M79.2988 59.9931L79.3134 60.0021L79.331 59.9931L79.3134 59.9841L79.2988 59.9931Z" fill="#0FB4FF"/>
<path d="M80.4539 60.6438L80.4395 60.6527L80.4539 60.6616L80.4684 60.6527L80.4539 60.6438Z" fill="#0FB4FF"/>
<path d="M69.0195 65.9148L70.144 66.5688C70.532 66.3443 70.9031 66.1309 71.2742 65.9176C70.9256 65.7156 70.577 65.5107 70.1497 65.2637C69.7448 65.4966 69.3822 65.7071 69.0195 65.9148Z" fill="#0FB4FF"/>
<path d="M71.2734 65.9155L71.2881 65.9244L71.3056 65.9155L71.2881 65.9065L71.2734 65.9155Z" fill="#0FB4FF"/>
<path d="M68.9883 65.9155L69.0029 65.9244L69.0204 65.9155L69.0058 65.9065V65.9214V65.9065L68.9883 65.9155Z" fill="#0FB4FF"/>
<path d="M67.8621 65.2693L67.8477 65.2782L67.8621 65.287L67.8766 65.2782L67.8621 65.2693Z" fill="#0FB4FF"/>
<path d="M66.7559 65.9231L67.8635 66.5659C68.2458 66.3441 68.6169 66.1308 68.988 65.9175C68.6113 65.707 68.2374 65.4993 67.8607 65.2888L66.7559 65.9259V65.9231Z" fill="#0FB4FF"/>
<path d="M67.8676 63.9951L66.7656 64.6294C67.1311 64.8427 67.4994 65.0533 67.8648 65.2666L68.9669 64.6322L67.8676 63.9951Z" fill="#0FB4FF"/>
<path d="M72.4472 62.6252L72.4297 62.6372L72.4443 62.6462L72.4619 62.6342L72.4472 62.6252Z" fill="#0FB4FF"/>
<path d="M56.5547 59.9954L64.4431 64.5731L72.4074 59.9813L64.519 55.4036L56.5547 59.9954ZM64.4459 63.2652L58.8149 59.9982L64.4712 56.7368L70.1022 60.0038L64.4459 63.2652Z" fill="#0FB4FF"/>
<path d="M72.4497 61.354L71.3477 61.9883C71.7131 62.2016 72.0814 62.4121 72.4469 62.6254L73.5489 61.9911L72.4497 61.354Z" fill="#0FB4FF"/>
<path d="M75.873 60.6527L75.8875 60.6616L75.902 60.6527L75.8875 60.6438L75.873 60.6527Z" fill="#0FB4FF"/>
<path d="M73.6699 60.6549L74.7663 61.2921C75.1346 61.0788 75.5029 60.8683 75.8711 60.6549L74.7748 60.0178L73.6699 60.6549Z" fill="#0FB4FF"/>
<path d="M77.0605 57.3487L78.1682 57.9914C78.559 57.7669 78.9385 57.5479 79.318 57.329C78.9413 57.1185 78.5674 56.908 78.1907 56.6975C77.814 56.9136 77.4373 57.1326 77.0605 57.3487Z" fill="#0FB4FF"/>
<path d="M79.3184 57.3295L79.333 57.3385L79.3505 57.3265L79.3359 57.3206L79.333 57.3325V57.3206L79.3184 57.3295Z" fill="#0FB4FF"/>
<path d="M77.0615 57.3493L77.0468 57.3403L77.0293 57.3493L77.0439 57.3583L77.0615 57.3493Z" fill="#0FB4FF"/>
<path d="M86.1391 63.9951L85.0371 64.6322C85.4026 64.8456 85.7709 65.0561 86.1363 65.2694L87.2383 64.6322L86.1391 63.9951Z" fill="#0FB4FF"/>
<path d="M82.7392 63.2939L82.7217 63.2849L82.707 63.2939L82.7246 63.3028L82.7392 63.2939Z" fill="#0FB4FF"/>
<path d="M72.4266 66.6061L72.4411 66.5973L72.4266 66.5884L72.4121 66.5973L72.4266 66.6061Z" fill="#0FB4FF"/>
<path d="M72.4248 66.5883L73.5718 65.9287L74.7075 66.5883L75.8292 65.9428L76.9678 66.6052C77.769 66.142 78.5196 65.7098 79.2674 65.2804L78.171 64.6433L80.4791 63.3129L81.5755 63.95C81.9522 63.7339 82.3289 63.515 82.7056 63.296L80.4453 61.9853L81.5923 61.3257L82.7281 61.9853L83.8723 61.3257L85.0108 61.9853L82.7365 63.296L83.8329 63.9332L88.4012 61.3005C87.2739 60.6465 86.1522 59.9953 85.0277 59.3442L83.8948 59.9981L85.0193 60.6493L83.8723 61.3089L82.7478 60.6549C83.1217 60.436 83.4928 60.2143 83.8666 59.9953L80.465 58.0222L79.3461 58.6678L80.4847 59.3273L79.3293 59.9953L80.4538 60.6493L81.5839 59.9981C82.0112 60.2451 82.3682 60.4528 82.7225 60.6577L81.5923 61.3089C81.2128 61.0956 80.8333 60.8795 80.4538 60.6661L79.3517 61.3005L78.1991 60.6325L79.3011 59.9981L77.0718 58.7042L75.9529 59.3498L77.0606 59.9925L75.9051 60.6577L78.1541 61.9628L77.0071 62.6252L78.1373 63.282L74.7356 65.2439L72.5063 63.95L73.5999 63.3185L72.4473 62.6505L71.3256 63.296L70.2095 62.6477L69.0625 63.3073L72.4388 65.2664C72.0396 65.4965 71.6742 65.707 71.3087 65.9175C71.6826 66.142 72.0565 66.3666 72.4304 66.5911L72.4248 66.5883Z" fill="#0FB4FF"/>
<path d="M78.1914 56.6807L78.1738 56.6896L78.1914 56.6986L78.206 56.6896L78.1914 56.6807Z" fill="#0FB4FF"/>
<path d="M87.2574 69.8582L88.3594 69.2211C87.9911 69.0078 87.6257 68.7973 87.2602 68.584L86.1582 69.2211L87.2574 69.8582Z" fill="#0FB4FF"/>
<path d="M83.8356 70.5604L83.8211 70.5515L83.8066 70.5604L83.8211 70.5693L83.8356 70.5604Z" fill="#0FB4FF"/>
<path d="M86.0372 70.5572L84.9408 69.9229C84.5725 70.1362 84.2042 70.3467 83.8359 70.56L84.9323 71.1943L86.0372 70.5572Z" fill="#0FB4FF"/>
<path d="M81.5302 71.8885L81.5478 71.8796L81.5302 71.8706L81.5156 71.8796L81.5302 71.8885Z" fill="#0FB4FF"/>
<path d="M77.1582 50.7416L80.5289 52.695L83.8828 50.7612L80.5149 48.8049L77.1582 50.7416Z" fill="#0FB4FF"/>
<path d="M61.1172 59.9953L64.4682 61.9404L67.8417 59.9953L64.4907 58.0503L61.1172 59.9953Z" fill="#0FB4FF"/>
</g>
<path d="M98.102 104.639L19.8449 59.1578C17.4267 57.7547 16.2267 55.8988 16.2266 54.0391L16.2854 48.7034C16.2854 48.7034 16.2849 48.7519 16.2914 48.7765C16.2904 48.957 16.3028 49.1383 16.3337 49.3232C16.3435 49.3777 16.3504 49.4373 16.3602 49.4918C16.3954 49.6932 16.446 49.9035 16.5161 50.1041C16.55 50.2003 16.5913 50.3077 16.6304 50.4069C16.718 50.6247 16.8272 50.8409 16.9476 51.0497C16.9789 51.1026 17.0052 51.1526 17.0417 51.2085C17.1514 51.3763 17.2661 51.547 17.3973 51.7133C17.4244 51.7498 17.4566 51.7894 17.4837 51.8259C17.5534 51.9079 17.6231 51.9899 17.6958 52.0667C17.8807 52.271 18.082 52.4708 18.2944 52.6631C18.365 52.7317 18.4385 52.795 18.5254 52.8591C18.5887 52.9165 18.6549 52.9687 18.7263 53.0238C18.8536 53.1252 18.9891 53.2243 19.1276 53.3182C19.2175 53.3771 19.2941 53.4352 19.3922 53.4919C19.446 53.5299 19.5028 53.5627 19.5617 53.6037C19.6753 53.6692 19.7858 53.74 19.9046 53.8086L98.1617 99.2899C103.026 102.119 110.987 102.077 115.91 99.2012C115.993 99.1519 116.077 99.1027 116.16 99.0534L147.047 81.0249C147.784 80.594 148.412 80.1274 148.929 79.6251C148.989 79.5691 149.043 79.5101 149.103 79.4541C149.218 79.3392 149.327 79.2213 149.423 79.1026C149.478 79.0436 149.527 78.9817 149.574 78.925C149.961 78.4451 150.251 77.9436 150.45 77.4318C150.453 77.4266 150.456 77.4214 150.459 77.4161C150.491 77.337 150.523 77.2579 150.541 77.1781C150.57 77.1043 150.6 77.017 150.618 76.9371C150.656 76.8125 150.685 76.6902 150.699 76.5589C150.723 76.4336 150.736 76.3157 150.747 76.1896C150.761 76.1068 150.766 76.0262 150.761 75.9397C150.765 75.9211 150.763 75.8994 150.767 75.8808L150.708 81.133C150.707 83.0195 149.457 84.9097 146.983 86.3577L115.845 104.547C110.922 107.423 102.964 107.46 98.0969 104.636L98.102 104.639Z" fill="url(#paint32_linear_1409_5581)"/>
<path d="M87.4425 97.5508L69.4556 87.0965C69.1665 86.9295 69.073 86.5551 69.2418 86.2626L69.4409 85.9179C69.272 86.2104 69.3686 86.5796 69.6547 86.7517L87.6445 97.2008C87.9336 97.3677 88.3068 97.2698 88.4757 96.9773L88.2767 97.322C88.1078 97.6145 87.7316 97.7177 87.4425 97.5508Z" fill="url(#paint33_linear_1409_5581)"/>
<path d="M69.6577 86.7519L87.6445 97.2063C87.9336 97.3732 88.3068 97.2752 88.4757 96.9827L88.9582 96.1469C89.1271 95.8544 89.0305 95.4853 88.7414 95.3183L70.7546 84.864C70.4655 84.6971 70.0923 84.795 69.9234 85.0875L69.4409 85.9233C69.272 86.2158 69.3686 86.585 69.6577 86.7519Z" fill="url(#paint34_linear_1409_5581)"/>
<g style="mix-blend-mode:overlay">
<path d="M70.5756 85.1637L88.5624 95.6181C88.8515 95.785 88.9481 96.1542 88.7792 96.4467L88.9602 96.1333C89.1291 95.8408 89.0325 95.4716 88.7434 95.3047L70.7565 84.8503C70.4674 84.6834 70.0942 84.7814 69.9253 85.0739L69.7444 85.3873C69.9133 85.0948 70.2865 84.9968 70.5756 85.1637Z" fill="white"/>
</g>
<path style="mix-blend-mode:screen" d="M92.034 83.9792L64.3223 68.0146L93.9741 50.6941L121.686 66.6586L92.034 83.9792Z" fill="url(#paint35_linear_1409_5581)"/>
<path d="M94.6959 51.3525L93.7507 50.772L64.0989 68.0926L65.044 68.6731L94.6959 51.3525Z" fill="#94DFFF"/>
<path d="M58.4029 55.4304L53.5623 58.5949C52.7074 59.154 52.2206 59.8833 52.2078 60.62C52.195 61.3568 52.66 62.0427 53.4986 62.5269L58.2342 65.261M87.2714 46.2643L82.5358 43.5302C81.6972 43.046 80.5568 42.805 79.3601 42.8583C78.1634 42.9115 77.0084 43.255 76.1534 43.8141L71.3128 46.9786M104.785 66.3037L109.626 63.1392C110.481 62.5802 110.967 61.8509 110.98 61.1141C110.993 60.3774 110.528 59.6914 109.689 59.2073L104.954 56.4732M75.9165 75.4699L80.6521 78.204C81.4907 78.6881 82.6312 78.9291 83.8279 78.8759C85.0246 78.8227 86.1796 78.4792 87.0345 77.9201L91.8751 74.7556" stroke="#94DFFF" stroke-linecap="round" stroke-linejoin="round"/>
</g>
<g style="mix-blend-mode:overlay">
<path fill-rule="evenodd" clip-rule="evenodd" d="M160.971 34.8253C162.828 33.0111 165.337 32 167.944 32H177.94C179.037 32 179.927 32.8898 179.927 33.9874C179.927 35.0851 179.037 35.9749 177.94 35.9749H167.944C166.362 35.9749 164.853 36.5894 163.748 37.6688C162.645 38.7467 162.033 40.1985 162.033 41.7022V50.4567C162.033 51.5543 161.144 52.4441 160.046 52.4441C158.948 52.4441 158.059 51.5543 158.059 50.4567V41.7022C158.059 39.1137 159.112 36.641 160.971 34.8253ZM214.334 33.9874C214.334 32.8898 215.224 32 216.321 32H224.114C226.721 32 229.23 33.0111 231.088 34.8253C232.947 36.641 234 39.1137 234 41.7022V50.4567C234 51.5543 233.11 52.4441 232.012 52.4441C230.915 52.4441 230.025 51.5543 230.025 50.4567V41.7022C230.025 40.1985 229.414 38.7467 228.31 37.6688C227.205 36.5894 225.697 35.9749 224.114 35.9749H216.321C215.224 35.9749 214.334 35.0851 214.334 33.9874ZM160.046 87.6713C161.144 87.6713 162.033 88.5611 162.033 89.6587V97.6927C162.033 99.1964 162.645 100.648 163.748 101.726C164.853 102.806 166.362 103.42 167.944 103.42H177.94C179.037 103.42 179.927 104.31 179.927 105.407C179.927 106.505 179.037 107.395 177.94 107.395H167.944C165.337 107.395 162.828 106.384 160.971 104.57C159.112 102.754 158.059 100.281 158.059 97.6927V89.6587C158.059 88.5611 158.948 87.6713 160.046 87.6713ZM232.012 87.6713C233.11 87.6713 234 88.5611 234 89.6587V97.6927C234 100.281 232.947 102.754 231.088 104.57C229.23 106.384 226.721 107.395 224.114 107.395H216.321C215.224 107.395 214.334 106.505 214.334 105.407C214.334 104.31 215.224 103.42 216.321 103.42H224.114C225.697 103.42 227.205 102.806 228.31 101.726C229.414 100.648 230.025 99.1964 230.025 97.6927V89.6587C230.025 88.5611 230.915 87.6713 232.012 87.6713Z" fill="black"/>
<path fill-rule="evenodd" clip-rule="evenodd" d="M160.971 34.8253C162.828 33.0111 165.337 32 167.944 32H177.94C179.037 32 179.927 32.8898 179.927 33.9874C179.927 35.0851 179.037 35.9749 177.94 35.9749H167.944C166.362 35.9749 164.853 36.5894 163.748 37.6688C162.645 38.7467 162.033 40.1985 162.033 41.7022V50.4567C162.033 51.5543 161.144 52.4441 160.046 52.4441C158.948 52.4441 158.059 51.5543 158.059 50.4567V41.7022C158.059 39.1137 159.112 36.641 160.971 34.8253ZM214.334 33.9874C214.334 32.8898 215.224 32 216.321 32H224.114C226.721 32 229.23 33.0111 231.088 34.8253C232.947 36.641 234 39.1137 234 41.7022V50.4567C234 51.5543 233.11 52.4441 232.012 52.4441C230.915 52.4441 230.025 51.5543 230.025 50.4567V41.7022C230.025 40.1985 229.414 38.7467 228.31 37.6688C227.205 36.5894 225.697 35.9749 224.114 35.9749H216.321C215.224 35.9749 214.334 35.0851 214.334 33.9874ZM160.046 87.6713C161.144 87.6713 162.033 88.5611 162.033 89.6587V97.6927C162.033 99.1964 162.645 100.648 163.748 101.726C164.853 102.806 166.362 103.42 167.944 103.42H177.94C179.037 103.42 179.927 104.31 179.927 105.407C179.927 106.505 179.037 107.395 177.94 107.395H167.944C165.337 107.395 162.828 106.384 160.971 104.57C159.112 102.754 158.059 100.281 158.059 97.6927V89.6587C158.059 88.5611 158.948 87.6713 160.046 87.6713ZM232.012 87.6713C233.11 87.6713 234 88.5611 234 89.6587V97.6927C234 100.281 232.947 102.754 231.088 104.57C229.23 106.384 226.721 107.395 224.114 107.395H216.321C215.224 107.395 214.334 106.505 214.334 105.407C214.334 104.31 215.224 103.42 216.321 103.42H224.114C225.697 103.42 227.205 102.806 228.31 101.726C229.414 100.648 230.025 99.1964 230.025 97.6927V89.6587C230.025 88.5611 230.915 87.6713 232.012 87.6713Z" fill="url(#paint36_linear_1409_5581)"/>
<path fill-rule="evenodd" clip-rule="evenodd" d="M160.971 34.8253C162.828 33.0111 165.337 32 167.944 32H177.94C179.037 32 179.927 32.8898 179.927 33.9874C179.927 35.0851 179.037 35.9749 177.94 35.9749H167.944C166.362 35.9749 164.853 36.5894 163.748 37.6688C162.645 38.7467 162.033 40.1985 162.033 41.7022V50.4567C162.033 51.5543 161.144 52.4441 160.046 52.4441C158.948 52.4441 158.059 51.5543 158.059 50.4567V41.7022C158.059 39.1137 159.112 36.641 160.971 34.8253ZM214.334 33.9874C214.334 32.8898 215.224 32 216.321 32H224.114C226.721 32 229.23 33.0111 231.088 34.8253C232.947 36.641 234 39.1137 234 41.7022V50.4567C234 51.5543 233.11 52.4441 232.012 52.4441C230.915 52.4441 230.025 51.5543 230.025 50.4567V41.7022C230.025 40.1985 229.414 38.7467 228.31 37.6688C227.205 36.5894 225.697 35.9749 224.114 35.9749H216.321C215.224 35.9749 214.334 35.0851 214.334 33.9874ZM160.046 87.6713C161.144 87.6713 162.033 88.5611 162.033 89.6587V97.6927C162.033 99.1964 162.645 100.648 163.748 101.726C164.853 102.806 166.362 103.42 167.944 103.42H177.94C179.037 103.42 179.927 104.31 179.927 105.407C179.927 106.505 179.037 107.395 177.94 107.395H167.944C165.337 107.395 162.828 106.384 160.971 104.57C159.112 102.754 158.059 100.281 158.059 97.6927V89.6587C158.059 88.5611 158.948 87.6713 160.046 87.6713ZM232.012 87.6713C233.11 87.6713 234 88.5611 234 89.6587V97.6927C234 100.281 232.947 102.754 231.088 104.57C229.23 106.384 226.721 107.395 224.114 107.395H216.321C215.224 107.395 214.334 106.505 214.334 105.407C214.334 104.31 215.224 103.42 216.321 103.42H224.114C225.697 103.42 227.205 102.806 228.31 101.726C229.414 100.648 230.025 99.1964 230.025 97.6927V89.6587C230.025 88.5611 230.915 87.6713 232.012 87.6713Z" fill="white"/>
</g>
</g>
<defs>
<filter id="filter0_f_1409_5581" x="222.871" y="-45.5139" width="293.715" height="293.714" filterUnits="userSpaceOnUse" color-interpolation-filters="sRGB">
<feFlood flood-opacity="0" result="BackgroundImageFix"/>
<feBlend mode="normal" in="SourceGraphic" in2="BackgroundImageFix" result="shape"/>
<feGaussianBlur stdDeviation="40" result="effect1_foregroundBlur_1409_5581"/>
</filter>
<filter id="filter1_f_1409_5581" x="-130.627" y="-217.284" width="398.627" height="398.627" filterUnits="userSpaceOnUse" color-interpolation-filters="sRGB">
<feFlood flood-opacity="0" result="BackgroundImageFix"/>
<feBlend mode="normal" in="SourceGraphic" in2="BackgroundImageFix" result="shape"/>
<feGaussianBlur stdDeviation="40" result="effect1_foregroundBlur_1409_5581"/>
</filter>
<linearGradient id="paint0_linear_1409_5581" x1="-3.64409" y1="-12.0461" x2="390.001" y2="203.919" gradientUnits="userSpaceOnUse">
<stop stop-color="#004675"/>
<stop offset="1" stop-color="#001674"/>
</linearGradient>
<linearGradient id="paint1_linear_1409_5581" x1="-37.9648" y1="100.468" x2="37.9645" y2="100.468" gradientUnits="userSpaceOnUse">
<stop stop-color="#006FBA"/>
<stop offset="0.19" stop-color="#0A4E9B"/>
<stop offset="0.38" stop-color="#113482"/>
<stop offset="0.57" stop-color="#162271"/>
<stop offset="0.77" stop-color="#191767"/>
<stop offset="1" stop-color="#1B1464"/>
</linearGradient>
<linearGradient id="paint2_linear_1409_5581" x1="48" y1="154.374" x2="132.648" y2="154.374" gradientUnits="userSpaceOnUse">
<stop stop-color="#006FBA"/>
<stop offset="0.19" stop-color="#0A4E9B"/>
<stop offset="0.38" stop-color="#113482"/>
<stop offset="0.57" stop-color="#162271"/>
<stop offset="0.77" stop-color="#191767"/>
<stop offset="1" stop-color="#1B1464"/>
</linearGradient>
<linearGradient id="paint3_linear_1409_5581" x1="126.121" y1="36.842" x2="177.995" y2="36.842" gradientUnits="userSpaceOnUse">
<stop stop-color="#006FBA"/>
<stop offset="0.19" stop-color="#0A4E9B"/>
<stop offset="0.38" stop-color="#113482"/>
<stop offset="0.57" stop-color="#162271"/>
<stop offset="0.77" stop-color="#191767"/>
<stop offset="1" stop-color="#1B1464"/>
</linearGradient>
<linearGradient id="paint4_linear_1409_5581" x1="130.023" y1="147.578" x2="202.742" y2="147.578" gradientUnits="userSpaceOnUse">
<stop stop-color="#006FBA"/>
<stop offset="0.19" stop-color="#0A4E9B"/>
<stop offset="0.38" stop-color="#113482"/>
<stop offset="0.57" stop-color="#162271"/>
<stop offset="0.77" stop-color="#191767"/>
<stop offset="1" stop-color="#1B1464"/>
</linearGradient>
<linearGradient id="paint5_linear_1409_5581" x1="331.955" y1="127.399" x2="392.999" y2="127.399" gradientUnits="userSpaceOnUse">
<stop stop-color="#006FBA"/>
<stop offset="0.19" stop-color="#0A4E9B"/>
<stop offset="0.38" stop-color="#113482"/>
<stop offset="0.57" stop-color="#162271"/>
<stop offset="0.77" stop-color="#191767"/>
<stop offset="1" stop-color="#1B1464"/>
</linearGradient>
<linearGradient id="paint6_linear_1409_5581" x1="142" y1="70.8585" x2="227.9" y2="70.8585" gradientUnits="userSpaceOnUse">
<stop stop-color="#006FBA"/>
<stop offset="0.19" stop-color="#0A4E9B"/>
<stop offset="0.38" stop-color="#113482"/>
<stop offset="0.57" stop-color="#162271"/>
<stop offset="0.77" stop-color="#191767"/>
<stop offset="1" stop-color="#1B1464"/>
</linearGradient>
<linearGradient id="paint7_linear_1409_5581" x1="250.887" y1="104.73" x2="335.534" y2="104.73" gradientUnits="userSpaceOnUse">
<stop stop-color="#006FBA"/>
<stop offset="0.19" stop-color="#0A4E9B"/>
<stop offset="0.38" stop-color="#113482"/>
<stop offset="0.57" stop-color="#162271"/>
<stop offset="0.77" stop-color="#191767"/>
<stop offset="1" stop-color="#1B1464"/>
</linearGradient>
<radialGradient id="paint8_radial_1409_5581" cx="0" cy="0" r="1" gradientUnits="userSpaceOnUse" gradientTransform="translate(313.569 26.2377) scale(3.05945 3.06188)">
<stop stop-color="#00FEFE"/>
<stop offset="0.12" stop-color="#00C3C3"/>
<stop offset="0.25" stop-color="#008F8F"/>
<stop offset="0.37" stop-color="#006363"/>
<stop offset="0.5" stop-color="#003F3F"/>
<stop offset="0.62" stop-color="#002323"/>
<stop offset="0.75" stop-color="#000F0F"/>
<stop offset="0.87" stop-color="#000303"/>
<stop offset="1"/>
</radialGradient>
<radialGradient id="paint9_radial_1409_5581" cx="0" cy="0" r="1" gradientUnits="userSpaceOnUse" gradientTransform="translate(194.45 118.829) scale(3.05945 3.06188)">
<stop stop-color="#00FEFE"/>
<stop offset="0.12" stop-color="#00C3C3"/>
<stop offset="0.25" stop-color="#008F8F"/>
<stop offset="0.37" stop-color="#006363"/>
<stop offset="0.5" stop-color="#003F3F"/>
<stop offset="0.62" stop-color="#002323"/>
<stop offset="0.75" stop-color="#000F0F"/>
<stop offset="0.87" stop-color="#000303"/>
<stop offset="1"/>
</radialGradient>
<radialGradient id="paint10_radial_1409_5581" cx="0" cy="0" r="1" gradientUnits="userSpaceOnUse" gradientTransform="translate(155.766 13.7499) scale(3.05945 3.06188)">
<stop stop-color="#00FEFE"/>
<stop offset="0.12" stop-color="#00C3C3"/>
<stop offset="0.25" stop-color="#008F8F"/>
<stop offset="0.37" stop-color="#006363"/>
<stop offset="0.5" stop-color="#003F3F"/>
<stop offset="0.62" stop-color="#002323"/>
<stop offset="0.75" stop-color="#000F0F"/>
<stop offset="0.87" stop-color="#000303"/>
<stop offset="1"/>
</radialGradient>
<linearGradient id="paint11_linear_1409_5581" x1="264.885" y1="187.13" x2="345.552" y2="96.8971" gradientUnits="userSpaceOnUse">
<stop stop-color="#011A7C"/>
<stop offset="1" stop-color="#00B7FF"/>
</linearGradient>
<linearGradient id="paint12_linear_1409_5581" x1="322.833" y1="175.872" x2="251.421" y2="103.373" gradientUnits="userSpaceOnUse">
<stop stop-color="#9345FF"/>
<stop offset="1" stop-color="#00B7FF"/>
</linearGradient>
<linearGradient id="paint13_linear_1409_5581" x1="344.951" y1="71.4935" x2="297.247" y2="23.0631" gradientUnits="userSpaceOnUse">
<stop offset="0.02" stop-color="#0020AA"/>
<stop offset="1" stop-color="#00B7FF"/>
</linearGradient>
<linearGradient id="paint14_linear_1409_5581" x1="308.638" y1="22.6061" x2="357.044" y2="71.7496" gradientUnits="userSpaceOnUse">
<stop stop-color="#9345FF"/>
<stop offset="1" stop-color="#00B7FF"/>
</linearGradient>
<linearGradient id="paint15_linear_1409_5581" x1="336.795" y1="57.5541" x2="309.531" y2="23.7849" gradientUnits="userSpaceOnUse">
<stop stop-color="#9345FF"/>
<stop offset="1" stop-color="#00B7FF"/>
</linearGradient>
<linearGradient id="paint16_linear_1409_5581" x1="297.728" y1="58.7945" x2="334.697" y2="31.9832" gradientUnits="userSpaceOnUse">
<stop stop-color="#002C55"/>
<stop offset="1" stop-color="#FF2600"/>
</linearGradient>
<linearGradient id="paint17_linear_1409_5581" x1="242.145" y1="31.7764" x2="304.592" y2="137.16" gradientUnits="userSpaceOnUse">
<stop stop-color="#9345FF"/>
<stop offset="1" stop-color="#00B7FF"/>
</linearGradient>
<linearGradient id="paint18_linear_1409_5581" x1="254.88" y1="34.1935" x2="292.153" y2="138.535" gradientUnits="userSpaceOnUse">
<stop offset="0.02" stop-color="#0020AA"/>
<stop offset="1" stop-color="#00B7FF"/>
</linearGradient>
<linearGradient id="paint19_linear_1409_5581" x1="316.236" y1="132.792" x2="257.123" y2="15.069" gradientUnits="userSpaceOnUse">
<stop stop-color="#9345FF"/>
<stop offset="1" stop-color="#00B7FF"/>
</linearGradient>
<linearGradient id="paint20_linear_1409_5581" x1="297.443" y1="70.4648" x2="298.443" y2="70.4648" gradientUnits="userSpaceOnUse">
<stop stop-color="#002C55"/>
<stop offset="1" stop-color="#00B7FF"/>
</linearGradient>
<linearGradient id="paint21_linear_1409_5581" x1="303.851" y1="77.1848" x2="269.165" y2="41.9764" gradientUnits="userSpaceOnUse">
<stop stop-color="#9345FF"/>
<stop offset="1" stop-color="#00B7FF"/>
</linearGradient>
<linearGradient id="paint22_linear_1409_5581" x1="282.124" y1="75.9735" x2="259.107" y2="47.8371" gradientUnits="userSpaceOnUse">
<stop stop-color="#9345FF"/>
<stop offset="1" stop-color="#00B7FF"/>
</linearGradient>
<linearGradient id="paint23_linear_1409_5581" x1="263.713" y1="102.981" x2="276.689" y2="76.1778" gradientUnits="userSpaceOnUse">
<stop stop-color="#002C55" stop-opacity="0"/>
<stop offset="1" stop-color="#FF2600"/>
</linearGradient>
<radialGradient id="paint24_radial_1409_5581" cx="0" cy="0" r="1" gradientUnits="userSpaceOnUse" gradientTransform="translate(213.436 61.6405) scale(3.05945 3.06188)">
<stop stop-color="#00FEFE"/>
<stop offset="0.12" stop-color="#00C3C3"/>
<stop offset="0.25" stop-color="#008F8F"/>
<stop offset="0.37" stop-color="#006363"/>
<stop offset="0.5" stop-color="#003F3F"/>
<stop offset="0.62" stop-color="#002323"/>
<stop offset="0.75" stop-color="#000F0F"/>
<stop offset="0.87" stop-color="#000303"/>
<stop offset="1"/>
</radialGradient>
<radialGradient id="paint25_radial_1409_5581" cx="0" cy="0" r="1" gradientUnits="userSpaceOnUse" gradientTransform="translate(26.186 54.4222) scale(2.78561 2.77623)">
<stop stop-color="#00FEFE"/>
<stop offset="0.12" stop-color="#00C3C3"/>
<stop offset="0.25" stop-color="#008F8F"/>
<stop offset="0.37" stop-color="#006363"/>
<stop offset="0.5" stop-color="#003F3F"/>
<stop offset="0.62" stop-color="#002323"/>
<stop offset="0.75" stop-color="#000F0F"/>
<stop offset="0.87" stop-color="#000303"/>
<stop offset="1"/>
</radialGradient>
<radialGradient id="paint26_radial_1409_5581" cx="0" cy="0" r="1" gradientUnits="userSpaceOnUse" gradientTransform="translate(31.7563 140.722) scale(2.78561 2.77623)">
<stop stop-color="#00FEFE"/>
<stop offset="0.12" stop-color="#00C3C3"/>
<stop offset="0.25" stop-color="#008F8F"/>
<stop offset="0.37" stop-color="#006363"/>
<stop offset="0.5" stop-color="#003F3F"/>
<stop offset="0.62" stop-color="#002323"/>
<stop offset="0.75" stop-color="#000F0F"/>
<stop offset="0.87" stop-color="#000303"/>
<stop offset="1"/>
</radialGradient>
<linearGradient id="paint27_linear_1409_5581" x1="87.7222" y1="165.217" x2="123.58" y2="84.2353" gradientUnits="userSpaceOnUse">
<stop stop-color="#011D7E"/>
<stop offset="1" stop-color="#00B7FF"/>
</linearGradient>
<linearGradient id="paint28_linear_1409_5581" x1="120.567" y1="158.315" x2="53.7509" y2="90.7639" gradientUnits="userSpaceOnUse">
<stop stop-color="#9345FF"/>
<stop offset="1" stop-color="#00B7FF"/>
</linearGradient>
<linearGradient id="paint29_linear_1409_5581" x1="74.7969" y1="126.144" x2="74.7969" y2="71.637" gradientUnits="userSpaceOnUse">
<stop stop-color="#29ABE2"/>
<stop offset="0.27" stop-color="#20BCE8"/>
<stop offset="0.8" stop-color="#09EBF8"/>
<stop offset="1" stop-color="#00FFFF"/>
</linearGradient>
<linearGradient id="paint30_linear_1409_5581" x1="144.783" y1="60.8291" x2="12.8836" y2="62.5201" gradientUnits="userSpaceOnUse">
<stop stop-color="#9345FF"/>
<stop offset="1" stop-color="#00B7FF"/>
</linearGradient>
<linearGradient id="paint31_linear_1409_5581" x1="31.1958" y1="53.2316" x2="148.651" y2="74.5368" gradientUnits="userSpaceOnUse">
<stop offset="0.02" stop-color="#0020AA"/>
<stop offset="1" stop-color="#00B7FF"/>
</linearGradient>
<linearGradient id="paint32_linear_1409_5581" x1="10.7017" y1="75.3161" x2="152.354" y2="83.3835" gradientUnits="userSpaceOnUse">
<stop stop-color="#9345FF"/>
<stop offset="1" stop-color="#00B7FF"/>
</linearGradient>
<linearGradient id="paint33_linear_1409_5581" x1="78.9708" y1="91.42" x2="78.434" y2="92.3497" gradientUnits="userSpaceOnUse">
<stop stop-color="#002C55"/>
<stop offset="1" stop-color="#00B7FF"/>
</linearGradient>
<linearGradient id="paint34_linear_1409_5581" x1="69.2604" y1="93.7588" x2="120.707" y2="80.2926" gradientUnits="userSpaceOnUse">
<stop stop-color="#9345FF"/>
<stop offset="1" stop-color="#00B7FF"/>
</linearGradient>
<linearGradient id="paint35_linear_1409_5581" x1="103.092" y1="82.5423" x2="85.1136" y2="55.9801" gradientUnits="userSpaceOnUse">
<stop stop-color="#002C55" stop-opacity="0"/>
<stop offset="1" stop-color="#FF2600"/>
</linearGradient>
<linearGradient id="paint36_linear_1409_5581" x1="240.255" y1="9.36119" x2="139.689" y2="23.7382" gradientUnits="userSpaceOnUse">
<stop stop-color="#56FED8"/>
<stop offset="1" stop-color="#2B6FFE"/>
</linearGradient>
<clipPath id="clip0_1409_5581">
<rect width="393" height="140" fill="white"/>
</clipPath>
<clipPath id="clip1_1409_5581">
<rect width="143" height="173" fill="white" transform="translate(206 14)"/>
</clipPath>
<clipPath id="clip2_1409_5581">
<rect width="77.7833" height="44.7032" fill="white" transform="translate(39.1523 88.7041)"/>
</clipPath>
<clipPath id="clip3_1409_5581">
<rect width="99" height="77" fill="white" transform="translate(25.2949 55.9998)"/>
</clipPath>
<clipPath id="clip4_1409_5581">
<rect width="47.8197" height="26.995" fill="white" transform="translate(56.5547 46.1667)"/>
</clipPath>
</defs>
</svg>
