<?xml version="1.0" encoding="UTF-8" standalone="no"?> <svg id="Gradient" xmlns="http://www.w3.org/2000/svg" xmlns:xlink="http://www.w3.org/1999/xlink" viewBox="0 0 64 64"><defs><linearGradient id="New_Gradient_Swatch_copy" x1="-0.326" y1="64.326" x2="65.392" y2="-1.392" gradientUnits="userSpaceOnUse"><stop offset="0" stop-color="#ab20ec"/><stop offset="1" stop-color="#0071fc"/></linearGradient><linearGradient id="New_Gradient_Swatch_copy-2" x1="-11.326" y1="53.326" x2="54.392" y2="-12.392" xlink:href="#New_Gradient_Swatch_copy"/><linearGradient id="New_Gradient_Swatch_copy-8" x1="12.924" y1="77.576" x2="78.642" y2="11.858" xlink:href="#New_Gradient_Swatch_copy"/><linearGradient id="New_Gradient_Swatch_copy-9" x1="5.424" y1="70.076" x2="71.142" y2="4.358" xlink:href="#New_Gradient_Swatch_copy"/><linearGradient id="New_Gradient_Swatch_copy-10" x1="10.674" y1="75.326" x2="76.392" y2="9.608" xlink:href="#New_Gradient_Swatch_copy"/><linearGradient id="New_Gradient_Swatch_copy-11" x1="1.924" y1="66.576" x2="67.642" y2="0.858" xlink:href="#New_Gradient_Swatch_copy"/><linearGradient id="New_Gradient_Swatch_copy-12" x1="-8.076" y1="56.576" x2="57.642" y2="-9.142" xlink:href="#New_Gradient_Swatch_copy"/><linearGradient id="New_Gradient_Swatch_copy-15" x1="7.674" y1="72.326" x2="73.392" y2="6.608" xlink:href="#New_Gradient_Swatch_copy"/><linearGradient id="New_Gradient_Swatch_copy-16" x1="-5.826" y1="58.826" x2="59.892" y2="-6.892" xlink:href="#New_Gradient_Swatch_copy"/><linearGradient id="New_Gradient_Swatch_copy-19" x1="-27.076" y1="37.576" x2="38.642" y2="-28.142" xlink:href="#New_Gradient_Swatch_copy"/><linearGradient id="New_Gradient_Swatch_copy-22" x1="26.424" y1="91.076" x2="92.142" y2="25.358" xlink:href="#New_Gradient_Swatch_copy"/></defs><path d="M54,55H10a1,1,0,0,1-1-1V10a1,1,0,0,1,1-1H54a1,1,0,0,1,1,1V54A1,1,0,0,1,54,55ZM11,53H53V11H11Z" style="fill:url(#New_Gradient_Swatch_copy)"/><path d="M27,28H15a1,1,0,0,1-1-1V15a1,1,0,0,1,1-1H27a1,1,0,0,1,1,1V27A1,1,0,0,1,27,28ZM16,26H26V16H16Z" style="fill:url(#New_Gradient_Swatch_copy-2)"/><path d="M23,24H19a1,1,0,0,1-1-1V19a1,1,0,0,1,1-1h4a1,1,0,0,1,1,1v4A1,1,0,0,1,23,24Zm-3-2h2V20H20Z" style="fill:url(#New_Gradient_Swatch_copy-2)"/><path d="M49,28H37a1,1,0,0,1-1-1V15a1,1,0,0,1,1-1H49a1,1,0,0,1,1,1V27A1,1,0,0,1,49,28ZM38,26H48V16H38Z" style="fill:url(#New_Gradient_Swatch_copy)"/><path d="M45,24H41a1,1,0,0,1-1-1V19a1,1,0,0,1,1-1h4a1,1,0,0,1,1,1v4A1,1,0,0,1,45,24Zm-3-2h2V20H42Z" style="fill:url(#New_Gradient_Swatch_copy)"/><path d="M27,50H15a1,1,0,0,1-1-1V37a1,1,0,0,1,1-1H27a1,1,0,0,1,1,1V49A1,1,0,0,1,27,50ZM16,48H26V38H16Z" style="fill:url(#New_Gradient_Swatch_copy)"/><path d="M23,46H19a1,1,0,0,1-1-1V41a1,1,0,0,1,1-1h4a1,1,0,0,1,1,1v4A1,1,0,0,1,23,46Zm-3-2h2V42H20Z" style="fill:url(#New_Gradient_Swatch_copy)"/><path d="M49,50H37a1,1,0,0,1-1-1V46a1,1,0,0,1,2,0v2H48V38H46a1,1,0,0,1,0-2h3a1,1,0,0,1,1,1V49A1,1,0,0,1,49,50Z" style="fill:url(#New_Gradient_Swatch_copy-8)"/><path d="M37,41a1,1,0,0,1-1-1V37a1,1,0,0,1,1-1h3a1,1,0,0,1,0,2H38v2A1,1,0,0,1,37,41Z" style="fill:url(#New_Gradient_Swatch_copy-9)"/><path d="M45,46H41a1,1,0,0,1-1-1V41a1,1,0,0,1,1-1h4a1,1,0,0,1,1,1v4A1,1,0,0,1,45,46Zm-3-2h2V42H42Z" style="fill:url(#New_Gradient_Swatch_copy-10)"/><path d="M32,50a1,1,0,0,1-1-1V24a1,1,0,0,1,2,0V49A1,1,0,0,1,32,50Z" style="fill:url(#New_Gradient_Swatch_copy-11)"/><path d="M32,19a1,1,0,0,1-1-1V15a1,1,0,0,1,2,0v3A1,1,0,0,1,32,19Z" style="fill:url(#New_Gradient_Swatch_copy-12)"/><path d="M18,33H15a1,1,0,0,1,0-2h3a1,1,0,0,1,0,2Z" style="fill:url(#New_Gradient_Swatch_copy-12)"/><path d="M49,33H24a1,1,0,0,1,0-2H49a1,1,0,0,1,0,2Z" style="fill:url(#New_Gradient_Swatch_copy-11)"/><circle cx="43" cy="37" r="1" style="fill:url(#New_Gradient_Swatch_copy-15)"/><circle cx="32" cy="21" r="1" style="fill:url(#New_Gradient_Swatch_copy-16)"/><circle cx="21" cy="32" r="1" style="fill:url(#New_Gradient_Swatch_copy-16)"/><circle cx="37" cy="43" r="1" style="fill:url(#New_Gradient_Swatch_copy-15)"/><path d="M6,12H2a1,1,0,0,1-1-1V2A1,1,0,0,1,2,1h9a1,1,0,0,1,1,1V6a1,1,0,0,1-1,1H7v4A1,1,0,0,1,6,12ZM3,10H5V6A1,1,0,0,1,6,5h4V3H3Z" style="fill:url(#New_Gradient_Swatch_copy-19)"/><path d="M62,12H58a1,1,0,0,1-1-1V7H53a1,1,0,0,1-1-1V2a1,1,0,0,1,1-1h9a1,1,0,0,1,1,1v9A1,1,0,0,1,62,12Zm-3-2h2V3H54V5h4a1,1,0,0,1,1,1Z" style="fill:url(#New_Gradient_Swatch_copy)"/><path d="M11,63H2a1,1,0,0,1-1-1V53a1,1,0,0,1,1-1H6a1,1,0,0,1,1,1v4h4a1,1,0,0,1,1,1v4A1,1,0,0,1,11,63ZM3,61h7V59H6a1,1,0,0,1-1-1V54H3Z" style="fill:url(#New_Gradient_Swatch_copy)"/><path d="M62,63H53a1,1,0,0,1-1-1V58a1,1,0,0,1,1-1h4V53a1,1,0,0,1,1-1h4a1,1,0,0,1,1,1v9A1,1,0,0,1,62,63Zm-8-2h7V54H59v4a1,1,0,0,1-1,1H54Z" style="fill:url(#New_Gradient_Swatch_copy-22)"/></svg>