<svg width="30" height="18" viewBox="0 0 30 18" fill="none" xmlns="http://www.w3.org/2000/svg">
<path d="M0.765787 5.22592C0.255262 6.27772 0 7.59363 0 9.18107C0 10.7685 0.294703 12.1894 0.884268 13.4436C1.47383 14.6977 2.28206 15.6872 3.30894 16.4123C4.33583 17.1374 5.50502 17.4998 6.81683 17.4998C7.64146 17.5029 8.38343 17.3877 9.04288 17.1541C9.70234 16.9206 10.305 16.6312 10.8507 16.286C11.3964 15.9407 11.903 15.5953 12.3708 15.2498C12.8385 14.9042 13.2858 14.6155 13.7127 14.3834C14.1395 14.1515 14.5686 14.0354 15.0001 14.0354C15.4315 14.0354 15.8607 14.1513 16.2874 14.3834C16.7142 14.6155 17.1614 14.9034 17.6292 15.2475C18.1244 15.6102 18.6314 15.9558 19.1493 16.2837C19.6948 16.6304 20.2975 16.9198 20.9569 17.1519C21.6164 17.384 22.3563 17.5 23.177 17.5C24.4896 17.5 25.6602 17.1374 26.6886 16.4125C27.7171 15.6876 28.526 14.6981 29.1155 13.4438C29.7051 12.1895 30 10.7687 30 9.18123C30.0039 7.60039 29.7496 6.28303 29.237 5.22914C28.7246 4.17525 28.0064 3.33237 27.0829 2.70048C26.1593 2.06876 25.0724 1.59477 23.8214 1.27851C22.5705 0.962243 21.1977 0.753494 19.7022 0.652096C18.2068 0.550699 16.6399 0.5 14.9997 0.5C13.3596 0.5 11.7922 0.549733 10.2971 0.649038C8.80182 0.748343 7.4288 0.956127 6.17789 1.27239C4.92729 1.58849 3.84014 2.06361 2.91659 2.69743C1.99288 3.33124 1.27584 4.17413 0.765472 5.22608L0.765787 5.22592ZM2.75503 12.3881C2.37624 11.4776 2.18693 10.4086 2.18693 9.18123C2.18693 7.7026 2.47674 6.53089 3.05621 5.66628C3.63567 4.80166 4.4775 4.159 5.58138 3.73828C6.68541 3.31756 8.02909 3.04427 9.61257 2.91825C11.196 2.79223 12.9917 2.72929 14.9996 2.72929C17.0074 2.72929 18.8026 2.79223 20.3855 2.91825C21.9683 3.04427 23.312 3.31756 24.4167 3.73828C25.5213 4.159 26.3635 4.80166 26.943 5.66628C27.5224 6.53089 27.8122 7.7026 27.8122 9.18123C27.8122 10.4086 27.6229 11.4776 27.2441 12.3881C26.8655 13.2986 26.3319 14.0039 25.6436 14.5041C24.9553 15.0043 24.1423 15.2544 23.2044 15.2544C22.497 15.2575 21.8671 15.1423 21.3144 14.9087C20.7693 14.6793 20.2509 14.3884 19.7691 14.0415C19.2914 13.6971 18.817 13.354 18.3461 13.0124C17.8751 12.6709 17.37 12.383 16.83 12.149C16.2899 11.9149 15.683 11.7979 14.9997 11.7979C14.3165 11.7979 13.7058 11.9149 13.1679 12.149C12.6347 12.3805 12.1274 12.67 11.655 13.0124C11.1844 13.354 10.71 13.697 10.2323 14.0415C9.75455 14.386 9.23914 14.6742 8.68586 14.9063C8.13258 15.1384 7.50026 15.2544 6.78891 15.2544C5.85494 15.2544 5.04403 15.0043 4.35571 14.5041C3.66738 14.0039 3.13399 13.2986 2.75519 12.3881H2.75503Z" fill="white"/>
</svg>
