<svg width="30" height="30" viewBox="0 0 30 30" fill="none" xmlns="http://www.w3.org/2000/svg">
<path d="M6.95703 10.9379V19.5393C6.95703 19.9043 7.15131 20.2457 7.46334 20.4341L14.5222 24.6965C14.8578 24.8967 15.2699 24.8967 15.6055 24.6965L22.6644 20.4341C22.9764 20.2457 23.1707 19.9043 23.1707 19.5393V10.9379C23.1707 10.5729 22.9764 10.2314 22.6644 10.043L15.6055 5.78062C15.2699 5.58045 14.8578 5.58045 14.5222 5.78062L7.46334 10.043C7.15131 10.2314 6.95703 10.5729 6.95703 10.9379Z" stroke="white" stroke-width="2" stroke-linejoin="round"/>
<path d="M7.01758 10.5844L15.0714 15.2354L23.1782 10.449" stroke="white" stroke-width="2" stroke-linejoin="round"/>
<path d="M15.0703 15.2354V24.8434" stroke="white" stroke-width="2" stroke-linejoin="round"/>
<path d="M29 15C29 22.73 22.7359 29 15 29C7.26409 29 1 22.7359 1 15C1 7.26409 7.26409 1 15 1C19.8335 1 24.09 3.44912 26.6039 7.1699C27.0101 7.7704 27.3693 8.40623 27.6813 9.06561L28.0404 5.29185" stroke="white" stroke-width="1.8" stroke-linecap="round" stroke-linejoin="round"/>
<path d="M27.6863 9.07161L24.2305 7.84705" stroke="white" stroke-width="1.99" stroke-linecap="round" stroke-linejoin="round"/>
</svg>
