<svg width="198" height="196" viewBox="0 0 198 196" fill="none" xmlns="http://www.w3.org/2000/svg">
<path fill-rule="evenodd" clip-rule="evenodd" d="M0 13.047C0 5.84135 5.84136 0 13.047 0H78.2822C85.4879 0 91.3293 5.84136 91.3293 13.047V78.2822C91.3293 85.4879 85.4879 91.3293 78.2822 91.3293H13.047C5.84135 91.3293 0 85.4879 0 78.2822V13.047ZM78.2822 13.047L13.047 13.047V78.2822H78.2822V13.047Z" fill="#AF52DE"/>
<path fill-rule="evenodd" clip-rule="evenodd" d="M0 117.348C0 110.143 5.84136 104.301 13.047 104.301H78.2822C85.4879 104.301 91.3293 110.143 91.3293 117.348V182.583C91.3293 189.789 85.4879 195.631 78.2822 195.631H13.047C5.84135 195.631 0 189.789 0 182.583V117.348ZM78.2822 117.348L13.047 117.348V182.583H78.2822V117.348Z" fill="#AF52DE"/>
<rect x="112.801" y="110.826" width="26.1042" height="26.1042" rx="4" fill="#AF52DE"/>
<rect x="31.4395" y="135.743" width="28.4438" height="28.4438" fill="#AF52DE"/>
<rect x="31.4395" y="31.4419" width="28.4438" height="28.4438" fill="#AF52DE"/>
<rect x="137.799" y="31.4419" width="28.4438" height="28.4438" fill="#AF52DE"/>
<rect x="112.801" y="163.406" width="26.1042" height="26.1042" rx="4" fill="#AF52DE"/>
<rect x="165.023" y="110.826" width="26.1042" height="26.1042" rx="4" fill="#AF52DE"/>
<rect x="164.885" y="163.406" width="26.3581" height="25.7452" rx="4" fill="#AF52DE"/>
<rect x="138.779" y="137.116" width="26.1042" height="26.1042" rx="4" fill="#AF52DE"/>
<path fill-rule="evenodd" clip-rule="evenodd" d="M106.348 13.0487C106.348 5.84306 112.189 0.00170898 119.395 0.00170898H184.63C191.836 0.00170898 197.677 5.84307 197.677 13.0487V78.2839C197.677 85.4896 191.836 91.331 184.63 91.331H119.395C112.189 91.331 106.348 85.4896 106.348 78.2839V13.0487ZM184.63 13.0487L119.395 13.0487V78.2839H184.63V13.0487Z" fill="#AF52DE"/>
</svg>
