<svg width="33" height="32" viewBox="0 0 33 32" fill="none" xmlns="http://www.w3.org/2000/svg">
<path d="M1.92578 7.8816V24.1238C1.92578 24.7917 2.29978 25.4061 2.89818 25.7053L16.1003 30.8077C16.6079 31.0641 17.2063 31.0641 17.7085 30.8077L30.9106 25.7053C31.509 25.4007 31.883 24.7917 31.883 24.1238V7.8816C31.883 7.21374 31.509 6.59932 30.9106 6.30012L17.7085 1.19771C17.2009 0.941257 16.6025 0.941257 16.1003 1.19771L2.89818 6.30012C2.29978 6.60466 1.92578 7.21374 1.92578 7.8816Z" stroke="#949494" stroke-width="2" stroke-linejoin="round"/>
<path d="M16.9024 1.00012V19.0749L31.5738 25.123L16.9024 19.0749L2.23633 25.123" stroke="#949494" stroke-width="2" stroke-linejoin="round"/>
<path d="M7.2207 23.0659V14.2877L11.9224 12.3375V20.8219" stroke="#949494" stroke-width="2" stroke-linejoin="round"/>
</svg>
