<svg width="34" height="34" viewBox="0 0 34 34" fill="none" xmlns="http://www.w3.org/2000/svg">
<path d="M25.5 11.3333C27.8472 11.3333 29.75 9.43046 29.75 7.08325C29.75 4.73604 27.8472 2.83325 25.5 2.83325C23.1528 2.83325 21.25 4.73604 21.25 7.08325C21.25 9.43046 23.1528 11.3333 25.5 11.3333Z" stroke="white" stroke-width="2" stroke-linecap="round" stroke-linejoin="round"/>
<path d="M8.5 21.25C10.8472 21.25 12.75 19.3472 12.75 17C12.75 14.6528 10.8472 12.75 8.5 12.75C6.15279 12.75 4.25 14.6528 4.25 17C4.25 19.3472 6.15279 21.25 8.5 21.25Z" stroke="white" stroke-width="2" stroke-linecap="round" stroke-linejoin="round"/>
<path d="M25.5 31.1667C27.8472 31.1667 29.75 29.264 29.75 26.9167C29.75 24.5695 27.8472 22.6667 25.5 22.6667C23.1528 22.6667 21.25 24.5695 21.25 26.9167C21.25 29.264 23.1528 31.1667 25.5 31.1667Z" stroke="white" stroke-width="2" stroke-linecap="round" stroke-linejoin="round"/>
<path d="M12.1699 19.1392L21.8458 24.7775" stroke="white" stroke-width="2" stroke-linecap="round" stroke-linejoin="round"/>
<path d="M21.8316 9.22241L12.1699 14.8607" stroke="white" stroke-width="2" stroke-linecap="round" stroke-linejoin="round"/>
</svg>
