<svg width="40" height="28" viewBox="0 0 40 28" fill="none" xmlns="http://www.w3.org/2000/svg">
<path d="M20.093 19.2628C25.0901 19.2628 29.1411 15.2118 29.1411 10.2147C29.1411 5.2175 25.0901 1.1665 20.093 1.1665C15.0959 1.1665 11.0449 5.2175 11.0449 10.2147C11.0449 15.2118 15.0959 19.2628 20.093 19.2628Z" stroke="#949494" stroke-width="2" stroke-linejoin="round"/>
<path d="M27 16.1289H34.3067C34.5917 16.1289 34.9063 16.3367 35.0132 16.592L38.8604 26.0736C39.0267 26.4892 38.8664 26.8335 38.4983 26.8335H1.81311C1.44502 26.8335 1.27878 26.4892 1.45095 26.0736L5.29817 16.592C5.40504 16.3367 5.71971 16.1289 6.00469 16.1289H13" stroke="#949494" stroke-width="2" stroke-linecap="round" stroke-linejoin="round"/>
<path d="M7.87518 11.8768C8.29488 11.8768 8.63512 11.5366 8.63512 11.1169C8.63512 10.6972 8.29488 10.3569 7.87518 10.3569C7.45547 10.3569 7.11523 10.6972 7.11523 11.1169C7.11523 11.5366 7.45547 11.8768 7.87518 11.8768Z" fill="#949494"/>
<path d="M13.5041 11.8768C13.9238 11.8768 14.264 11.5366 14.264 11.1169C14.264 10.6972 13.9238 10.3569 13.5041 10.3569C13.0844 10.3569 12.7441 10.6972 12.7441 11.1169C12.7441 11.5366 13.0844 11.8768 13.5041 11.8768Z" fill="#949494"/>
<path d="M16.8576 11.8768C17.2773 11.8768 17.6175 11.5366 17.6175 11.1169C17.6175 10.6972 17.2773 10.3569 16.8576 10.3569C16.4379 10.3569 16.0977 10.6972 16.0977 11.1169C16.0977 11.5366 16.4379 11.8768 16.8576 11.8768Z" fill="#949494"/>
<path d="M20.2131 11.8768C20.6328 11.8768 20.973 11.5366 20.973 11.1169C20.973 10.6972 20.6328 10.3569 20.2131 10.3569C19.7934 10.3569 19.4531 10.6972 19.4531 11.1169C19.4531 11.5366 19.7934 11.8768 20.2131 11.8768Z" fill="#949494"/>
<path d="M23.5666 11.8768C23.9863 11.8768 24.3265 11.5366 24.3265 11.1169C24.3265 10.6972 23.9863 10.3569 23.5666 10.3569C23.1469 10.3569 22.8066 10.6972 22.8066 11.1169C22.8066 11.5366 23.1469 11.8768 23.5666 11.8768Z" fill="#949494"/>
<path d="M26.9201 11.8768C27.3398 11.8768 27.68 11.5366 27.68 11.1169C27.68 10.6972 27.3398 10.3569 26.9201 10.3569C26.5004 10.3569 26.1602 10.6972 26.1602 11.1169C26.1602 11.5366 26.5004 11.8768 26.9201 11.8768Z" fill="#949494"/>
<path d="M32.549 11.8768C32.9687 11.8768 33.309 11.5366 33.309 11.1169C33.309 10.6972 32.9687 10.3569 32.549 10.3569C32.1293 10.3569 31.7891 10.6972 31.7891 11.1169C31.7891 11.5366 32.1293 11.8768 32.549 11.8768Z" fill="#949494"/>
</svg>
