<svg width="393" height="140" viewBox="0 0 393 140" fill="none" xmlns="http://www.w3.org/2000/svg">
<g clip-path="url(#clip0_1445_924)">
<rect y="-0.349609" width="393" height="215.384" fill="url(#paint0_linear_1445_924)"/>
<g style="mix-blend-mode:overlay" filter="url(#filter0_f_1445_924)">
<circle cx="369.728" cy="101.343" r="66.8571" fill="#4EE2E0" fill-opacity="0.5"/>
</g>
<path style="mix-blend-mode:screen" d="M34.5419 140.722C34.5419 142.254 33.2938 143.498 31.7563 143.498C30.2189 143.498 28.9707 142.254 28.9707 140.722C28.9707 139.189 30.2189 137.945 31.7563 137.945C33.2938 137.945 34.5419 139.189 34.5419 140.722Z" fill="url(#paint1_radial_1445_924)"/>
<g style="mix-blend-mode:overlay" filter="url(#filter1_f_1445_924)">
<circle cx="68.6865" cy="-17.9702" r="119.313" fill="#4EE2E0" fill-opacity="0.5"/>
</g>
<g style="mix-blend-mode:overlay" opacity="0.8" clip-path="url(#clip1_1445_924)">
<path style="mix-blend-mode:overlay" opacity="0.5" d="M114.957 177.798L135.975 165.273C135.975 165.273 209.626 162.993 237.049 150.858C284.001 130.083 301.757 119.244 301.757 119.244L449.692 134.471L446.568 263L156.281 190.649L114.953 177.802L114.957 177.798Z" fill="url(#paint2_linear_1445_924)"/>
<path style="mix-blend-mode:overlay" opacity="0.3" d="M178.396 157.392C178.396 157.392 123.85 128.343 203.249 114.458C203.249 114.458 130.413 110.944 141.685 133.053L178.396 157.392Z" fill="url(#paint3_linear_1445_924)"/>
<path d="M283.667 175.154C285.085 174.468 286.466 173.766 287.801 173.042C290.48 171.594 292.921 170.105 295.138 168.582L279.441 159.22C282.935 156.522 285.597 153.719 287.423 150.866L310.582 150.778C311.46 148.31 311.859 145.834 311.813 143.382L290.397 139.027C290.06 136.245 288.999 133.505 287.256 130.853L304.077 126.523C302.126 124.432 299.818 122.403 297.168 120.453L276.666 120.788C273.418 118.629 269.599 116.596 265.265 114.714L273.293 108.276C272.037 107.82 270.756 107.376 269.441 106.941C266.808 106.067 264.113 105.255 261.376 104.502L245.762 108.296C240.591 107.029 235.217 105.987 229.719 105.188L228.841 98.3987C224.17 97.8758 219.432 97.4826 214.678 97.2148L206.043 103.151C200.224 102.975 194.359 103.025 188.544 103.31L179.506 97.5286C174.756 97.88 170.035 98.3569 165.372 98.9677L164.936 105.786C159.47 106.69 154.133 107.832 149.005 109.204L133.008 105.686C131.648 106.092 130.3 106.51 128.969 106.941C126.261 107.82 123.674 108.744 121.203 109.702L129.747 116.019C125.496 117.989 121.769 120.106 118.616 122.348L97.8106 122.419C95.2525 124.436 93.0439 126.527 91.1971 128.678L108.563 132.689C106.97 135.392 106.067 138.178 105.905 140.985L84.4297 145.838C84.5462 148.31 85.116 150.795 86.1808 153.267L109.719 152.836C111.753 155.66 114.635 158.417 118.358 161.057L103.064 170.846C104.237 171.586 105.468 172.314 106.753 173.038C109.37 174.502 112.165 175.887 115.118 177.192L138.086 170.821C143.98 172.895 150.402 174.64 157.228 176.008L155.415 188.554C161.791 189.595 168.371 190.39 175.076 190.93L188.079 179.58C195.869 179.898 203.735 179.802 211.496 179.296L225.189 190.294C231.815 189.583 238.3 188.629 244.564 187.428L241.947 174.975C248.611 173.452 254.862 171.569 260.569 169.361L283.662 175.146L283.667 175.154ZM154.957 153.46C133.981 143.432 137.991 128.636 161.084 120.307C182.692 112.513 215.394 112.513 236.549 120.307C259.159 128.636 262.304 143.432 240.745 153.46C217.494 164.278 177.576 164.278 154.953 153.46H154.957Z" fill="#03476D"/>
<path d="M287.248 133.367L288.026 151.084L310.387 150.858L310.408 133.279L287.248 133.367Z" fill="url(#paint4_linear_1445_924)"/>
<path d="M311.639 125.883L311.814 143.378C311.814 143.378 311.976 147.369 310.383 150.853L310.408 133.275L311.639 125.879V125.883Z" fill="#03213D"/>
<path d="M287.248 133.367L288.025 151.084L282.855 157.392L279.266 141.721C279.266 141.721 282.635 139.822 287.248 133.367Z" fill="#022251"/>
<path d="M109.553 135.342V155.961L118.233 154.614L118.192 143.566C118.192 143.566 111.57 139.563 109.553 135.346V135.342Z" fill="url(#paint5_linear_1445_924)"/>
<path d="M86.0156 135.772L86.1903 153.271L109.554 152.74V135.342L86.0156 135.772Z" fill="url(#paint6_linear_1445_924)"/>
<path d="M84.2637 128.343L84.4384 145.837C84.4384 145.837 84.272 148.456 86.1895 153.267L86.0148 135.772L84.2637 128.343Z" fill="#00FFFF"/>
<path d="M91.0312 111.183V127.301L106.5 124.607L109.012 114.99L91.0312 111.183Z" fill="url(#paint7_linear_1445_924)"/>
<path d="M121.029 92.2031V104.193H130.413V98.52L121.029 92.2031Z" fill="url(#paint8_linear_1445_924)"/>
<path d="M145.279 129.589C145.279 129.589 157.628 115.362 195.775 114.458C237.307 113.475 251.178 128.87 251.178 128.87C251.178 128.87 256.956 124.808 255.155 115.061C253.354 105.309 221.596 93.3493 196.311 94.9139C171.026 96.4784 125.185 109.376 145.279 129.594V129.589Z" fill="url(#paint9_linear_1445_924)"/>
<path d="M303.903 109.024V126.577H289.316L287.082 113.354L303.903 109.024Z" fill="url(#paint10_linear_1445_924)"/>
<path d="M273.123 90.7808V103.875L265.257 105.619L264.205 98.1978L273.123 90.7808Z" fill="#022251"/>
<path d="M283.493 157.655C284.911 156.969 286.292 156.267 287.627 155.543C290.306 154.095 292.747 152.606 294.964 151.083L279.267 141.721C282.761 139.023 285.423 136.22 287.249 133.367L310.408 133.279C311.286 130.811 311.685 128.334 311.64 125.883L290.223 121.528C289.886 118.746 288.825 116.006 287.082 113.354L303.903 109.024C301.952 106.933 299.644 104.904 296.994 102.954L276.492 103.289C273.244 101.13 269.426 99.0972 265.091 97.2147L273.119 90.7765C271.863 90.3206 270.582 89.8771 269.267 89.4421C266.635 88.5677 263.939 87.7562 261.202 87.0032L245.588 90.7975C240.418 89.5299 235.044 88.4883 229.545 87.6892L228.667 80.8997C223.996 80.3768 219.259 79.9836 214.504 79.7158L205.869 85.652C200.05 85.4763 194.186 85.5265 188.371 85.8109L179.332 80.0296C174.582 80.381 169.861 80.8579 165.198 81.4686L164.762 88.2875C159.296 89.1911 153.96 90.3331 148.831 91.7052L132.834 88.1871C131.474 88.5928 130.126 89.0112 128.795 89.4421C126.087 90.3206 123.5 91.2451 121.029 92.203L129.573 98.5199C125.322 100.49 121.595 102.607 118.442 104.849L97.6368 104.92C95.0787 106.937 92.87 109.028 91.0233 111.179L108.389 115.19C106.796 117.893 105.893 120.679 105.731 123.486L84.2559 128.339C84.3723 130.811 84.9422 133.296 86.007 135.768L109.545 135.337C111.579 138.161 114.462 140.918 118.184 143.558L102.89 153.347C104.063 154.087 105.294 154.815 106.58 155.539C109.196 157.003 111.991 158.388 114.944 159.693L137.913 153.322C143.806 155.396 150.229 157.141 157.054 158.509L155.241 171.055C161.617 172.096 168.197 172.891 174.902 173.431L187.905 162.081C195.695 162.399 203.561 162.303 211.322 161.797L225.015 172.795C231.641 172.084 238.126 171.13 244.39 169.929L241.774 157.476C248.437 155.953 254.689 154.07 260.395 151.862L283.489 157.647L283.493 157.655ZM154.783 135.961C133.807 125.933 137.817 111.137 160.91 102.808C182.518 95.0143 215.22 95.0143 236.375 102.808C258.985 111.137 262.13 125.933 240.572 135.961C217.32 146.779 177.402 146.779 154.779 135.961H154.783Z" fill="url(#paint11_linear_1445_924)"/>
<path d="M256.394 119.788C256.252 116.278 254.385 112.777 251.003 109.66C247.634 106.56 242.855 103.854 236.807 101.628C226.442 97.8088 212.948 95.7046 198.815 95.7046C184.681 95.7046 171.075 97.8046 160.49 101.624C147.745 106.221 140.229 113.015 139.867 120.257C139.713 123.39 140.869 126.431 143.307 129.297C145.744 132.162 149.425 134.785 154.242 137.09C165.186 142.324 180.929 145.323 197.438 145.323C213.947 145.323 229.852 142.324 241.095 137.094C251.219 132.384 256.652 126.235 256.389 119.784L256.394 119.788ZM240.18 136.743C229.178 141.859 213.61 144.796 197.459 144.796C181.308 144.796 165.897 141.859 155.19 136.739C150.474 134.484 146.872 131.92 144.488 129.113C142.101 126.306 140.969 123.331 141.119 120.265C141.468 113.174 148.826 106.527 161.296 102.03C171.653 98.2941 184.972 96.2359 198.798 96.2359C212.624 96.2359 225.83 98.2941 235.975 102.03C241.894 104.209 246.569 106.857 249.867 109.89C253.178 112.936 255 116.362 255.142 119.801C255.4 126.113 250.084 132.133 240.176 136.739L240.18 136.743Z" fill="url(#paint12_linear_1445_924)"/>
<path d="M287.249 133.367L310.408 133.279C311.286 130.811 311.685 128.334 311.64 125.883L290.223 121.528C289.886 118.746 288.825 116.006 287.082 113.354L303.903 109.024C301.952 106.933 299.644 104.904 296.994 102.954L276.492 103.289C273.244 101.13 269.426 99.0972 265.091 97.2147L273.119 90.7765C271.863 90.3206 270.582 89.8771 269.267 89.4421C266.635 88.5677 263.939 87.7562 261.202 87.0032L245.588 90.7975C240.418 89.5299 235.044 88.4883 229.545 87.6892L228.667 80.8997C223.996 80.3768 219.259 79.9836 214.504 79.7158L205.869 85.652C203.627 85.585 201.377 85.5516 199.127 85.5516C195.537 85.5516 191.944 85.6394 188.371 85.8109L179.332 80.0296C174.582 80.381 169.861 80.8579 165.198 81.4686L164.762 88.2875C159.296 89.1911 153.96 90.3331 148.831 91.7052L132.834 88.1871C131.474 88.5928 130.126 89.0112 128.795 89.4421C126.087 90.3206 123.5 91.2451 121.029 92.203L129.573 98.5199C125.322 100.49 121.595 102.607 118.442 104.849L97.6368 104.92C95.0787 106.937 92.87 109.028 91.0233 111.179L108.389 115.19C106.796 117.893 105.893 120.679 105.731 123.486L84.2559 128.339C84.3723 130.811 84.9422 133.296 86.007 135.768L109.545 135.337C111.579 138.161 114.462 140.918 118.184 143.558L102.89 153.347C104.063 154.087 105.294 154.815 106.58 155.539C109.196 157.003 111.991 158.388 114.944 159.693L137.913 153.322C143.806 155.396 150.229 157.141 157.054 158.509L155.241 171.055C161.617 172.096 168.197 172.891 174.902 173.431L187.905 162.081C190.908 162.203 193.923 162.265 196.939 162.265C201.747 162.265 206.556 162.111 211.327 161.801L225.019 172.799C231.645 172.088 238.13 171.134 244.394 169.934L241.778 157.48C248.445 155.957 254.693 154.075 260.4 151.866L283.493 157.651C284.911 156.965 286.292 156.262 287.627 155.539C290.306 154.091 292.747 152.602 294.964 151.079L279.267 141.717C282.761 139.019 285.423 136.216 287.249 133.363V133.367ZM240.576 135.961C228.95 141.37 213.157 144.072 197.442 144.072C181.728 144.072 166.093 141.37 154.783 135.961C133.807 125.933 137.817 111.137 160.91 102.808C171.716 98.9089 185.293 96.9637 198.811 96.9637C212.329 96.9637 225.797 98.9131 236.375 102.808C258.985 111.137 262.13 125.933 240.572 135.961H240.576Z" fill="url(#paint13_linear_1445_924)"/>
<path d="M287.249 133.367L310.408 133.279C311.286 130.811 311.685 128.334 311.64 125.883L290.223 121.528C289.886 118.746 288.825 116.006 287.082 113.354L303.903 109.024C301.952 106.933 299.644 104.904 296.994 102.954L276.492 103.289C273.244 101.13 269.426 99.0972 265.091 97.2147L273.119 90.7765C271.863 90.3206 270.582 89.8771 269.267 89.4421C266.635 88.5677 263.939 87.7562 261.202 87.0032L245.588 90.7975C240.418 89.5299 235.044 88.4883 229.545 87.6892L228.667 80.8997C223.996 80.3768 219.259 79.9836 214.504 79.7158L205.869 85.652C203.627 85.585 201.377 85.5516 199.127 85.5516C195.537 85.5516 191.944 85.6394 188.371 85.8109L179.332 80.0296C174.582 80.381 169.861 80.8579 165.198 81.4686L164.762 88.2875C159.296 89.1911 153.96 90.3331 148.831 91.7052L132.834 88.1871C131.474 88.5928 130.126 89.0112 128.795 89.4421C126.087 90.3206 123.5 91.2451 121.029 92.203L129.573 98.5199C125.322 100.49 121.595 102.607 118.442 104.849L97.6368 104.92C95.0787 106.937 92.87 109.028 91.0233 111.179L108.389 115.19C106.796 117.893 105.893 120.679 105.731 123.486L84.2559 128.339C84.3723 130.811 84.9422 133.296 86.007 135.768L109.545 135.337C111.579 138.161 114.462 140.918 118.184 143.558L102.89 153.347C104.063 154.087 105.294 154.815 106.58 155.539C109.196 157.003 111.991 158.388 114.944 159.693L137.913 153.322C143.806 155.396 150.229 157.141 157.054 158.509L155.241 171.055C161.617 172.096 168.197 172.891 174.902 173.431L187.905 162.081C190.908 162.203 193.923 162.265 196.939 162.265C201.747 162.265 206.556 162.111 211.327 161.801L225.019 172.799C231.645 172.088 238.13 171.134 244.394 169.934L241.778 157.48C248.445 155.957 254.693 154.075 260.4 151.866L283.493 157.651C284.911 156.965 286.292 156.262 287.627 155.539C290.306 154.091 292.747 152.602 294.964 151.079L279.267 141.717C282.761 139.019 285.423 136.216 287.249 133.363V133.367ZM278.506 140.725L277.046 141.855L278.63 142.8L292.619 151.142C290.872 152.271 289.004 153.376 287.041 154.438C285.868 155.074 284.632 155.71 283.36 156.329L260.703 150.657L260.321 150.561L259.954 150.703C254.318 152.882 248.113 154.756 241.503 156.267L240.305 156.538L240.559 157.747L242.913 168.942C237.277 169.988 231.396 170.845 225.402 171.502L212.109 160.826L211.73 160.525L211.248 160.559C206.531 160.864 201.718 161.023 196.943 161.023C193.957 161.023 190.933 160.96 187.959 160.843L187.464 160.822L187.09 161.149L174.486 172.151C168.389 171.644 162.403 170.929 156.659 170.021L158.294 158.697L158.464 157.517L157.304 157.283C150.549 155.928 144.168 154.2 138.333 152.146L137.962 152.016L137.588 152.121L115.052 158.375C112.274 157.133 109.633 155.815 107.195 154.451C106.542 154.087 105.893 153.715 105.257 153.334L118.858 144.624L120.43 143.62L118.908 142.541C115.339 140.01 112.532 137.341 110.56 134.609L110.177 134.078L109.529 134.091L86.843 134.505C86.1858 132.798 85.7657 131.066 85.5869 129.334L106.014 124.72L106.933 124.511L106.987 123.565C107.137 120.984 107.969 118.382 109.47 115.835L110.34 114.358L108.676 113.973L93.3941 110.442C94.7875 108.987 96.3557 107.56 98.0777 106.18L118.451 106.108H118.846L119.166 105.878C122.24 103.69 125.917 101.599 130.097 99.6619L132.019 98.7709L130.313 97.5117L123.625 92.5628C125.43 91.8977 127.289 91.2534 129.182 90.6385C130.384 90.2494 131.628 89.8604 132.884 89.4839L148.569 92.931L148.864 92.9979L149.156 92.9184C154.197 91.5714 159.517 90.4293 164.97 89.5257L165.947 89.3626L166.01 88.3669L166.38 82.5814C170.51 82.0627 174.753 81.636 179.012 81.3097L187.701 86.8693L188.034 87.0827L188.429 87.0617C191.964 86.8902 195.562 86.8024 199.127 86.8024C201.356 86.8024 203.611 86.8358 205.832 86.9028L206.24 86.9153L206.576 86.6852L214.858 80.9917C219.146 81.2385 223.414 81.5899 227.557 82.0376L228.31 87.8482L228.43 88.7936L229.366 88.9317C234.84 89.7307 240.197 90.7682 245.292 92.019L245.588 92.0901L245.883 92.019L261.182 88.3C263.814 89.0321 266.402 89.8144 268.876 90.6343C269.442 90.8226 270.012 91.015 270.578 91.2116L264.309 96.2358L262.683 97.541L264.596 98.3693C268.852 100.214 272.62 102.222 275.802 104.335L276.122 104.548L276.509 104.54L296.587 104.213C298.375 105.552 300.014 106.937 301.478 108.351L286.766 112.137L285.069 112.576L286.038 114.048C287.677 116.542 288.667 119.11 288.983 121.683L289.091 122.582L289.973 122.762L310.383 126.912C310.325 128.627 310.03 130.342 309.51 132.033L287.245 132.12H286.567L286.201 132.698C284.445 135.442 281.858 138.149 278.51 140.734L278.506 140.725Z" fill="url(#paint14_linear_1445_924)"/>
<path d="M224.188 17.1917H177.328C175.591 17.1917 174.184 18.6076 174.184 20.3542V58.5355C174.184 60.2822 175.591 61.6981 177.328 61.6981H224.188C225.925 61.6981 227.333 60.2822 227.333 58.5355V20.3542C227.333 18.6076 225.925 17.1917 224.188 17.1917Z" fill="url(#paint15_linear_1445_924)"/>
<path d="M222.451 18.6516H179.076C177.34 18.6516 175.932 20.0676 175.932 21.8142V57.0755C175.932 58.8222 177.34 60.2381 179.076 60.2381H222.451C224.187 60.2381 225.595 58.8222 225.595 57.0755V21.8142C225.595 20.0676 224.187 18.6516 222.451 18.6516Z" fill="url(#paint16_linear_1445_924)"/>
<g style="mix-blend-mode:overlay">
<path d="M227.628 65.9986H173.889C171.925 65.9986 170.328 64.3922 170.328 62.4176V25.7047C170.328 23.7302 171.925 22.1238 173.889 22.1238H227.628C229.592 22.1238 231.189 23.7302 231.189 25.7047V62.4176C231.189 64.3922 229.592 65.9986 227.628 65.9986ZM173.889 22.9604C172.383 22.9604 171.16 24.1903 171.16 25.7047V62.4176C171.16 63.932 172.383 65.1619 173.889 65.1619H227.628C229.134 65.1619 230.357 63.932 230.357 62.4176V25.7047C230.357 24.1903 229.134 22.9604 227.628 22.9604H173.889Z" fill="white"/>
</g>
<path d="M266.88 49.0937L238.796 61.2421C237.947 61.6102 236.953 61.0748 236.953 60.259V18.7855C236.953 18.1203 237.631 17.6058 238.392 17.6936L266.477 20.8939C267.109 20.965 267.583 21.4335 267.583 21.9857V48.1106C267.583 48.529 267.309 48.9096 266.88 49.0937Z" fill="url(#paint17_linear_1445_924)"/>
<path d="M267.716 48.78L238.525 61.3593V17.6812L267.267 20.9442C268.078 21.0362 268.694 21.7264 268.694 22.5505V47.2908C268.694 47.9392 268.311 48.5207 267.72 48.7758L267.716 48.78Z" fill="url(#paint18_linear_1445_924)"/>
<g style="mix-blend-mode:overlay">
<path d="M239.998 57.54V40.6853C239.998 40.6853 244.752 30.6537 248.317 31.1892C251.882 31.7247 252.597 35.7867 254.735 34.95C256.873 34.1133 258.894 25.868 261.032 25.9851C263.17 26.1023 262.817 32.9462 264.123 33.1721C265.429 33.398 266.448 28.0182 267.571 27.7798V45.9814L239.998 57.5442V57.54Z" fill="url(#paint19_linear_1445_924)"/>
<path d="M239.998 57.5399V51.6832C239.998 51.6832 243.962 37.418 246.949 39.4428C252.269 43.0446 253.579 34.3475 254.615 32.2893C257.614 26.3113 258.895 39.9699 261.033 40.087C263.171 40.2041 264.098 30.4444 264.418 29.1518C266.477 20.8939 266.448 28.0181 267.567 27.7755V45.9771L239.994 57.5399H239.998Z" fill="url(#paint20_linear_1445_924)"/>
<path d="M243.243 64.5386C242.915 64.5386 242.586 64.4424 242.299 64.2541C241.812 63.932 241.525 63.3924 241.525 62.8109V22.4376C241.525 21.9439 241.733 21.4754 242.099 21.1491C242.465 20.8228 242.952 20.6638 243.439 20.7224L270.999 23.8641C271.868 23.9645 272.526 24.7007 272.526 25.5834V50.8968C272.526 51.587 272.118 52.2103 271.486 52.4864L243.925 64.4047C243.705 64.501 243.476 64.547 243.243 64.547V64.5386ZM243.243 21.5423C243.027 21.5423 242.819 21.6218 242.657 21.7682C242.465 21.9397 242.361 22.1782 242.361 22.4334V62.8067C242.361 63.1121 242.507 63.384 242.761 63.5513C243.014 63.7187 243.318 63.7479 243.601 63.6266L271.161 51.7083C271.486 51.5661 271.698 51.244 271.698 50.8884V25.5751C271.698 25.1191 271.361 24.7384 270.912 24.6882L243.351 21.5465C243.318 21.5465 243.281 21.5423 243.247 21.5423H243.243Z" fill="white"/>
</g>
<path d="M132.535 48.7465L160.619 60.8949C161.468 61.2631 162.462 60.7276 162.462 59.9119V18.4383C162.462 17.7732 161.784 17.2586 161.023 17.3465L132.938 20.5467C132.306 20.6178 131.832 21.0864 131.832 21.6386V47.7635C131.832 48.1818 132.107 48.5625 132.535 48.7465Z" fill="url(#paint21_linear_1445_924)"/>
<path d="M131.698 48.4329L160.889 61.0121V17.334L132.147 20.597C131.336 20.689 130.721 21.3793 130.721 22.2034V46.9436C130.721 47.592 131.103 48.1735 131.694 48.4287L131.698 48.4329Z" fill="url(#paint22_linear_1445_924)"/>
<g style="mix-blend-mode:overlay">
<path d="M155.62 25.8638V26.5792L133.279 28.1354V27.4033L155.62 25.8596V25.8638ZM133.516 34.9249V35.657L152.113 37.5186V36.8032L133.516 34.9249ZM133.279 38.807V39.5391L154.967 43.5551V42.8397L133.279 38.807ZM133.279 43.3501V44.0822L152.354 49.4118V48.6964L133.279 43.3501ZM133.279 31.0428V31.7748L147.147 32.189V31.3607L133.279 31.0428Z" fill="url(#paint23_linear_1445_924)"/>
<path d="M156.173 64.1915C155.944 64.1915 155.711 64.1455 155.495 64.0492L127.934 52.1309C127.302 51.859 126.895 51.2357 126.895 50.5413V25.2279C126.895 24.3494 127.552 23.609 128.421 23.5086L155.981 20.3669C156.468 20.3125 156.955 20.4673 157.321 20.7936C157.687 21.1199 157.895 21.5926 157.895 22.0821V62.4554C157.895 63.0369 157.604 63.5807 157.121 63.8986C156.834 64.0869 156.506 64.1831 156.177 64.1831L156.173 64.1915ZM156.173 21.1952C156.14 21.1952 156.102 21.1952 156.069 21.1994L128.508 24.3411C128.059 24.3913 127.722 24.7719 127.722 25.2279V50.5413C127.722 50.8968 127.934 51.219 128.259 51.3612L155.819 63.2795C156.098 63.4008 156.406 63.3715 156.659 63.2042C156.913 63.0369 157.059 62.765 157.059 62.4596V22.0862C157.059 21.8269 156.955 21.5926 156.763 21.4211C156.597 21.2747 156.393 21.1952 156.177 21.1952H156.173Z" fill="white"/>
</g>
<path style="mix-blend-mode:screen" opacity="0.8" d="M332.87 -78H68.6875L141.278 117.801H141.332C141.186 118.512 141.107 119.231 141.107 119.959C141.107 133.409 157.063 143.361 198.304 144.311C229.882 145.038 255.5 133.409 255.5 119.959C255.5 119.231 255.421 118.512 255.276 117.801H255.5L332.87 -78Z" fill="url(#paint24_linear_1445_924)"/>
<path d="M188.812 55.1511H184.615V37.7694H188.812V55.1511ZM196.27 26.0686H192.073V55.1511H196.27V26.0686ZM203.728 31.1932H199.531V55.1511H203.728V31.1932ZM211.186 43.1742H206.989V55.1553H211.186V43.1742ZM218.644 36.8114H214.447V55.1511H218.644V36.8114Z" fill="url(#paint25_linear_1445_924)"/>
<path d="M191.579 84.6229C193.354 84.6229 194.794 83.1752 194.794 81.3892C194.794 79.6033 193.354 78.1555 191.579 78.1555C189.803 78.1555 188.363 79.6033 188.363 81.3892C188.363 83.1752 189.803 84.6229 191.579 84.6229Z" fill="url(#paint26_radial_1445_924)"/>
<path opacity="0.5" d="M191.588 77.2058C191.588 77.2058 191.193 81.1632 191.588 85.5683C191.588 85.5683 191.958 81.8368 191.588 77.2058Z" fill="white"/>
<path opacity="0.5" d="M195.739 81.385C195.739 81.385 191.804 81.7824 187.424 81.385C187.424 81.385 191.134 81.0126 195.739 81.385Z" fill="white"/>
<path d="M252.356 71.6044C254.132 71.6044 255.571 70.1566 255.571 68.3707C255.571 66.5848 254.132 65.137 252.356 65.137C250.58 65.137 249.141 66.5848 249.141 68.3707C249.141 70.1566 250.58 71.6044 252.356 71.6044Z" fill="url(#paint27_radial_1445_924)"/>
<path opacity="0.5" d="M252.365 64.1914C252.365 64.1914 251.97 68.1488 252.365 72.5539C252.365 72.5539 252.735 68.8224 252.365 64.1914Z" fill="white"/>
<path opacity="0.5" d="M256.516 68.3664C256.516 68.3664 252.581 68.7638 248.201 68.3664C248.201 68.3664 251.911 67.9941 256.516 68.3664Z" fill="white"/>
<path d="M179.354 131.576C181.13 131.576 182.569 130.129 182.569 128.343C182.569 126.557 181.13 125.109 179.354 125.109C177.578 125.109 176.139 126.557 176.139 128.343C176.139 130.129 177.578 131.576 179.354 131.576Z" fill="url(#paint28_radial_1445_924)"/>
<path opacity="0.5" d="M179.363 124.164C179.363 124.164 178.968 128.121 179.363 132.526C179.363 132.526 179.733 128.795 179.363 124.164Z" fill="white"/>
<path opacity="0.5" d="M183.514 128.339C183.514 128.339 179.579 128.736 175.199 128.339C175.199 128.339 178.909 127.966 183.514 128.339Z" fill="white"/>
<path d="M160.914 106.041C162.69 106.041 164.13 104.594 164.13 102.808C164.13 101.022 162.69 99.574 160.914 99.574C159.139 99.574 157.699 101.022 157.699 102.808C157.699 104.594 159.139 106.041 160.914 106.041Z" fill="url(#paint29_radial_1445_924)"/>
<path opacity="0.5" d="M160.92 98.6284C160.92 98.6284 160.525 102.586 160.92 106.991C160.92 106.991 161.29 103.259 160.92 98.6284Z" fill="white"/>
<path opacity="0.5" d="M165.071 102.803C165.071 102.803 161.136 103.201 156.756 102.803C156.756 102.803 160.466 102.431 165.071 102.803Z" fill="white"/>
<path d="M244.922 115.416C246.698 115.416 248.138 113.969 248.138 112.183C248.138 110.397 246.698 108.949 244.922 108.949C243.147 108.949 241.707 110.397 241.707 112.183C241.707 113.969 243.147 115.416 244.922 115.416Z" fill="url(#paint30_radial_1445_924)"/>
<path opacity="0.5" d="M244.928 107.999C244.928 107.999 244.532 111.957 244.928 116.362C244.928 116.362 245.298 112.63 244.928 107.999Z" fill="white"/>
<path opacity="0.5" d="M249.078 112.174C249.078 112.174 245.144 112.572 240.764 112.174C240.764 112.174 244.474 111.802 249.078 112.174Z" fill="white"/>
<path d="M216.402 3.55396C217.619 3.55396 218.606 2.5613 218.606 1.33679C218.606 0.112282 217.619 -0.880371 216.402 -0.880371C215.184 -0.880371 214.197 0.112282 214.197 1.33679C214.197 2.5613 215.184 3.55396 216.402 3.55396Z" fill="url(#paint31_radial_1445_924)"/>
<path opacity="0.5" d="M216.405 -1.53296C216.405 -1.53296 216.135 1.17784 216.405 4.19821C216.405 4.19821 216.659 1.63801 216.405 -1.53296Z" fill="white"/>
<path opacity="0.5" d="M219.255 1.33265C219.255 1.33265 216.56 1.60457 213.557 1.33265C213.557 1.33265 216.102 1.07747 219.255 1.33265Z" fill="white"/>
<path d="M264.859 8.30621C265.815 8.30621 266.59 7.52707 266.59 6.56594C266.59 5.60482 265.815 4.82568 264.859 4.82568C263.904 4.82568 263.129 5.60482 263.129 6.56594C263.129 7.52707 263.904 8.30621 264.859 8.30621Z" fill="url(#paint32_radial_1445_924)"/>
<path opacity="0.5" d="M264.858 4.31958C264.858 4.31958 264.646 6.4489 264.858 8.81666C264.858 8.81666 265.058 6.80866 264.858 4.31958Z" fill="white"/>
<path opacity="0.5" d="M267.092 6.56605C267.092 6.56605 264.975 6.7794 262.621 6.56605C262.621 6.56605 264.618 6.36525 267.092 6.56605Z" fill="white"/>
<path d="M166.398 45.8013C167.354 45.8013 168.129 45.0222 168.129 44.0611C168.129 43.0999 167.354 42.3208 166.398 42.3208C165.443 42.3208 164.668 43.0999 164.668 44.0611C164.668 45.0222 165.443 45.8013 166.398 45.8013Z" fill="url(#paint33_radial_1445_924)"/>
<path opacity="0.5" d="M166.401 41.8147C166.401 41.8147 166.189 43.944 166.401 46.3118C166.401 46.3118 166.601 44.3038 166.401 41.8147Z" fill="white"/>
<path opacity="0.5" d="M168.635 44.0612C168.635 44.0612 166.518 44.2745 164.164 44.0612C164.164 44.0612 166.161 43.8604 168.635 44.0612Z" fill="white"/>
<path d="M142.814 71.098C143.77 71.098 144.545 70.3188 144.545 69.3577C144.545 68.3966 143.77 67.6174 142.814 67.6174C141.859 67.6174 141.084 68.3966 141.084 69.3577C141.084 70.3188 141.859 71.098 142.814 71.098Z" fill="url(#paint34_radial_1445_924)"/>
<path opacity="0.5" d="M142.817 67.1072C142.817 67.1072 142.605 69.2365 142.817 71.6043C142.817 71.6043 143.017 69.5963 142.817 67.1072Z" fill="white"/>
<path opacity="0.5" d="M145.051 69.3536C145.051 69.3536 142.934 69.567 140.58 69.3536C140.58 69.3536 142.577 69.1528 145.051 69.3536Z" fill="white"/>
<path d="M134.066 8.21417C135.022 8.21417 135.797 7.43503 135.797 6.4739C135.797 5.51278 135.022 4.73364 134.066 4.73364C133.111 4.73364 132.336 5.51278 132.336 6.4739C132.336 7.43503 133.111 8.21417 134.066 8.21417Z" fill="url(#paint35_radial_1445_924)"/>
<path opacity="0.5" d="M134.069 4.22754C134.069 4.22754 133.857 6.35685 134.069 8.72462C134.069 8.72462 134.269 6.71662 134.069 4.22754Z" fill="white"/>
<path opacity="0.5" d="M136.303 6.47401C136.303 6.47401 134.186 6.68736 131.832 6.47401C131.832 6.47401 133.829 6.27321 136.303 6.47401Z" fill="white"/>
<path d="M218.611 107.359C219.567 107.359 220.342 106.58 220.342 105.619C220.342 104.658 219.567 103.878 218.611 103.878C217.656 103.878 216.881 104.658 216.881 105.619C216.881 106.58 217.656 107.359 218.611 107.359Z" fill="url(#paint36_radial_1445_924)"/>
<path opacity="0.5" d="M218.61 103.368C218.61 103.368 218.398 105.497 218.61 107.865C218.61 107.865 218.81 105.857 218.61 103.368Z" fill="white"/>
<path opacity="0.5" d="M220.844 105.615C220.844 105.615 218.727 105.828 216.373 105.615C216.373 105.615 218.37 105.414 220.844 105.615Z" fill="white"/>
</g>
</g>
<defs>
<filter id="filter0_f_1445_924" x="222.871" y="-45.5139" width="293.715" height="293.714" filterUnits="userSpaceOnUse" color-interpolation-filters="sRGB">
<feFlood flood-opacity="0" result="BackgroundImageFix"/>
<feBlend mode="normal" in="SourceGraphic" in2="BackgroundImageFix" result="shape"/>
<feGaussianBlur stdDeviation="40" result="effect1_foregroundBlur_1445_924"/>
</filter>
<filter id="filter1_f_1445_924" x="-130.627" y="-217.284" width="398.627" height="398.627" filterUnits="userSpaceOnUse" color-interpolation-filters="sRGB">
<feFlood flood-opacity="0" result="BackgroundImageFix"/>
<feBlend mode="normal" in="SourceGraphic" in2="BackgroundImageFix" result="shape"/>
<feGaussianBlur stdDeviation="40" result="effect1_foregroundBlur_1445_924"/>
</filter>
<linearGradient id="paint0_linear_1445_924" x1="-3.64409" y1="-12.0461" x2="390.001" y2="203.919" gradientUnits="userSpaceOnUse">
<stop stop-color="#004675"/>
<stop offset="1" stop-color="#001674"/>
</linearGradient>
<radialGradient id="paint1_radial_1445_924" cx="0" cy="0" r="1" gradientUnits="userSpaceOnUse" gradientTransform="translate(31.7563 140.722) scale(2.78561 2.77623)">
<stop stop-color="#00FEFE"/>
<stop offset="0.12" stop-color="#00C3C3"/>
<stop offset="0.25" stop-color="#008F8F"/>
<stop offset="0.37" stop-color="#006363"/>
<stop offset="0.5" stop-color="#003F3F"/>
<stop offset="0.62" stop-color="#002323"/>
<stop offset="0.75" stop-color="#000F0F"/>
<stop offset="0.87" stop-color="#000303"/>
<stop offset="1"/>
</radialGradient>
<linearGradient id="paint2_linear_1445_924" x1="196.665" y1="154.681" x2="523.34" y2="211.26" gradientUnits="userSpaceOnUse">
<stop/>
<stop offset="0.09" stop-color="#070501"/>
<stop offset="0.22" stop-color="#1C1406"/>
<stop offset="0.38" stop-color="#3F2C0E"/>
<stop offset="0.57" stop-color="#6F4E1A"/>
<stop offset="0.77" stop-color="#AD7928"/>
<stop offset="0.99" stop-color="#F7AD3A"/>
<stop offset="1" stop-color="#FBB03B"/>
</linearGradient>
<linearGradient id="paint3_linear_1445_924" x1="148.63" y1="110.383" x2="210.308" y2="147.357" gradientUnits="userSpaceOnUse">
<stop/>
<stop offset="0.09" stop-color="#0A0702"/>
<stop offset="0.23" stop-color="#251A08"/>
<stop offset="0.43" stop-color="#513913"/>
<stop offset="0.65" stop-color="#8F6421"/>
<stop offset="0.91" stop-color="#DC9A33"/>
<stop offset="1" stop-color="#FBB03B"/>
</linearGradient>
<linearGradient id="paint4_linear_1445_924" x1="287.248" y1="142.181" x2="315.295" y2="142.181" gradientUnits="userSpaceOnUse">
<stop stop-color="#002652"/>
<stop offset="1" stop-color="#00306D"/>
</linearGradient>
<linearGradient id="paint5_linear_1445_924" x1="107.652" y1="145.386" x2="123.345" y2="147.549" gradientUnits="userSpaceOnUse">
<stop stop-color="#003965"/>
<stop offset="0.76" stop-color="#00DBFF"/>
</linearGradient>
<linearGradient id="paint6_linear_1445_924" x1="86.0156" y1="144.306" x2="109.554" y2="144.306" gradientUnits="userSpaceOnUse">
<stop stop-color="#005CA6"/>
<stop offset="0.93" stop-color="#153457"/>
</linearGradient>
<linearGradient id="paint7_linear_1445_924" x1="92.6326" y1="119.244" x2="119.157" y2="119.244" gradientUnits="userSpaceOnUse">
<stop stop-color="#17F3FF"/>
<stop offset="0.12" stop-color="#11D5EF"/>
<stop offset="0.3" stop-color="#0BB1DD"/>
<stop offset="0.47" stop-color="#0695CE"/>
<stop offset="0.65" stop-color="#0281C4"/>
<stop offset="0.83" stop-color="#0075BE"/>
<stop offset="1" stop-color="#0071BC"/>
</linearGradient>
<linearGradient id="paint8_linear_1445_924" x1="121.029" y1="98.1978" x2="130.413" y2="98.1978" gradientUnits="userSpaceOnUse">
<stop offset="0.08" stop-color="#00EEFF"/>
<stop offset="0.27" stop-color="#00D8F3"/>
<stop offset="0.69" stop-color="#009FD5"/>
<stop offset="1" stop-color="#0071BC"/>
</linearGradient>
<linearGradient id="paint9_linear_1445_924" x1="140.321" y1="112.183" x2="255.5" y2="112.183" gradientUnits="userSpaceOnUse">
<stop stop-color="#00436E"/>
<stop offset="0.12" stop-color="#004C79"/>
<stop offset="0.32" stop-color="#006698"/>
<stop offset="0.59" stop-color="#008FCA"/>
<stop offset="0.64" stop-color="#0098D4"/>
<stop offset="0.75" stop-color="#00A6D4"/>
<stop offset="0.94" stop-color="#00CCD4"/>
<stop offset="1" stop-color="#00D9D4"/>
</linearGradient>
<linearGradient id="paint10_linear_1445_924" x1="287.082" y1="117.801" x2="303.903" y2="117.801" gradientUnits="userSpaceOnUse">
<stop stop-color="#002652"/>
<stop offset="1" stop-color="#00306D"/>
</linearGradient>
<linearGradient id="paint11_linear_1445_924" x1="92.1047" y1="101.695" x2="322.72" y2="155.366" gradientUnits="userSpaceOnUse">
<stop offset="0.08" stop-color="#05DCF9"/>
<stop offset="0.09" stop-color="#05D7F6"/>
<stop offset="0.28" stop-color="#09B2E0"/>
<stop offset="0.45" stop-color="#0C98D0"/>
<stop offset="0.6" stop-color="#0E87C6"/>
<stop offset="0.71" stop-color="#0F82C3"/>
<stop offset="1" stop-color="#001F8A"/>
</linearGradient>
<linearGradient id="paint12_linear_1445_924" x1="254.056" y1="120.432" x2="110.897" y2="120.651" gradientUnits="userSpaceOnUse">
<stop stop-color="#91FFFF" stop-opacity="0"/>
<stop offset="0.1" stop-color="#91FFFF" stop-opacity="0.02"/>
<stop offset="0.22" stop-color="#91FFFF" stop-opacity="0.07"/>
<stop offset="0.35" stop-color="#91FFFF" stop-opacity="0.17"/>
<stop offset="0.49" stop-color="#91FFFF" stop-opacity="0.3"/>
<stop offset="0.63" stop-color="#91FFFF" stop-opacity="0.46"/>
<stop offset="0.77" stop-color="#91FFFF" stop-opacity="0.66"/>
<stop offset="0.92" stop-color="#91FFFF" stop-opacity="0.9"/>
<stop offset="0.97" stop-color="#91FFFF"/>
</linearGradient>
<linearGradient id="paint13_linear_1445_924" x1="307.073" y1="126.577" x2="48.439" y2="126.577" gradientUnits="userSpaceOnUse">
<stop offset="0.13" stop-color="#91FFFF" stop-opacity="0"/>
<stop offset="0.22" stop-color="#91FFFF" stop-opacity="0.02"/>
<stop offset="0.32" stop-color="#91FFFF" stop-opacity="0.08"/>
<stop offset="0.43" stop-color="#91FFFF" stop-opacity="0.17"/>
<stop offset="0.55" stop-color="#91FFFF" stop-opacity="0.3"/>
<stop offset="0.68" stop-color="#91FFFF" stop-opacity="0.47"/>
<stop offset="0.8" stop-color="#91FFFF" stop-opacity="0.68"/>
<stop offset="0.93" stop-color="#91FFFF" stop-opacity="0.91"/>
<stop offset="0.97" stop-color="#91FFFF"/>
</linearGradient>
<linearGradient id="paint14_linear_1445_924" x1="246.495" y1="130.648" x2="114.831" y2="120.333" gradientUnits="userSpaceOnUse">
<stop offset="0.13" stop-color="#91FFFF" stop-opacity="0"/>
<stop offset="0.21" stop-color="#91FFFF" stop-opacity="0.05"/>
<stop offset="0.36" stop-color="#91FFFF" stop-opacity="0.2"/>
<stop offset="0.56" stop-color="#91FFFF" stop-opacity="0.43"/>
<stop offset="0.81" stop-color="#91FFFF" stop-opacity="0.75"/>
<stop offset="1" stop-color="#91FFFF"/>
</linearGradient>
<linearGradient id="paint15_linear_1445_924" x1="200.758" y1="61.6981" x2="200.758" y2="17.1917" gradientUnits="userSpaceOnUse">
<stop offset="0.08" stop-color="#00FFFF"/>
<stop offset="0.13" stop-color="#2AFFFF"/>
<stop offset="0.24" stop-color="#84FFFF"/>
<stop offset="0.33" stop-color="#C6FFFF"/>
<stop offset="0.4" stop-color="#EFFFFF"/>
<stop offset="0.43" stop-color="white"/>
<stop offset="0.51" stop-color="#FBFFFF"/>
<stop offset="0.59" stop-color="#F0FFFF"/>
<stop offset="0.66" stop-color="#DDFFFF"/>
<stop offset="0.72" stop-color="#C4FFFF"/>
<stop offset="0.79" stop-color="#A2FFFF"/>
<stop offset="0.85" stop-color="#79FFFF"/>
<stop offset="0.92" stop-color="#48FFFF"/>
<stop offset="0.98" stop-color="#12FFFF"/>
<stop offset="1" stop-color="#00FFFF"/>
</linearGradient>
<linearGradient id="paint16_linear_1445_924" x1="200.759" y1="60.2381" x2="200.759" y2="18.6516" gradientUnits="userSpaceOnUse">
<stop stop-color="#2BCDE2"/>
<stop offset="1" stop-color="#7EFFE2"/>
</linearGradient>
<linearGradient id="paint17_linear_1445_924" x1="252.268" y1="61.3592" x2="252.268" y2="17.6853" gradientUnits="userSpaceOnUse">
<stop offset="0.08" stop-color="#00FFFF"/>
<stop offset="0.13" stop-color="#2AFFFF"/>
<stop offset="0.24" stop-color="#84FFFF"/>
<stop offset="0.33" stop-color="#C6FFFF"/>
<stop offset="0.4" stop-color="#EFFFFF"/>
<stop offset="0.43" stop-color="white"/>
<stop offset="0.51" stop-color="#FBFFFF"/>
<stop offset="0.59" stop-color="#F0FFFF"/>
<stop offset="0.66" stop-color="#DDFFFF"/>
<stop offset="0.72" stop-color="#C4FFFF"/>
<stop offset="0.79" stop-color="#A2FFFF"/>
<stop offset="0.85" stop-color="#79FFFF"/>
<stop offset="0.92" stop-color="#48FFFF"/>
<stop offset="0.98" stop-color="#12FFFF"/>
<stop offset="1" stop-color="#00FFFF"/>
</linearGradient>
<linearGradient id="paint18_linear_1445_924" x1="238.521" y1="39.5223" x2="268.69" y2="39.5223" gradientUnits="userSpaceOnUse">
<stop stop-color="#2BCDE2"/>
<stop offset="1" stop-color="#7EFFE2"/>
</linearGradient>
<linearGradient id="paint19_linear_1445_924" x1="253.782" y1="57.7199" x2="253.782" y2="26.165" gradientUnits="userSpaceOnUse">
<stop stop-color="#17E0E1"/>
<stop offset="0.1" stop-color="#15D0E0"/>
<stop offset="0.29" stop-color="#11A7E0"/>
<stop offset="0.55" stop-color="#0A65DF"/>
<stop offset="0.88" stop-color="#000BDF"/>
<stop offset="0.9" stop-color="#0007DF"/>
</linearGradient>
<linearGradient id="paint20_linear_1445_924" x1="253.878" y1="47.6044" x2="256.466" y2="15.3157" gradientUnits="userSpaceOnUse">
<stop stop-color="#00FFFF" stop-opacity="0.7"/>
<stop offset="0.14" stop-color="#2AFFFF" stop-opacity="0.75"/>
<stop offset="0.46" stop-color="#84FFFF" stop-opacity="0.86"/>
<stop offset="0.72" stop-color="#C6FFFF" stop-opacity="0.93"/>
<stop offset="0.9" stop-color="#EFFFFF" stop-opacity="0.98"/>
<stop offset="1" stop-color="white"/>
</linearGradient>
<linearGradient id="paint21_linear_1445_924" x1="147.147" y1="61.0121" x2="147.147" y2="17.3339" gradientUnits="userSpaceOnUse">
<stop offset="0.08" stop-color="#00FFFF"/>
<stop offset="0.13" stop-color="#2AFFFF"/>
<stop offset="0.24" stop-color="#84FFFF"/>
<stop offset="0.33" stop-color="#C6FFFF"/>
<stop offset="0.4" stop-color="#EFFFFF"/>
<stop offset="0.43" stop-color="white"/>
<stop offset="0.51" stop-color="#FBFFFF"/>
<stop offset="0.59" stop-color="#F0FFFF"/>
<stop offset="0.66" stop-color="#DDFFFF"/>
<stop offset="0.72" stop-color="#C4FFFF"/>
<stop offset="0.79" stop-color="#A2FFFF"/>
<stop offset="0.85" stop-color="#79FFFF"/>
<stop offset="0.92" stop-color="#48FFFF"/>
<stop offset="0.98" stop-color="#12FFFF"/>
<stop offset="1" stop-color="#00FFFF"/>
</linearGradient>
<linearGradient id="paint22_linear_1445_924" x1="160.893" y1="39.1751" x2="130.725" y2="39.1751" gradientUnits="userSpaceOnUse">
<stop stop-color="#2BCDE2"/>
<stop offset="1" stop-color="#7EFFE2"/>
</linearGradient>
<linearGradient id="paint23_linear_1445_924" x1="133.279" y1="37.6357" x2="163.444" y2="37.6357" gradientUnits="userSpaceOnUse">
<stop stop-color="white"/>
<stop offset="0.08" stop-color="white" stop-opacity="0.94"/>
<stop offset="0.23" stop-color="white" stop-opacity="0.78"/>
<stop offset="0.43" stop-color="white" stop-opacity="0.52"/>
<stop offset="0.69" stop-color="white" stop-opacity="0.17"/>
<stop offset="0.8" stop-color="white" stop-opacity="0"/>
</linearGradient>
<linearGradient id="paint24_linear_1445_924" x1="200.779" y1="144.344" x2="200.779" y2="-78" gradientUnits="userSpaceOnUse">
<stop stop-color="#00EAFF"/>
<stop offset="0.72"/>
</linearGradient>
<linearGradient id="paint25_linear_1445_924" x1="201.627" y1="55.1511" x2="201.627" y2="13.4642" gradientUnits="userSpaceOnUse">
<stop stop-color="white"/>
<stop offset="0.07" stop-color="white" stop-opacity="0.94"/>
<stop offset="0.21" stop-color="white" stop-opacity="0.78"/>
<stop offset="0.4" stop-color="white" stop-opacity="0.52"/>
<stop offset="0.64" stop-color="white" stop-opacity="0.17"/>
<stop offset="0.75" stop-color="white" stop-opacity="0"/>
</linearGradient>
<radialGradient id="paint26_radial_1445_924" cx="0" cy="0" r="1" gradientUnits="userSpaceOnUse" gradientTransform="translate(191.579 81.3892) scale(3.97226 3.99508)">
<stop stop-color="white"/>
<stop offset="0.06" stop-color="#E4FFFF" stop-opacity="0.89"/>
<stop offset="0.21" stop-color="#9FFFFF" stop-opacity="0.63"/>
<stop offset="0.35" stop-color="#66FFFF" stop-opacity="0.4"/>
<stop offset="0.48" stop-color="#3AFFFF" stop-opacity="0.23"/>
<stop offset="0.6" stop-color="#1AFFFF" stop-opacity="0.1"/>
<stop offset="0.7" stop-color="#06FFFF" stop-opacity="0.03"/>
<stop offset="0.77" stop-color="#00FFFF" stop-opacity="0"/>
</radialGradient>
<radialGradient id="paint27_radial_1445_924" cx="0" cy="0" r="1" gradientUnits="userSpaceOnUse" gradientTransform="translate(252.356 68.3707) scale(3.97226 3.99508)">
<stop stop-color="white"/>
<stop offset="0.06" stop-color="#E4FFFF" stop-opacity="0.89"/>
<stop offset="0.21" stop-color="#9FFFFF" stop-opacity="0.63"/>
<stop offset="0.35" stop-color="#66FFFF" stop-opacity="0.4"/>
<stop offset="0.48" stop-color="#3AFFFF" stop-opacity="0.23"/>
<stop offset="0.6" stop-color="#1AFFFF" stop-opacity="0.1"/>
<stop offset="0.7" stop-color="#06FFFF" stop-opacity="0.03"/>
<stop offset="0.77" stop-color="#00FFFF" stop-opacity="0"/>
</radialGradient>
<radialGradient id="paint28_radial_1445_924" cx="0" cy="0" r="1" gradientUnits="userSpaceOnUse" gradientTransform="translate(179.354 128.343) scale(3.97227 3.99509)">
<stop stop-color="white"/>
<stop offset="0.06" stop-color="#E4FFFF" stop-opacity="0.89"/>
<stop offset="0.21" stop-color="#9FFFFF" stop-opacity="0.63"/>
<stop offset="0.35" stop-color="#66FFFF" stop-opacity="0.4"/>
<stop offset="0.48" stop-color="#3AFFFF" stop-opacity="0.23"/>
<stop offset="0.6" stop-color="#1AFFFF" stop-opacity="0.1"/>
<stop offset="0.7" stop-color="#06FFFF" stop-opacity="0.03"/>
<stop offset="0.77" stop-color="#00FFFF" stop-opacity="0"/>
</radialGradient>
<radialGradient id="paint29_radial_1445_924" cx="0" cy="0" r="1" gradientUnits="userSpaceOnUse" gradientTransform="translate(160.914 102.808) scale(3.97226 3.99508)">
<stop stop-color="white"/>
<stop offset="0.06" stop-color="#E4FFFF" stop-opacity="0.89"/>
<stop offset="0.21" stop-color="#9FFFFF" stop-opacity="0.63"/>
<stop offset="0.35" stop-color="#66FFFF" stop-opacity="0.4"/>
<stop offset="0.48" stop-color="#3AFFFF" stop-opacity="0.23"/>
<stop offset="0.6" stop-color="#1AFFFF" stop-opacity="0.1"/>
<stop offset="0.7" stop-color="#06FFFF" stop-opacity="0.03"/>
<stop offset="0.77" stop-color="#00FFFF" stop-opacity="0"/>
</radialGradient>
<radialGradient id="paint30_radial_1445_924" cx="0" cy="0" r="1" gradientUnits="userSpaceOnUse" gradientTransform="translate(244.922 112.183) scale(0.207972 0.209166)">
<stop stop-color="white"/>
<stop offset="0.06" stop-color="#E4FFFF" stop-opacity="0.89"/>
<stop offset="0.21" stop-color="#9FFFFF" stop-opacity="0.63"/>
<stop offset="0.35" stop-color="#66FFFF" stop-opacity="0.4"/>
<stop offset="0.48" stop-color="#3AFFFF" stop-opacity="0.23"/>
<stop offset="0.6" stop-color="#1AFFFF" stop-opacity="0.1"/>
<stop offset="0.7" stop-color="#06FFFF" stop-opacity="0.03"/>
<stop offset="0.77" stop-color="#00FFFF" stop-opacity="0"/>
</radialGradient>
<radialGradient id="paint31_radial_1445_924" cx="0" cy="0" r="1" gradientUnits="userSpaceOnUse" gradientTransform="translate(216.402 1.33679) scale(2.72027 2.7359)">
<stop stop-color="white"/>
<stop offset="0.06" stop-color="#E4FFFF" stop-opacity="0.89"/>
<stop offset="0.21" stop-color="#9FFFFF" stop-opacity="0.63"/>
<stop offset="0.35" stop-color="#66FFFF" stop-opacity="0.4"/>
<stop offset="0.48" stop-color="#3AFFFF" stop-opacity="0.23"/>
<stop offset="0.6" stop-color="#1AFFFF" stop-opacity="0.1"/>
<stop offset="0.7" stop-color="#06FFFF" stop-opacity="0.03"/>
<stop offset="0.77" stop-color="#00FFFF" stop-opacity="0"/>
</radialGradient>
<radialGradient id="paint32_radial_1445_924" cx="0" cy="0" r="1" gradientUnits="userSpaceOnUse" gradientTransform="translate(264.859 6.56595) scale(2.13379 2.14605)">
<stop stop-color="white"/>
<stop offset="0.06" stop-color="#E4FFFF" stop-opacity="0.89"/>
<stop offset="0.21" stop-color="#9FFFFF" stop-opacity="0.63"/>
<stop offset="0.35" stop-color="#66FFFF" stop-opacity="0.4"/>
<stop offset="0.48" stop-color="#3AFFFF" stop-opacity="0.23"/>
<stop offset="0.6" stop-color="#1AFFFF" stop-opacity="0.1"/>
<stop offset="0.7" stop-color="#06FFFF" stop-opacity="0.03"/>
<stop offset="0.77" stop-color="#00FFFF" stop-opacity="0"/>
</radialGradient>
<radialGradient id="paint33_radial_1445_924" cx="0" cy="0" r="1" gradientUnits="userSpaceOnUse" gradientTransform="translate(166.398 44.0611) scale(2.13379 2.14605)">
<stop stop-color="white"/>
<stop offset="0.06" stop-color="#E4FFFF" stop-opacity="0.89"/>
<stop offset="0.21" stop-color="#9FFFFF" stop-opacity="0.63"/>
<stop offset="0.35" stop-color="#66FFFF" stop-opacity="0.4"/>
<stop offset="0.48" stop-color="#3AFFFF" stop-opacity="0.23"/>
<stop offset="0.6" stop-color="#1AFFFF" stop-opacity="0.1"/>
<stop offset="0.7" stop-color="#06FFFF" stop-opacity="0.03"/>
<stop offset="0.77" stop-color="#00FFFF" stop-opacity="0"/>
</radialGradient>
<radialGradient id="paint34_radial_1445_924" cx="0" cy="0" r="1" gradientUnits="userSpaceOnUse" gradientTransform="translate(142.814 69.3577) scale(2.13379 2.14605)">
<stop stop-color="white"/>
<stop offset="0.06" stop-color="#E4FFFF" stop-opacity="0.89"/>
<stop offset="0.21" stop-color="#9FFFFF" stop-opacity="0.63"/>
<stop offset="0.35" stop-color="#66FFFF" stop-opacity="0.4"/>
<stop offset="0.48" stop-color="#3AFFFF" stop-opacity="0.23"/>
<stop offset="0.6" stop-color="#1AFFFF" stop-opacity="0.1"/>
<stop offset="0.7" stop-color="#06FFFF" stop-opacity="0.03"/>
<stop offset="0.77" stop-color="#00FFFF" stop-opacity="0"/>
</radialGradient>
<radialGradient id="paint35_radial_1445_924" cx="0" cy="0" r="1" gradientUnits="userSpaceOnUse" gradientTransform="translate(134.066 6.47391) scale(2.13379 2.14605)">
<stop stop-color="white"/>
<stop offset="0.06" stop-color="#E4FFFF" stop-opacity="0.89"/>
<stop offset="0.21" stop-color="#9FFFFF" stop-opacity="0.63"/>
<stop offset="0.35" stop-color="#66FFFF" stop-opacity="0.4"/>
<stop offset="0.48" stop-color="#3AFFFF" stop-opacity="0.23"/>
<stop offset="0.6" stop-color="#1AFFFF" stop-opacity="0.1"/>
<stop offset="0.7" stop-color="#06FFFF" stop-opacity="0.03"/>
<stop offset="0.77" stop-color="#00FFFF" stop-opacity="0"/>
</radialGradient>
<radialGradient id="paint36_radial_1445_924" cx="0" cy="0" r="1" gradientUnits="userSpaceOnUse" gradientTransform="translate(218.611 105.619) scale(2.13379 2.14605)">
<stop stop-color="white"/>
<stop offset="0.06" stop-color="#E4FFFF" stop-opacity="0.89"/>
<stop offset="0.21" stop-color="#9FFFFF" stop-opacity="0.63"/>
<stop offset="0.35" stop-color="#66FFFF" stop-opacity="0.4"/>
<stop offset="0.48" stop-color="#3AFFFF" stop-opacity="0.23"/>
<stop offset="0.6" stop-color="#1AFFFF" stop-opacity="0.1"/>
<stop offset="0.7" stop-color="#06FFFF" stop-opacity="0.03"/>
<stop offset="0.77" stop-color="#00FFFF" stop-opacity="0"/>
</radialGradient>
<clipPath id="clip0_1445_924">
<rect width="393" height="140" fill="white"/>
</clipPath>
<clipPath id="clip1_1445_924">
<rect width="381" height="341" fill="white" transform="translate(68.6875 -78)"/>
</clipPath>
</defs>
</svg>
