<svg width="220" height="180" viewBox="0 0 220 180" fill="none" xmlns="http://www.w3.org/2000/svg">
<g filter="url(#filter0_dd_1454_46)">
<rect x="30" y="30" width="160" height="120" rx="20" fill="url(#paint0_linear_1454_46)"/>
</g>
<path fill-rule="evenodd" clip-rule="evenodd" d="M88.1305 45.2908C83.4361 45.2908 79.6305 49.0963 79.6305 53.7908V84.1011C76.0812 84.1231 73.2108 87.0072 73.2108 90.5617C73.2108 91.9753 73.6647 93.2828 74.4348 94.3465C71.859 95.1963 70 97.6227 70 100.483C70 102.476 70.9026 104.259 72.3214 105.444C70.9026 106.629 70 108.411 70 110.405C70 113.265 71.859 115.692 74.4348 116.541C73.6647 117.605 73.2108 118.913 73.2108 120.326C73.2108 123.894 76.1033 126.787 79.6715 126.787H79.8993C80.5858 128.823 82.5107 130.289 84.7781 130.289H124.321C127.558 130.289 130.373 128.479 131.808 125.817L142.271 126.781C142.458 126.798 142.647 126.78 142.828 126.727L146.074 125.78C146.848 126.41 147.835 126.787 148.911 126.787H152.832C155.317 126.787 157.332 124.772 157.332 122.287V92.3945C157.332 89.9092 155.317 87.8945 152.832 87.8945H148.911C148.203 87.8945 147.533 88.0579 146.938 88.3489L132.657 65.1746H132.821V53.7908C132.821 49.0964 129.016 45.2908 124.321 45.2908H88.1305ZM88.8095 115.959C89.865 117.109 90.5093 118.642 90.5093 120.326C90.5093 123.894 87.6168 126.787 84.0486 126.787H83.3984C83.7716 127.1 84.2528 127.289 84.7781 127.289H124.321C127.359 127.289 129.821 124.826 129.821 121.789V115.115H90.1757C90.098 115.115 90.0218 115.109 89.9474 115.097C89.602 115.424 89.2205 115.714 88.8095 115.959ZM91.7388 112.115H129.821V108.289H129.837C129.832 107.795 129.826 107.29 129.82 106.775C129.719 98.3164 127.995 94.8093 126.311 91.3822C125.61 89.9558 124.916 88.5433 124.348 86.7934C124.239 86.456 124.12 86.0921 123.993 85.7048L123.991 85.7005C123.115 83.0305 121.874 79.2509 121.045 75.4128C120.568 73.2096 120.217 70.9427 120.152 68.8134C120.136 68.2915 120.137 67.7717 120.158 67.2582H116.439C115.61 67.2582 114.939 66.5867 114.939 65.7582C114.939 64.9298 115.61 64.2582 116.439 64.2582H120.57C120.694 63.7714 120.847 63.3002 121.034 62.8492C121.598 61.4881 122.331 60.4578 123.257 59.8035C124.215 59.127 125.259 58.9384 126.238 59.0655C127.688 59.2536 128.95 60.1172 129.821 60.9469V57.9204L82.6305 57.9204V84.101H84.0486C87.6168 84.101 90.5093 86.9936 90.5093 90.5617C90.5093 92.2457 89.865 93.7793 88.8095 94.9293C90.7006 96.0563 91.9675 98.1218 91.9675 100.483C91.9675 101.756 91.5992 102.944 90.9634 103.944H96.3047C97.1331 103.944 97.8047 104.616 97.8047 105.444C97.8047 106.272 97.1331 106.944 96.3047 106.944H90.9634C91.5992 107.944 91.9675 109.132 91.9675 110.405C91.9675 110.997 91.8879 111.57 91.7388 112.115ZM129.821 54.9204L82.6305 54.9204V53.7908C82.6305 50.7532 85.093 48.2908 88.1305 48.2908H124.321C127.359 48.2908 129.821 50.7532 129.821 53.7908V54.9204ZM124.989 62.2537C124.671 62.4781 124.233 62.9664 123.805 63.9982C123.299 65.2198 123.092 66.8239 123.151 68.7214C123.208 70.6045 123.523 72.6782 123.977 74.7792C124.77 78.4509 125.958 82.0699 126.837 84.7499C126.966 85.1438 127.088 85.5174 127.202 85.8678C127.623 87.1639 128.21 88.3635 128.847 89.6658L128.847 89.6658C130.591 93.2292 132.71 97.5609 132.82 106.739C132.915 114.746 132.887 120.197 132.847 122.9L142.262 123.767L144.41 123.141V89.9655L128.065 63.4414C127.436 62.7368 126.567 62.1333 125.852 62.0406C125.548 62.0011 125.275 62.0514 124.989 62.2537ZM79.6715 87.101C77.7602 87.101 76.2108 88.6504 76.2108 90.5617C76.2108 92.473 77.7602 94.0224 79.6715 94.0224H84.0486C85.9599 94.0224 87.5093 92.473 87.5093 90.5617C87.5093 88.6504 85.9599 87.101 84.0486 87.101H79.6715ZM79.6715 116.865C77.7602 116.865 76.2108 118.415 76.2108 120.326C76.2108 122.237 77.7602 123.787 79.6715 123.787H84.0486C85.9599 123.787 87.5093 122.237 87.5093 120.326C87.5093 118.415 85.9599 116.865 84.0486 116.865H79.6715ZM103.745 117.075C101.546 117.075 99.7642 118.857 99.7642 121.056C99.7642 123.254 101.546 125.036 103.745 125.036H108.997C111.195 125.036 112.977 123.254 112.977 121.056C112.977 118.857 111.195 117.075 108.997 117.075H103.745ZM102.764 121.056C102.764 120.514 103.203 120.075 103.745 120.075H108.997C109.539 120.075 109.977 120.514 109.977 121.056C109.977 121.597 109.539 122.036 108.997 122.036H103.745C103.203 122.036 102.764 121.597 102.764 121.056ZM76.4607 97.0225C74.5494 97.0225 73 98.5719 73 100.483C73 102.395 74.5494 103.944 76.4607 103.944H85.5068C87.4181 103.944 88.9675 102.395 88.9675 100.483C88.9675 98.5719 87.4181 97.0225 85.5068 97.0225H76.4607ZM147.411 92.3945C147.411 91.5661 148.082 90.8945 148.911 90.8945H152.832C153.66 90.8945 154.332 91.5661 154.332 92.3945V122.287C154.332 123.115 153.66 123.787 152.832 123.787H148.911C148.082 123.787 147.411 123.115 147.411 122.287V92.3945ZM150.872 114.157C151.7 114.157 152.372 114.829 152.372 115.657V119.305C152.372 120.133 151.7 120.805 150.872 120.805C150.043 120.805 149.372 120.133 149.372 119.305V115.657C149.372 114.829 150.043 114.157 150.872 114.157ZM97.2188 65.7582C97.2188 66.5867 96.5473 67.2582 95.7188 67.2582H91.6728C89.7398 67.2582 88.1728 68.8253 88.1728 70.7582V75.242C88.1728 76.0704 87.5012 76.742 86.6728 76.742C85.8444 76.742 85.1728 76.0704 85.1728 75.242V70.7582C85.1728 67.1684 88.083 64.2582 91.6728 64.2582H95.7188C96.5473 64.2582 97.2188 64.9298 97.2188 65.7582ZM117.022 104.09C116.194 104.09 115.522 104.762 115.522 105.59C115.522 106.418 116.194 107.09 117.022 107.09H121.068C124.658 107.09 127.568 104.18 127.568 100.59V96.1062C127.568 95.2778 126.897 94.6062 126.068 94.6062C125.24 94.6062 124.568 95.2778 124.568 96.1062V100.59C124.568 102.523 123.001 104.09 121.068 104.09H117.022ZM73 110.405C73 108.493 74.5494 106.944 76.4607 106.944H85.5068C87.4181 106.944 88.9675 108.493 88.9675 110.405C88.9675 112.316 87.4181 113.865 85.5068 113.865H76.4607C74.5494 113.865 73 112.316 73 110.405ZM111.519 51.4596C111.519 52.288 110.847 52.9596 110.019 52.9596H102.723C101.895 52.9596 101.223 52.288 101.223 51.4596C101.223 50.6311 101.895 49.9596 102.723 49.9596H110.019C110.847 49.9596 111.519 50.6311 111.519 51.4596ZM106.87 74.1797L115.192 78.9845L106.534 83.9836L97.7114 78.8901L105.87 74.1797C106.18 74.001 106.561 74.001 106.87 74.1797ZM96.4818 90.4407V81.6443L104.843 86.4714C104.852 86.4933 104.861 86.5151 104.872 86.5368V95.8621L96.9818 91.3068C96.6724 91.1281 96.4818 90.798 96.4818 90.4407ZM115.758 91.3068L107.872 95.8601V86.6751L116.258 81.833V90.4407C116.258 90.798 116.068 91.1281 115.758 91.3068ZM108.37 71.5816C107.133 70.8671 105.608 70.8671 104.37 71.5816L95.4818 76.7133C94.2442 77.4278 93.4818 78.7483 93.4818 80.1774V90.4407C93.4818 91.8698 94.2442 93.1903 95.4818 93.9048L104.37 99.0365C105.608 99.7511 107.133 99.7511 108.37 99.0365L117.258 93.9048C118.496 93.1903 119.258 91.8698 119.258 90.4407V80.1774C119.258 78.7483 118.496 77.4278 117.258 76.7133L108.37 71.5816Z" fill="black"/>
<path fill-rule="evenodd" clip-rule="evenodd" d="M88.1305 45.2908C83.4361 45.2908 79.6305 49.0963 79.6305 53.7908V84.1011C76.0812 84.1231 73.2108 87.0072 73.2108 90.5617C73.2108 91.9753 73.6647 93.2828 74.4348 94.3465C71.859 95.1963 70 97.6227 70 100.483C70 102.476 70.9026 104.259 72.3214 105.444C70.9026 106.629 70 108.411 70 110.405C70 113.265 71.859 115.692 74.4348 116.541C73.6647 117.605 73.2108 118.913 73.2108 120.326C73.2108 123.894 76.1033 126.787 79.6715 126.787H79.8993C80.5858 128.823 82.5107 130.289 84.7781 130.289H124.321C127.558 130.289 130.373 128.479 131.808 125.817L142.271 126.781C142.458 126.798 142.647 126.78 142.828 126.727L146.074 125.78C146.848 126.41 147.835 126.787 148.911 126.787H152.832C155.317 126.787 157.332 124.772 157.332 122.287V92.3945C157.332 89.9092 155.317 87.8945 152.832 87.8945H148.911C148.203 87.8945 147.533 88.0579 146.938 88.3489L132.657 65.1746H132.821V53.7908C132.821 49.0964 129.016 45.2908 124.321 45.2908H88.1305ZM88.8095 115.959C89.865 117.109 90.5093 118.642 90.5093 120.326C90.5093 123.894 87.6168 126.787 84.0486 126.787H83.3984C83.7716 127.1 84.2528 127.289 84.7781 127.289H124.321C127.359 127.289 129.821 124.826 129.821 121.789V115.115H90.1757C90.098 115.115 90.0218 115.109 89.9474 115.097C89.602 115.424 89.2205 115.714 88.8095 115.959ZM91.7388 112.115H129.821V108.289H129.837C129.832 107.795 129.826 107.29 129.82 106.775C129.719 98.3164 127.995 94.8093 126.311 91.3822C125.61 89.9558 124.916 88.5433 124.348 86.7934C124.239 86.456 124.12 86.0921 123.993 85.7048L123.991 85.7005C123.115 83.0305 121.874 79.2509 121.045 75.4128C120.568 73.2096 120.217 70.9427 120.152 68.8134C120.136 68.2915 120.137 67.7717 120.158 67.2582H116.439C115.61 67.2582 114.939 66.5867 114.939 65.7582C114.939 64.9298 115.61 64.2582 116.439 64.2582H120.57C120.694 63.7714 120.847 63.3002 121.034 62.8492C121.598 61.4881 122.331 60.4578 123.257 59.8035C124.215 59.127 125.259 58.9384 126.238 59.0655C127.688 59.2536 128.95 60.1172 129.821 60.9469V57.9204L82.6305 57.9204V84.101H84.0486C87.6168 84.101 90.5093 86.9936 90.5093 90.5617C90.5093 92.2457 89.865 93.7793 88.8095 94.9293C90.7006 96.0563 91.9675 98.1218 91.9675 100.483C91.9675 101.756 91.5992 102.944 90.9634 103.944H96.3047C97.1331 103.944 97.8047 104.616 97.8047 105.444C97.8047 106.272 97.1331 106.944 96.3047 106.944H90.9634C91.5992 107.944 91.9675 109.132 91.9675 110.405C91.9675 110.997 91.8879 111.57 91.7388 112.115ZM129.821 54.9204L82.6305 54.9204V53.7908C82.6305 50.7532 85.093 48.2908 88.1305 48.2908H124.321C127.359 48.2908 129.821 50.7532 129.821 53.7908V54.9204ZM124.989 62.2537C124.671 62.4781 124.233 62.9664 123.805 63.9982C123.299 65.2198 123.092 66.8239 123.151 68.7214C123.208 70.6045 123.523 72.6782 123.977 74.7792C124.77 78.4509 125.958 82.0699 126.837 84.7499C126.966 85.1438 127.088 85.5174 127.202 85.8678C127.623 87.1639 128.21 88.3635 128.847 89.6658L128.847 89.6658C130.591 93.2292 132.71 97.5609 132.82 106.739C132.915 114.746 132.887 120.197 132.847 122.9L142.262 123.767L144.41 123.141V89.9655L128.065 63.4414C127.436 62.7368 126.567 62.1333 125.852 62.0406C125.548 62.0011 125.275 62.0514 124.989 62.2537ZM79.6715 87.101C77.7602 87.101 76.2108 88.6504 76.2108 90.5617C76.2108 92.473 77.7602 94.0224 79.6715 94.0224H84.0486C85.9599 94.0224 87.5093 92.473 87.5093 90.5617C87.5093 88.6504 85.9599 87.101 84.0486 87.101H79.6715ZM79.6715 116.865C77.7602 116.865 76.2108 118.415 76.2108 120.326C76.2108 122.237 77.7602 123.787 79.6715 123.787H84.0486C85.9599 123.787 87.5093 122.237 87.5093 120.326C87.5093 118.415 85.9599 116.865 84.0486 116.865H79.6715ZM103.745 117.075C101.546 117.075 99.7642 118.857 99.7642 121.056C99.7642 123.254 101.546 125.036 103.745 125.036H108.997C111.195 125.036 112.977 123.254 112.977 121.056C112.977 118.857 111.195 117.075 108.997 117.075H103.745ZM102.764 121.056C102.764 120.514 103.203 120.075 103.745 120.075H108.997C109.539 120.075 109.977 120.514 109.977 121.056C109.977 121.597 109.539 122.036 108.997 122.036H103.745C103.203 122.036 102.764 121.597 102.764 121.056ZM76.4607 97.0225C74.5494 97.0225 73 98.5719 73 100.483C73 102.395 74.5494 103.944 76.4607 103.944H85.5068C87.4181 103.944 88.9675 102.395 88.9675 100.483C88.9675 98.5719 87.4181 97.0225 85.5068 97.0225H76.4607ZM147.411 92.3945C147.411 91.5661 148.082 90.8945 148.911 90.8945H152.832C153.66 90.8945 154.332 91.5661 154.332 92.3945V122.287C154.332 123.115 153.66 123.787 152.832 123.787H148.911C148.082 123.787 147.411 123.115 147.411 122.287V92.3945ZM150.872 114.157C151.7 114.157 152.372 114.829 152.372 115.657V119.305C152.372 120.133 151.7 120.805 150.872 120.805C150.043 120.805 149.372 120.133 149.372 119.305V115.657C149.372 114.829 150.043 114.157 150.872 114.157ZM97.2188 65.7582C97.2188 66.5867 96.5473 67.2582 95.7188 67.2582H91.6728C89.7398 67.2582 88.1728 68.8253 88.1728 70.7582V75.242C88.1728 76.0704 87.5012 76.742 86.6728 76.742C85.8444 76.742 85.1728 76.0704 85.1728 75.242V70.7582C85.1728 67.1684 88.083 64.2582 91.6728 64.2582H95.7188C96.5473 64.2582 97.2188 64.9298 97.2188 65.7582ZM117.022 104.09C116.194 104.09 115.522 104.762 115.522 105.59C115.522 106.418 116.194 107.09 117.022 107.09H121.068C124.658 107.09 127.568 104.18 127.568 100.59V96.1062C127.568 95.2778 126.897 94.6062 126.068 94.6062C125.24 94.6062 124.568 95.2778 124.568 96.1062V100.59C124.568 102.523 123.001 104.09 121.068 104.09H117.022ZM73 110.405C73 108.493 74.5494 106.944 76.4607 106.944H85.5068C87.4181 106.944 88.9675 108.493 88.9675 110.405C88.9675 112.316 87.4181 113.865 85.5068 113.865H76.4607C74.5494 113.865 73 112.316 73 110.405ZM111.519 51.4596C111.519 52.288 110.847 52.9596 110.019 52.9596H102.723C101.895 52.9596 101.223 52.288 101.223 51.4596C101.223 50.6311 101.895 49.9596 102.723 49.9596H110.019C110.847 49.9596 111.519 50.6311 111.519 51.4596ZM106.87 74.1797L115.192 78.9845L106.534 83.9836L97.7114 78.8901L105.87 74.1797C106.18 74.001 106.561 74.001 106.87 74.1797ZM96.4818 90.4407V81.6443L104.843 86.4714C104.852 86.4933 104.861 86.5151 104.872 86.5368V95.8621L96.9818 91.3068C96.6724 91.1281 96.4818 90.798 96.4818 90.4407ZM115.758 91.3068L107.872 95.8601V86.6751L116.258 81.833V90.4407C116.258 90.798 116.068 91.1281 115.758 91.3068ZM108.37 71.5816C107.133 70.8671 105.608 70.8671 104.37 71.5816L95.4818 76.7133C94.2442 77.4278 93.4818 78.7483 93.4818 80.1774V90.4407C93.4818 91.8698 94.2442 93.1903 95.4818 93.9048L104.37 99.0365C105.608 99.7511 107.133 99.7511 108.37 99.0365L117.258 93.9048C118.496 93.1903 119.258 91.8698 119.258 90.4407V80.1774C119.258 78.7483 118.496 77.4278 117.258 76.7133L108.37 71.5816Z" fill="white"/>
<defs>
<filter id="filter0_dd_1454_46" x="0" y="0" width="220" height="180" filterUnits="userSpaceOnUse" color-interpolation-filters="sRGB">
<feFlood flood-opacity="0" result="BackgroundImageFix"/>
<feColorMatrix in="SourceAlpha" type="matrix" values="0 0 0 0 0 0 0 0 0 0 0 0 0 0 0 0 0 0 127 0" result="hardAlpha"/>
<feOffset dy="4"/>
<feGaussianBlur stdDeviation="5"/>
<feComposite in2="hardAlpha" operator="out"/>
<feColorMatrix type="matrix" values="0 0 0 0 0 0 0 0 0 0 0 0 0 0 0 0 0 0 0.15 0"/>
<feBlend mode="normal" in2="BackgroundImageFix" result="effect1_dropShadow_1454_46"/>
<feColorMatrix in="SourceAlpha" type="matrix" values="0 0 0 0 0 0 0 0 0 0 0 0 0 0 0 0 0 0 127 0" result="hardAlpha"/>
<feOffset/>
<feGaussianBlur stdDeviation="15"/>
<feComposite in2="hardAlpha" operator="out"/>
<feColorMatrix type="matrix" values="0 0 0 0 0.282353 0 0 0 0 0.796078 0 0 0 0 0.901961 0 0 0 0.4 0"/>
<feBlend mode="normal" in2="effect1_dropShadow_1454_46" result="effect2_dropShadow_1454_46"/>
<feBlend mode="normal" in="SourceGraphic" in2="effect2_dropShadow_1454_46" result="shape"/>
</filter>
<linearGradient id="paint0_linear_1454_46" x1="7" y1="142" x2="205.5" y2="15" gradientUnits="userSpaceOnUse">
<stop stop-color="#3180F9"/>
<stop offset="1" stop-color="#4FE5DF"/>
</linearGradient>
</defs>
</svg>
