<svg width="63" height="64" viewBox="0 0 63 64" fill="none" xmlns="http://www.w3.org/2000/svg">
<path d="M49.875 8H13.125C10.2255 8 7.875 10.3878 7.875 13.3333V50.6667C7.875 53.6122 10.2255 56 13.125 56H49.875C52.7745 56 55.125 53.6122 55.125 50.6667V13.3333C55.125 10.3878 52.7745 8 49.875 8Z" stroke="#AF52DE" stroke-width="3" stroke-linecap="round" stroke-linejoin="round"/>
<path d="M22.3125 26.6665C24.4871 26.6665 26.25 24.8756 26.25 22.6665C26.25 20.4574 24.4871 18.6665 22.3125 18.6665C20.1379 18.6665 18.375 20.4574 18.375 22.6665C18.375 24.8756 20.1379 26.6665 22.3125 26.6665Z" stroke="#AF52DE" stroke-width="3" stroke-linecap="round" stroke-linejoin="round"/>
<path d="M55.125 39.9998L42 26.6665L13.125 55.9998" stroke="#AF52DE" stroke-width="3" stroke-linecap="round" stroke-linejoin="round"/>
</svg>
