<svg width="81" height="29" viewBox="0 0 81 29" fill="none" xmlns="http://www.w3.org/2000/svg">
<path fill-rule="evenodd" clip-rule="evenodd" d="M42.2572 0C41.2544 0 40.2892 0.388912 39.5748 1.08671C38.8598 1.78511 38.4547 2.73622 38.4547 3.73186V7.09921C38.4547 7.5214 38.7969 7.86366 39.2191 7.86366C39.6413 7.86366 39.9836 7.5214 39.9836 7.09921V3.73186C39.9836 3.15348 40.2186 2.59505 40.6431 2.18045C41.0682 1.76526 41.6484 1.5289 42.2572 1.5289H46.1017C46.5239 1.5289 46.8662 1.18664 46.8662 0.76445C46.8662 0.342256 46.5239 0 46.1017 0H42.2572ZM60.8649 0C60.4427 0 60.1004 0.342256 60.1004 0.76445C60.1004 1.18664 60.4427 1.5289 60.8649 1.5289H63.8623C64.471 1.5289 65.0513 1.76526 65.4764 2.18045C65.9009 2.59505 66.1359 3.15348 66.1359 3.73186V7.09921C66.1359 7.5214 66.4782 7.86366 66.9004 7.86366C67.3226 7.86366 67.6648 7.5214 67.6648 7.09921V3.73186C67.6648 2.73622 67.2597 1.78511 66.5447 1.08671C65.8303 0.388912 64.8651 0 63.8623 0H60.8649ZM39.9836 22.1779C39.9836 21.7557 39.6413 21.4135 39.2191 21.4135C38.7969 21.4135 38.4547 21.7557 38.4547 22.1779V25.2681C38.4547 26.2638 38.8598 27.2149 39.5748 27.9133C40.2892 28.6111 41.2544 29 42.2572 29H46.1017C46.5239 29 46.8662 28.6577 46.8662 28.2355C46.8662 27.8134 46.5239 27.4711 46.1017 27.4711H42.2572C41.6484 27.4711 41.0682 27.2347 40.6431 26.8195C40.2186 26.4049 39.9836 25.8465 39.9836 25.2681V22.1779ZM67.6648 22.1779C67.6648 21.7557 67.3226 21.4135 66.9004 21.4135C66.4782 21.4135 66.1359 21.7557 66.1359 22.1779V25.2681C66.1359 25.8465 65.9009 26.4049 65.4764 26.8195C65.0513 27.2347 64.471 27.4711 63.8623 27.4711H60.8649C60.4427 27.4711 60.1004 27.8134 60.1004 28.2355C60.1004 28.6577 60.4427 29 60.8649 29H63.8623C64.8651 29 65.8303 28.6111 66.5447 27.9133C67.2597 27.2149 67.6648 26.2638 67.6648 25.2681V22.1779ZM42.6603 19.8997C43.6755 20.4624 44.7886 20.7437 45.9995 20.7437C47.2103 20.7437 48.3173 20.4624 49.3202 19.8997C50.3232 19.3371 51.1182 18.5543 51.7053 17.5514C52.2924 16.5362 52.5859 15.3987 52.5859 14.1389C52.5859 12.879 52.2924 11.7477 51.7053 10.7447C51.1304 9.74174 50.3354 8.95894 49.3202 8.3963C48.3173 7.83367 47.2103 7.55235 45.9995 7.55235C44.7886 7.55235 43.6755 7.83367 42.6603 8.3963C41.6574 8.95894 40.8562 9.74174 40.2569 10.7447C39.6698 11.7477 39.3763 12.879 39.3763 14.1389C39.3763 15.3987 39.6698 16.5362 40.2569 17.5514C40.8562 18.5543 41.6574 19.3371 42.6603 19.8997ZM48.4579 16.8542C47.8464 17.5391 47.0269 17.8816 45.9995 17.8816C44.9598 17.8816 44.1281 17.5452 43.5043 16.8725C42.8927 16.1876 42.5869 15.2764 42.5869 14.1389C42.5869 12.9891 42.8927 12.0779 43.5043 11.4052C44.1281 10.7325 44.9598 10.3961 45.9995 10.3961C47.0269 10.3961 47.8464 10.7386 48.4579 11.4235C49.0817 12.0962 49.3936 13.0014 49.3936 14.1389C49.3936 15.2641 49.0817 16.1692 48.4579 16.8542ZM60.4226 20.7437C59.2117 20.7437 58.0987 20.4624 57.0835 19.8997C56.0805 19.3371 55.2794 18.5543 54.68 17.5514C54.0929 16.5362 53.7994 15.3987 53.7994 14.1389C53.7994 12.879 54.0929 11.7477 54.68 10.7447C55.2794 9.74174 56.0805 8.95894 57.0835 8.3963C58.0987 7.83367 59.2117 7.55235 60.4226 7.55235C61.6335 7.55235 62.7404 7.83367 63.7434 8.3963C64.7585 8.95894 65.5536 9.74174 66.1284 10.7447C66.7155 11.7477 67.0091 12.879 67.0091 14.1389C67.0091 15.3987 66.7155 16.5362 66.1284 17.5514C65.5413 18.5543 64.7463 19.3371 63.7434 19.8997C62.7404 20.4624 61.6335 20.7437 60.4226 20.7437ZM60.4226 17.8816C61.45 17.8816 62.2695 17.5391 62.8811 16.8542C63.5048 16.1692 63.8167 15.2641 63.8167 14.1389C63.8167 13.0014 63.5048 12.0962 62.8811 11.4235C62.2695 10.7386 61.45 10.3961 60.4226 10.3961C59.3829 10.3961 58.5512 10.7325 57.9274 11.4052C57.3159 12.0779 57.0101 12.9891 57.0101 14.1389C57.0101 15.2764 57.3159 16.1876 57.9274 16.8725C58.5512 17.5452 59.3829 17.8816 60.4226 17.8816ZM76.2217 20.6154L71.8918 14.9279V20.6154H68.7545V7.73593H71.8918V13.3867L76.185 7.73593H79.8727L74.8824 14.0472L80.0562 20.6154H76.2217ZM34.3007 18.1936H38.4104V20.6154H31.1634V7.73593H34.3007V18.1936ZM19.1976 15.7535L21.8762 20.6154H25.4171L22.4449 15.515C23.3867 15.2337 24.0962 14.7566 24.5732 14.0839C25.0624 13.4112 25.307 12.6468 25.307 11.7906C25.307 11.0322 25.1297 10.3473 24.775 9.73573C24.4203 9.11194 23.8821 8.62269 23.1605 8.26798C22.4511 7.91328 21.5888 7.73593 20.5736 7.73593H15.308V20.6154H18.4453V15.7535H19.1976ZM20.3901 13.5335H18.4453V10.3412H20.3901C20.965 10.3412 21.3931 10.4818 21.6744 10.7631C21.9679 11.0445 22.1147 11.4297 22.1147 11.919C22.1147 12.4327 21.9679 12.8302 21.6744 13.1115C21.3931 13.3929 20.965 13.5335 20.3901 13.5335ZM9.799 18.3404H4.99214L4.22158 20.6154H0.9375L5.59759 7.73593H9.23025L13.8903 20.6154H10.5696L9.799 18.3404ZM8.99174 15.9186L7.39557 11.2035L5.81775 15.9186H8.99174Z" fill="black"/>
<path fill-rule="evenodd" clip-rule="evenodd" d="M42.2572 0C41.2544 0 40.2892 0.388912 39.5748 1.08671C38.8598 1.78511 38.4547 2.73622 38.4547 3.73186V7.09921C38.4547 7.5214 38.7969 7.86366 39.2191 7.86366C39.6413 7.86366 39.9836 7.5214 39.9836 7.09921V3.73186C39.9836 3.15348 40.2186 2.59505 40.6431 2.18045C41.0682 1.76526 41.6484 1.5289 42.2572 1.5289H46.1017C46.5239 1.5289 46.8662 1.18664 46.8662 0.76445C46.8662 0.342256 46.5239 0 46.1017 0H42.2572ZM60.8649 0C60.4427 0 60.1004 0.342256 60.1004 0.76445C60.1004 1.18664 60.4427 1.5289 60.8649 1.5289H63.8623C64.471 1.5289 65.0513 1.76526 65.4764 2.18045C65.9009 2.59505 66.1359 3.15348 66.1359 3.73186V7.09921C66.1359 7.5214 66.4782 7.86366 66.9004 7.86366C67.3226 7.86366 67.6648 7.5214 67.6648 7.09921V3.73186C67.6648 2.73622 67.2597 1.78511 66.5447 1.08671C65.8303 0.388912 64.8651 0 63.8623 0H60.8649ZM39.9836 22.1779C39.9836 21.7557 39.6413 21.4135 39.2191 21.4135C38.7969 21.4135 38.4547 21.7557 38.4547 22.1779V25.2681C38.4547 26.2638 38.8598 27.2149 39.5748 27.9133C40.2892 28.6111 41.2544 29 42.2572 29H46.1017C46.5239 29 46.8662 28.6577 46.8662 28.2355C46.8662 27.8134 46.5239 27.4711 46.1017 27.4711H42.2572C41.6484 27.4711 41.0682 27.2347 40.6431 26.8195C40.2186 26.4049 39.9836 25.8465 39.9836 25.2681V22.1779ZM67.6648 22.1779C67.6648 21.7557 67.3226 21.4135 66.9004 21.4135C66.4782 21.4135 66.1359 21.7557 66.1359 22.1779V25.2681C66.1359 25.8465 65.9009 26.4049 65.4764 26.8195C65.0513 27.2347 64.471 27.4711 63.8623 27.4711H60.8649C60.4427 27.4711 60.1004 27.8134 60.1004 28.2355C60.1004 28.6577 60.4427 29 60.8649 29H63.8623C64.8651 29 65.8303 28.6111 66.5447 27.9133C67.2597 27.2149 67.6648 26.2638 67.6648 25.2681V22.1779ZM42.6603 19.8997C43.6755 20.4624 44.7886 20.7437 45.9995 20.7437C47.2103 20.7437 48.3173 20.4624 49.3202 19.8997C50.3232 19.3371 51.1182 18.5543 51.7053 17.5514C52.2924 16.5362 52.5859 15.3987 52.5859 14.1389C52.5859 12.879 52.2924 11.7477 51.7053 10.7447C51.1304 9.74174 50.3354 8.95894 49.3202 8.3963C48.3173 7.83367 47.2103 7.55235 45.9995 7.55235C44.7886 7.55235 43.6755 7.83367 42.6603 8.3963C41.6574 8.95894 40.8562 9.74174 40.2569 10.7447C39.6698 11.7477 39.3763 12.879 39.3763 14.1389C39.3763 15.3987 39.6698 16.5362 40.2569 17.5514C40.8562 18.5543 41.6574 19.3371 42.6603 19.8997ZM48.4579 16.8542C47.8464 17.5391 47.0269 17.8816 45.9995 17.8816C44.9598 17.8816 44.1281 17.5452 43.5043 16.8725C42.8927 16.1876 42.5869 15.2764 42.5869 14.1389C42.5869 12.9891 42.8927 12.0779 43.5043 11.4052C44.1281 10.7325 44.9598 10.3961 45.9995 10.3961C47.0269 10.3961 47.8464 10.7386 48.4579 11.4235C49.0817 12.0962 49.3936 13.0014 49.3936 14.1389C49.3936 15.2641 49.0817 16.1692 48.4579 16.8542ZM60.4226 20.7437C59.2117 20.7437 58.0987 20.4624 57.0835 19.8997C56.0805 19.3371 55.2794 18.5543 54.68 17.5514C54.0929 16.5362 53.7994 15.3987 53.7994 14.1389C53.7994 12.879 54.0929 11.7477 54.68 10.7447C55.2794 9.74174 56.0805 8.95894 57.0835 8.3963C58.0987 7.83367 59.2117 7.55235 60.4226 7.55235C61.6335 7.55235 62.7404 7.83367 63.7434 8.3963C64.7585 8.95894 65.5536 9.74174 66.1284 10.7447C66.7155 11.7477 67.0091 12.879 67.0091 14.1389C67.0091 15.3987 66.7155 16.5362 66.1284 17.5514C65.5413 18.5543 64.7463 19.3371 63.7434 19.8997C62.7404 20.4624 61.6335 20.7437 60.4226 20.7437ZM60.4226 17.8816C61.45 17.8816 62.2695 17.5391 62.8811 16.8542C63.5048 16.1692 63.8167 15.2641 63.8167 14.1389C63.8167 13.0014 63.5048 12.0962 62.8811 11.4235C62.2695 10.7386 61.45 10.3961 60.4226 10.3961C59.3829 10.3961 58.5512 10.7325 57.9274 11.4052C57.3159 12.0779 57.0101 12.9891 57.0101 14.1389C57.0101 15.2764 57.3159 16.1876 57.9274 16.8725C58.5512 17.5452 59.3829 17.8816 60.4226 17.8816ZM76.2217 20.6154L71.8918 14.9279V20.6154H68.7545V7.73593H71.8918V13.3867L76.185 7.73593H79.8727L74.8824 14.0472L80.0562 20.6154H76.2217ZM34.3007 18.1936H38.4104V20.6154H31.1634V7.73593H34.3007V18.1936ZM19.1976 15.7535L21.8762 20.6154H25.4171L22.4449 15.515C23.3867 15.2337 24.0962 14.7566 24.5732 14.0839C25.0624 13.4112 25.307 12.6468 25.307 11.7906C25.307 11.0322 25.1297 10.3473 24.775 9.73573C24.4203 9.11194 23.8821 8.62269 23.1605 8.26798C22.4511 7.91328 21.5888 7.73593 20.5736 7.73593H15.308V20.6154H18.4453V15.7535H19.1976ZM20.3901 13.5335H18.4453V10.3412H20.3901C20.965 10.3412 21.3931 10.4818 21.6744 10.7631C21.9679 11.0445 22.1147 11.4297 22.1147 11.919C22.1147 12.4327 21.9679 12.8302 21.6744 13.1115C21.3931 13.3929 20.965 13.5335 20.3901 13.5335ZM9.799 18.3404H4.99214L4.22158 20.6154H0.9375L5.59759 7.73593H9.23025L13.8903 20.6154H10.5696L9.799 18.3404ZM8.99174 15.9186L7.39557 11.2035L5.81775 15.9186H8.99174Z" fill="url(#paint0_linear_1408_5507)"/>
<defs>
<linearGradient id="paint0_linear_1408_5507" x1="86.5731" y1="-8.70783" x2="-6.40107" y2="27.2941" gradientUnits="userSpaceOnUse">
<stop stop-color="#56FED8"/>
<stop offset="1" stop-color="#2B6FFE"/>
</linearGradient>
</defs>
</svg>
