<svg width="35" height="35" viewBox="0 0 35 35" fill="none" xmlns="http://www.w3.org/2000/svg">
<path d="M31.013 16.1401L17.8586 29.2944C16.2471 30.9059 14.0615 31.8112 11.7825 31.8112C9.50346 31.8112 7.31779 30.9059 5.70629 29.2944C4.09479 27.6829 3.18945 25.4972 3.18945 23.2182C3.18945 20.9392 4.09479 18.7535 5.70629 17.142L18.8606 3.9877C19.9349 2.91337 21.392 2.30981 22.9114 2.30981C24.4307 2.30981 25.8878 2.91337 26.9622 3.9877C28.0365 5.06204 28.6401 6.51915 28.6401 8.03849C28.6401 9.55783 28.0365 11.0149 26.9622 12.0893L13.7935 25.2436C13.2564 25.7808 12.5278 26.0825 11.7682 26.0825C11.0085 26.0825 10.2799 25.7808 9.74276 25.2436C9.20559 24.7064 8.90381 23.9779 8.90381 23.2182C8.90381 22.4585 9.20559 21.73 9.74276 21.1928L21.8951 9.05476" stroke="white" stroke-width="2" stroke-linecap="round" stroke-linejoin="round"/>
</svg>
