<svg width="88" height="114" viewBox="0 0 88 114" fill="none" xmlns="http://www.w3.org/2000/svg">
<g clip-path="url(#clip0_1549_1500)">
<path d="M61.759 0.5L86.8496 25.9837L87.4455 26.9143L87.4997 106.102C87.2288 110.073 85.3689 112.901 81.3241 113.482H7.13571C2.97351 113.187 0.671203 110.229 0.535774 106.102C0.770518 72.6026 0.129485 39.0204 0.869834 5.56726C1.50184 2.89543 3.48814 1.31998 5.96199 0.5H61.759ZM60.0255 3.14419H6.49468C5.91684 3.14419 4.391 4.2682 4.0118 4.80257C3.6326 5.33693 3.14505 6.61757 3.14505 7.22564V53.2364H69.65C72.6927 53.2364 75.3923 56.5439 75.6089 59.5198C76.2319 68.0236 75.1665 77.3658 75.5457 85.9525C75.2929 88.4677 72.3315 91.4159 69.8667 91.4159H3.14505V106.756C3.14505 106.949 3.48814 108.23 3.59648 108.497C3.98472 109.465 5.22164 110.441 6.21479 110.681L81.1074 110.828C82.4978 110.672 83.834 109.778 84.4028 108.451C84.5022 108.221 84.8904 106.876 84.8904 106.737V28.5266H65.533C63.6189 28.5266 60.0165 25.2835 60.0165 23.3395V3.14419H60.0255ZM82.9492 25.8824L62.6167 5.13424V22.8973C62.6167 23.8739 64.8197 25.8732 65.7497 25.8732H82.9402L82.9492 25.8824ZM3.36174 88.7717H69.65C70.9321 88.7717 72.9635 86.9567 72.9816 85.5563L72.9003 58.7551C72.5663 57.4008 70.7967 55.8898 69.4333 55.8898H3.36174V88.7717Z" fill="white"/>
<path d="M66.0659 34.6993H10.2779C9.55488 34.6993 8.96875 35.2975 8.96875 36.0353C8.96875 36.7731 9.55488 37.3712 10.2779 37.3712H66.0659C66.7889 37.3712 67.375 36.7731 67.375 36.0353C67.375 35.2975 66.7889 34.6993 66.0659 34.6993Z" fill="white"/>
<path d="M66.0749 44.8431H10.2779C9.55488 44.8431 8.96875 45.4412 8.96875 46.1791C8.96875 46.9169 9.55488 47.515 10.2779 47.515H66.0749C66.7979 47.515 67.3841 46.9169 67.3841 46.1791C67.3841 45.4412 66.7979 44.8431 66.0749 44.8431Z" fill="white"/>
<path d="M51.4868 62.0717L57.3283 79.2911L63.0615 62.0717H66.7361V82.5987H64.1449V65.6095L58.4208 82.3868L56.2449 82.6171L50.0873 65.3884V82.5987C49.2567 82.4881 48.1191 82.9119 47.4961 82.267V62.0717H51.4958H51.4868Z" fill="white"/>
<path d="M27.3691 82.5988V62.0718C29.22 62.2376 31.0438 61.8323 32.8947 61.8415C34.249 61.8507 36.9576 62.0165 38.2306 62.3574C46.5821 64.5778 46.1307 82.5988 35.4859 82.5988H27.3782H27.3691ZM30.2854 64.2737L29.9604 64.6054V79.8349L30.2854 80.1665H35.2602C35.8199 80.1665 37.5986 79.6598 38.1584 79.3742C42.4379 77.1446 42.3477 66.2914 37.5805 64.7805C36.8853 64.5594 34.6733 64.2737 33.9691 64.2737H30.2944H30.2854Z" fill="white"/>
<path d="M21.6724 70.3822C21.4287 70.6402 20.1285 71.2206 20.4536 71.5615C24.3449 72.4644 24.8415 77.3566 22.6114 80.2772C19.1264 84.8377 11.2805 83.1978 10.7207 77.0802L13.2939 76.8775C13.98 82.7003 21.7086 81.5947 21.3203 76.0852C21.1036 72.9619 18.2686 72.2617 15.6865 72.6579L15.9122 70.6862C18.7562 70.9903 21.8259 68.0513 19.7945 65.2689C17.763 62.4865 13.5106 64.2923 13.5106 67.5814L10.9645 67.047C11.9576 62.5602 16.2823 60.5056 20.2911 62.7813C22.9455 64.2831 23.8845 68.0697 21.6634 70.3822H21.6724Z" fill="white"/>
</g>
<defs>
<clipPath id="clip0_1549_1500">
<rect width="87" height="113" fill="white" transform="translate(0.5 0.5)"/>
</clipPath>
</defs>
</svg>
