<svg width="302" height="244" viewBox="0 0 302 244" fill="none" xmlns="http://www.w3.org/2000/svg">
<g filter="url(#filter0_d_1630_584)">
<path fill-rule="evenodd" clip-rule="evenodd" d="M254.877 89.2603C254.844 89.2594 254.81 89.259 254.777 89.259C253.38 89.259 252.164 90.0283 251.527 91.1663L228.332 114.361C226.879 115.815 226.879 118.17 228.332 119.624C229.785 121.077 232.141 121.077 233.594 119.624L251.056 102.162L251.056 145.072C251.056 147.127 252.722 148.793 254.777 148.793C256.832 148.793 258.498 147.127 258.498 145.072L258.498 101.764L276.357 119.624C277.81 121.077 280.166 121.077 281.619 119.624C283.072 118.17 283.072 115.815 281.619 114.361L257.607 90.3488C256.855 89.5973 255.862 89.2345 254.877 89.2603Z" fill="#E3AAFF"/>
</g>
<g filter="url(#filter1_d_1630_584)">
<path fill-rule="evenodd" clip-rule="evenodd" d="M153.062 143.112C155.334 141.756 158.142 141.756 160.414 143.112L160.427 143.12L188.456 160.045C190.581 161.328 191.905 163.646 191.905 166.146V200.3C191.905 202.8 190.581 205.119 188.456 206.401L160.427 223.326L160.414 223.335C158.142 224.69 155.334 224.69 153.062 223.335L153.049 223.326L125.02 206.401C122.895 205.119 121.571 202.8 121.571 200.3V166.146C121.571 163.646 122.895 161.328 125.02 160.045L153.049 143.12L153.062 143.112ZM156.117 148.222L156.112 148.224L129.728 164.156L156.754 179.763L183.471 163.989L157.364 148.224L157.359 148.222C156.968 147.991 156.508 147.991 156.117 148.222ZM127.525 200.3V169.758L153.789 184.926V216.819L128.097 201.305C127.744 201.092 127.525 200.699 127.525 200.3ZM159.742 216.786L185.379 201.305C185.732 201.092 185.951 200.699 185.951 200.3V169.438L159.742 184.913V216.786Z" fill="#E3AAFF"/>
</g>
<g filter="url(#filter2_d_1630_584)">
<path fill-rule="evenodd" clip-rule="evenodd" d="M27.6055 120.62C27.0061 119.692 26.5282 118.895 26.1754 118.282C26.5282 117.669 27.0061 116.871 27.6055 115.943C29.0679 113.679 31.2339 110.667 34.0468 107.667C39.7268 101.608 47.692 95.9565 57.5723 95.9565C67.4527 95.9565 75.4179 101.608 81.0979 107.667C83.9107 110.667 86.0767 113.679 87.5391 115.943C88.1385 116.871 88.6165 117.669 88.9693 118.282C88.6165 118.895 88.1385 119.692 87.5391 120.62C86.0767 122.885 83.9107 125.896 81.0979 128.897C75.4179 134.955 67.4527 140.607 57.5723 140.607C47.692 140.607 39.7268 134.955 34.0468 128.897C31.2339 125.896 29.0679 122.885 27.6055 120.62ZM95.0237 116.948C95.0242 116.949 95.0247 116.95 92.3623 118.282C95.0247 119.613 95.0242 119.614 95.0237 119.615L95.0187 119.625L95.0081 119.646L94.9726 119.715C94.9428 119.773 94.9005 119.855 94.8458 119.958C94.7365 120.165 94.5776 120.459 94.3699 120.828C93.9546 121.566 93.3428 122.607 92.5402 123.85C90.9387 126.33 88.5583 129.643 85.4411 132.968C79.2609 139.561 69.8311 146.56 57.5723 146.56C45.3136 146.56 35.8838 139.561 29.7036 132.968C26.5863 129.643 24.2059 126.33 22.6044 123.85C21.8019 122.607 21.1901 121.566 20.7748 120.828C20.567 120.459 20.4081 120.165 20.2988 119.958C20.2441 119.855 20.2018 119.773 20.172 119.715L20.1366 119.646L20.1259 119.625L20.1223 119.618L20.121 119.615C20.1204 119.614 20.1199 119.613 22.7823 118.282L20.1199 119.613C19.7009 118.775 19.7009 117.788 20.1199 116.95L22.7823 118.282C20.1199 116.95 20.1204 116.949 20.121 116.948L20.1223 116.946L20.1259 116.939L20.1366 116.917L20.172 116.848C20.2018 116.79 20.2441 116.709 20.2988 116.605C20.4081 116.399 20.567 116.104 20.7748 115.735C21.1901 114.997 21.8019 113.956 22.6044 112.713C24.2059 110.234 26.5863 106.92 29.7036 103.595C35.8838 97.0027 45.3136 90.0032 57.5723 90.0032C69.8311 90.0032 79.2609 97.0027 85.4411 103.595C88.5583 106.92 90.9387 110.234 92.5402 112.713C93.3428 113.956 93.9546 114.997 94.3699 115.735C94.5776 116.104 94.7365 116.399 94.8458 116.605C94.9005 116.709 94.9428 116.79 94.9726 116.848L95.0081 116.917L95.0187 116.939L95.0237 116.948ZM92.3623 118.282L95.0247 116.95C95.4437 117.788 95.4437 118.775 95.0247 119.613L92.3623 118.282ZM51.0607 118.282C51.0607 114.685 53.976 111.77 57.5722 111.77C61.1684 111.77 64.0837 114.685 64.0837 118.282C64.0837 121.878 61.1684 124.793 57.5722 124.793C53.976 124.793 51.0607 121.878 51.0607 118.282ZM57.5722 105.817C50.688 105.817 45.1073 111.397 45.1073 118.282C45.1073 125.166 50.688 130.746 57.5722 130.746C64.4563 130.746 70.037 125.166 70.037 118.282C70.037 111.397 64.4563 105.817 57.5722 105.817Z" fill="#E3AAFF"/>
</g>
<g filter="url(#filter3_d_1630_584)">
<path fill-rule="evenodd" clip-rule="evenodd" d="M131.979 32.4708C131.979 31.0323 133.146 29.8662 134.584 29.8662H152.23C153.669 29.8662 154.835 31.0323 154.835 32.4708V50.117C154.835 51.5555 153.669 52.7216 152.23 52.7216H134.584C133.146 52.7216 131.979 51.5555 131.979 50.117V32.4708ZM135.7 33.5871V49.0008H151.114V33.5871H135.7Z" fill="#E3AAFF"/>
<path fill-rule="evenodd" clip-rule="evenodd" d="M131.979 57.9656C131.979 56.5271 133.146 55.361 134.584 55.361H152.23C153.669 55.361 154.835 56.5271 154.835 57.9656V75.6118C154.835 77.0503 153.669 78.2164 152.23 78.2164H134.584C133.146 78.2164 131.979 77.0502 131.979 75.6118V57.9656ZM135.7 59.0818V74.4955H151.114V59.0818H135.7Z" fill="#E3AAFF"/>
<rect x="159.817" y="57.2213" width="6.38065" height="6.38065" rx="1" fill="#E3AAFF"/>
<rect x="139.929" y="63.3136" width="6.95253" height="6.95253" fill="#E3AAFF"/>
<rect x="139.929" y="37.8208" width="6.95253" height="6.95253" fill="#E3AAFF"/>
<rect x="165.924" y="37.8208" width="6.95253" height="6.95253" fill="#E3AAFF"/>
<rect x="159.817" y="70.0756" width="6.38065" height="6.38065" rx="1" fill="#E3AAFF"/>
<rect x="172.582" y="57.2213" width="6.38065" height="6.38065" rx="1" fill="#E3AAFF"/>
<rect x="172.549" y="70.0756" width="6.44273" height="6.2929" rx="1" fill="#E3AAFF"/>
<rect x="166.168" y="63.6483" width="6.38065" height="6.38065" rx="1" fill="#E3AAFF"/>
<path fill-rule="evenodd" clip-rule="evenodd" d="M157.974 32.4708C157.974 31.0323 159.14 29.8662 160.578 29.8662H178.224C179.663 29.8662 180.829 31.0323 180.829 32.4708V50.117C180.829 51.5555 179.663 52.7216 178.224 52.7216H160.578C159.14 52.7216 157.974 51.5555 157.974 50.117V32.4708ZM161.694 33.5871V49.0008H177.108V33.5871H161.694Z" fill="#E3AAFF"/>
<path fill-rule="evenodd" clip-rule="evenodd" d="M123.234 21.6316C125.007 19.9001 127.402 18.9349 129.891 18.9349H141.254C142.282 18.9349 143.114 19.7679 143.114 20.7954C143.114 21.8228 142.282 22.6558 141.254 22.6558H129.891C128.361 22.6558 126.903 23.2497 125.834 24.2935C124.767 25.3357 124.176 26.7399 124.176 28.1946V39.2935C124.176 40.321 123.343 41.1539 122.316 41.1539C121.288 41.1539 120.455 40.321 120.455 39.2935V28.1946C120.455 25.7245 121.46 23.3646 123.234 21.6316ZM169.695 20.7954C169.695 19.7679 170.528 18.9349 171.556 18.9349H182.919C185.408 18.9349 187.803 19.9001 189.576 21.6316C191.35 23.3646 192.355 25.7245 192.355 28.1946V39.2935C192.355 40.321 191.522 41.1539 190.494 41.1539C189.467 41.1539 188.634 40.321 188.634 39.2935V28.1946C188.634 26.7399 188.043 25.3357 186.976 24.2935C185.907 23.2497 184.449 22.6558 182.919 22.6558H171.556C170.528 22.6558 169.695 21.8228 169.695 20.7954ZM122.316 67.0301C123.343 67.0301 124.176 67.863 124.176 68.8905V79.9894C124.176 81.4441 124.767 82.8483 125.834 83.8905C126.903 84.9343 128.361 85.5282 129.891 85.5282H141.254C142.282 85.5282 143.114 86.3612 143.114 87.3886C143.114 88.4161 142.282 89.2491 141.254 89.2491H129.891C127.402 89.2491 125.007 88.2839 123.234 86.5524C121.46 84.8194 120.455 82.4595 120.455 79.9894V68.8905C120.455 67.863 121.288 67.0301 122.316 67.0301ZM190.494 67.0301C191.522 67.0301 192.355 67.863 192.355 68.8905V79.9894C192.355 82.4595 191.35 84.8194 189.576 86.5524C187.803 88.2839 185.408 89.2491 182.919 89.2491H171.556C170.528 89.2491 169.695 88.4161 169.695 87.3886C169.695 86.3612 170.528 85.5282 171.556 85.5282H182.919C184.449 85.5282 185.907 84.9343 186.976 83.8905C188.043 82.8483 188.634 81.4441 188.634 79.9894V68.8905C188.634 67.863 189.467 67.0301 190.494 67.0301Z" fill="#E3AAFF"/>
</g>
<defs>
<filter id="filter0_d_1630_584" x="208.342" y="70.359" width="93.2668" height="97.3336" filterUnits="userSpaceOnUse" color-interpolation-filters="sRGB">
<feFlood flood-opacity="0" result="BackgroundImageFix"/>
<feColorMatrix in="SourceAlpha" type="matrix" values="0 0 0 0 0 0 0 0 0 0 0 0 0 0 0 0 0 0 127 0" result="hardAlpha"/>
<feOffset/>
<feGaussianBlur stdDeviation="9.45"/>
<feComposite in2="hardAlpha" operator="out"/>
<feColorMatrix type="matrix" values="0 0 0 0 0.732074 0 0 0 0 0.201923 0 0 0 0 1 0 0 0 1 0"/>
<feBlend mode="normal" in2="BackgroundImageFix" result="effect1_dropShadow_1630_584"/>
<feBlend mode="normal" in="SourceGraphic" in2="effect1_dropShadow_1630_584" result="shape"/>
</filter>
<filter id="filter1_d_1630_584" x="102.671" y="123.195" width="108.133" height="120.056" filterUnits="userSpaceOnUse" color-interpolation-filters="sRGB">
<feFlood flood-opacity="0" result="BackgroundImageFix"/>
<feColorMatrix in="SourceAlpha" type="matrix" values="0 0 0 0 0 0 0 0 0 0 0 0 0 0 0 0 0 0 127 0" result="hardAlpha"/>
<feOffset/>
<feGaussianBlur stdDeviation="9.45"/>
<feComposite in2="hardAlpha" operator="out"/>
<feColorMatrix type="matrix" values="0 0 0 0 0.732074 0 0 0 0 0.201923 0 0 0 0 1 0 0 0 1 0"/>
<feBlend mode="normal" in2="BackgroundImageFix" result="effect1_dropShadow_1630_584"/>
<feBlend mode="normal" in="SourceGraphic" in2="effect1_dropShadow_1630_584" result="shape"/>
</filter>
<filter id="filter2_d_1630_584" x="0.905664" y="71.1032" width="113.333" height="94.357" filterUnits="userSpaceOnUse" color-interpolation-filters="sRGB">
<feFlood flood-opacity="0" result="BackgroundImageFix"/>
<feColorMatrix in="SourceAlpha" type="matrix" values="0 0 0 0 0 0 0 0 0 0 0 0 0 0 0 0 0 0 127 0" result="hardAlpha"/>
<feOffset/>
<feGaussianBlur stdDeviation="9.45"/>
<feComposite in2="hardAlpha" operator="out"/>
<feColorMatrix type="matrix" values="0 0 0 0 0.732074 0 0 0 0 0.201923 0 0 0 0 1 0 0 0 1 0"/>
<feBlend mode="normal" in2="BackgroundImageFix" result="effect1_dropShadow_1630_584"/>
<feBlend mode="normal" in="SourceGraphic" in2="effect1_dropShadow_1630_584" result="shape"/>
</filter>
<filter id="filter3_d_1630_584" x="101.555" y="0.0349369" width="109.699" height="108.114" filterUnits="userSpaceOnUse" color-interpolation-filters="sRGB">
<feFlood flood-opacity="0" result="BackgroundImageFix"/>
<feColorMatrix in="SourceAlpha" type="matrix" values="0 0 0 0 0 0 0 0 0 0 0 0 0 0 0 0 0 0 127 0" result="hardAlpha"/>
<feOffset/>
<feGaussianBlur stdDeviation="9.45"/>
<feComposite in2="hardAlpha" operator="out"/>
<feColorMatrix type="matrix" values="0 0 0 0 0.732074 0 0 0 0 0.201923 0 0 0 0 1 0 0 0 1 0"/>
<feBlend mode="normal" in2="BackgroundImageFix" result="effect1_dropShadow_1630_584"/>
<feBlend mode="normal" in="SourceGraphic" in2="effect1_dropShadow_1630_584" result="shape"/>
</filter>
</defs>
</svg>
