<svg width="220" height="180" viewBox="0 0 220 180" fill="none" xmlns="http://www.w3.org/2000/svg">
<g filter="url(#filter0_dd_1489_2)">
<rect x="30" y="30" width="160" height="120" rx="20" fill="url(#paint0_linear_1489_2)" shape-rendering="crispEdges"/>
<g clip-path="url(#clip0_1489_2)">
<path d="M123.472 48L142.507 67.1692L142.959 67.8691L143 127.435C142.794 130.422 141.383 132.55 138.315 132.986H82.034C78.8765 132.764 77.1299 130.54 77.0271 127.435C77.2052 102.236 76.7189 76.9755 77.2806 51.8117C77.76 49.8019 79.2669 48.6168 81.1436 48H123.472ZM122.157 49.989H81.5477C81.1093 49.989 79.9518 50.8345 79.6641 51.2364C79.3765 51.6384 79.0066 52.6017 79.0066 53.0591V87.669H129.459C131.767 87.669 133.815 90.1569 133.979 92.3954C134.452 98.7921 133.644 105.819 133.931 112.278C133.739 114.17 131.493 116.388 129.623 116.388H79.0066V127.927C79.0066 128.073 79.2669 129.036 79.3491 129.237C79.6436 129.965 80.5819 130.699 81.3354 130.879L138.15 130.99C139.205 130.872 140.219 130.2 140.65 129.202C140.726 129.029 141.02 128.017 141.02 127.913V69.0819H126.335C124.883 69.0819 122.15 66.6425 122.15 65.1802V49.989H122.157ZM139.548 67.0929L124.123 51.4859V64.8475C124.123 65.5821 125.794 67.086 126.5 67.086H139.541L139.548 67.0929ZM79.171 114.399H129.459C130.431 114.399 131.972 113.034 131.986 111.98L131.924 91.8202C131.671 90.8015 130.329 89.6649 129.294 89.6649H79.171V114.399Z" fill="white"/>
<path d="M126.741 73.7251H84.4189C83.8704 73.7251 83.4258 74.175 83.4258 74.73C83.4258 75.285 83.8704 75.7349 84.4189 75.7349H126.741C127.289 75.7349 127.734 75.285 127.734 74.73C127.734 74.175 127.289 73.7251 126.741 73.7251Z" fill="white"/>
<path d="M126.748 81.3555H84.4189C83.8704 81.3555 83.4258 81.8054 83.4258 82.3604C83.4258 82.9153 83.8704 83.3653 84.4189 83.3653H126.748C127.296 83.3653 127.741 82.9153 127.741 82.3604C127.741 81.8054 127.296 81.3555 126.748 81.3555Z" fill="white"/>
<path d="M115.68 94.3149L120.111 107.268L124.461 94.3149H127.248V109.756H125.282V96.9762L120.94 109.596L119.289 109.769L114.618 96.8098V109.756C113.988 109.672 113.125 109.991 112.652 109.506V94.3149H115.687H115.68Z" fill="white"/>
<path d="M97.3828 109.756V94.315C98.7869 94.4397 100.17 94.1348 101.575 94.1417C102.602 94.1486 104.657 94.2734 105.623 94.5298C111.958 96.2 111.616 109.756 103.54 109.756H97.3897H97.3828ZM99.5951 95.9713L99.3486 96.2208V107.677L99.5951 107.926H103.369C103.794 107.926 105.143 107.545 105.568 107.33C108.814 105.653 108.746 97.489 105.129 96.3525C104.602 96.1861 102.924 95.9713 102.39 95.9713H99.602H99.5951Z" fill="white"/>
<path d="M93.0621 100.566C92.8772 100.76 91.8909 101.197 92.1375 101.453C95.0895 102.132 95.4662 105.812 93.7745 108.009C91.1306 111.44 85.1786 110.206 84.7539 105.604L86.706 105.452C87.2265 109.832 93.0895 109 92.795 104.856C92.6306 102.507 90.4799 101.98 88.521 102.278L88.6923 100.795C90.8498 101.024 93.1786 98.8128 91.6375 96.7198C90.0964 94.6269 86.8703 95.9852 86.8703 98.4593L84.9388 98.0574C85.6923 94.6823 88.9731 93.1369 92.0142 94.8486C94.0279 95.9783 94.7402 98.8266 93.0553 100.566H93.0621Z" fill="white"/>
</g>
</g>
<defs>
<filter id="filter0_dd_1489_2" x="0" y="0" width="220" height="180" filterUnits="userSpaceOnUse" color-interpolation-filters="sRGB">
<feFlood flood-opacity="0" result="BackgroundImageFix"/>
<feColorMatrix in="SourceAlpha" type="matrix" values="0 0 0 0 0 0 0 0 0 0 0 0 0 0 0 0 0 0 127 0" result="hardAlpha"/>
<feOffset dy="4"/>
<feGaussianBlur stdDeviation="5"/>
<feComposite in2="hardAlpha" operator="out"/>
<feColorMatrix type="matrix" values="0 0 0 0 0 0 0 0 0 0 0 0 0 0 0 0 0 0 0.15 0"/>
<feBlend mode="normal" in2="BackgroundImageFix" result="effect1_dropShadow_1489_2"/>
<feColorMatrix in="SourceAlpha" type="matrix" values="0 0 0 0 0 0 0 0 0 0 0 0 0 0 0 0 0 0 127 0" result="hardAlpha"/>
<feOffset/>
<feGaussianBlur stdDeviation="15"/>
<feComposite in2="hardAlpha" operator="out"/>
<feColorMatrix type="matrix" values="0 0 0 0 0.282353 0 0 0 0 0.796078 0 0 0 0 0.901961 0 0 0 0.4 0"/>
<feBlend mode="normal" in2="effect1_dropShadow_1489_2" result="effect2_dropShadow_1489_2"/>
<feBlend mode="normal" in="SourceGraphic" in2="effect2_dropShadow_1489_2" result="shape"/>
</filter>
<linearGradient id="paint0_linear_1489_2" x1="7" y1="142" x2="205.5" y2="15" gradientUnits="userSpaceOnUse">
<stop stop-color="#3180F9"/>
<stop offset="1" stop-color="#4FE5DF"/>
</linearGradient>
<clipPath id="clip0_1489_2">
<rect width="66" height="85" fill="white" transform="translate(77 48)"/>
</clipPath>
</defs>
</svg>
