<svg width="86" height="32" viewBox="0 0 86 32" fill="none" xmlns="http://www.w3.org/2000/svg">
<path fill-rule="evenodd" clip-rule="evenodd" d="M45.269 0.266602C44.1943 0.266602 43.1599 0.683422 42.3942 1.4313C41.6278 2.17981 41.1937 3.19918 41.1937 4.26626V7.87525C41.1937 8.32774 41.5605 8.69456 42.013 8.69456C42.4655 8.69456 42.8323 8.32774 42.8323 7.87525V4.26626C42.8323 3.64637 43.0842 3.04787 43.5391 2.60352C43.9947 2.15854 44.6166 1.90522 45.269 1.90522H49.3895C49.842 1.90522 50.2088 1.5384 50.2088 1.08591C50.2088 0.633418 49.842 0.266602 49.3895 0.266602H45.269ZM65.212 0.266602C64.7596 0.266602 64.3927 0.633418 64.3927 1.08591C64.3927 1.5384 64.7596 1.90522 65.212 1.90522H68.4246C69.077 1.90522 69.6989 2.15854 70.1545 2.60352C70.6094 3.04787 70.8613 3.64637 70.8613 4.26626V7.87525C70.8613 8.32774 71.2282 8.69456 71.6806 8.69456C72.1331 8.69456 72.5 8.32774 72.5 7.87525V4.26626C72.5 3.19918 72.0658 2.17981 71.2994 1.4313C70.5338 0.683422 69.4993 0.266602 68.4246 0.266602H65.212ZM42.8323 24.036C42.8323 23.5835 42.4655 23.2167 42.013 23.2167C41.5605 23.2167 41.1937 23.5835 41.1937 24.036V27.348C41.1937 28.4151 41.6278 29.4344 42.3942 30.183C43.1598 30.9308 44.1943 31.3477 45.269 31.3477H49.3895C49.842 31.3477 50.2088 30.9808 50.2088 30.5283C50.2088 30.0759 49.842 29.709 49.3895 29.709H45.269C44.6166 29.709 43.9947 29.4557 43.5391 29.0107C43.0842 28.5664 42.8323 27.9679 42.8323 27.348V24.036ZM72.5 24.036C72.5 23.5835 72.1331 23.2167 71.6806 23.2167C71.2282 23.2167 70.8613 23.5835 70.8613 24.036V27.348C70.8613 27.9679 70.6094 28.5664 70.1545 29.0107C69.6989 29.4557 69.077 29.709 68.4246 29.709H65.212C64.7596 29.709 64.3927 30.0759 64.3927 30.5283C64.3927 30.9808 64.7596 31.3477 65.212 31.3477H68.4246C69.4993 31.3477 70.5338 30.9308 71.2994 30.183C72.0658 29.4344 72.5 28.4151 72.5 27.348V24.036ZM45.7012 21.5937C46.7892 22.1967 47.9821 22.4983 49.2799 22.4983C50.5777 22.4983 51.764 22.1967 52.839 21.5937C53.9139 20.9907 54.766 20.1518 55.3952 19.0768C56.0244 17.9888 56.339 16.7697 56.339 15.4194C56.339 14.0692 56.0244 12.8566 55.3952 11.7817C54.7791 10.7068 53.927 9.86781 52.839 9.2648C51.764 8.66179 50.5777 8.36029 49.2799 8.36029C47.9821 8.36029 46.7892 8.66179 45.7012 9.2648C44.6262 9.86781 43.7676 10.7068 43.1253 11.7817C42.496 12.8566 42.1814 14.0692 42.1814 15.4194C42.1814 16.7697 42.496 17.9888 43.1253 19.0768C43.7676 20.1518 44.6262 20.9907 45.7012 21.5937ZM51.9148 18.3296C51.2593 19.0637 50.381 19.4308 49.2799 19.4308C48.1656 19.4308 47.2742 19.0703 46.6057 18.3493C45.9502 17.6152 45.6225 16.6386 45.6225 15.4194C45.6225 14.1872 45.9502 13.2106 46.6057 12.4896C47.2742 11.7686 48.1656 11.4081 49.2799 11.4081C50.381 11.4081 51.2593 11.7752 51.9148 12.5093C52.5833 13.2302 52.9176 14.2003 52.9176 15.4194C52.9176 16.6255 52.5833 17.5955 51.9148 18.3296ZM64.7381 22.4983C63.4403 22.4983 62.2474 22.1967 61.1593 21.5937C60.0844 20.9907 59.2258 20.1518 58.5834 19.0768C57.9542 17.9888 57.6396 16.7697 57.6396 15.4194C57.6396 14.0692 57.9542 12.8566 58.5834 11.7817C59.2258 10.7068 60.0844 9.86781 61.1593 9.2648C62.2474 8.66179 63.4403 8.36029 64.7381 8.36029C66.0359 8.36029 67.2222 8.66179 68.2971 9.2648C69.3852 9.86781 70.2373 10.7068 70.8534 11.7817C71.4826 12.8566 71.7972 14.0692 71.7972 15.4194C71.7972 16.7697 71.4826 17.9888 70.8534 19.0768C70.2241 20.1518 69.3721 20.9907 68.2971 21.5937C67.2222 22.1967 66.0359 22.4983 64.7381 22.4983ZM64.7381 19.4308C65.8392 19.4308 66.7175 19.0637 67.373 18.3296C68.0415 17.5955 68.3758 16.6255 68.3758 15.4194C68.3758 14.2003 68.0415 13.2302 67.373 12.5093C66.7175 11.7752 65.8392 11.4081 64.7381 11.4081C63.6238 11.4081 62.7324 11.7686 62.0638 12.4896C61.4084 13.2106 61.0807 14.1872 61.0807 15.4194C61.0807 16.6386 61.4084 17.6152 62.0638 18.3493C62.7324 19.0703 63.6238 19.4308 64.7381 19.4308ZM81.6709 22.3602L77.0304 16.2646V22.3602H73.6679V8.55653H77.0304V14.6129L81.6316 8.55653H85.5839L80.2355 15.3207L85.7806 22.3602H81.6709ZM36.7415 19.7647H41.1461V22.3602H33.379V8.55653H36.7415V19.7647ZM20.5551 17.1494L23.4259 22.3602H27.2209L24.0355 16.8938C25.0449 16.5923 25.8052 16.0811 26.3164 15.3601C26.8408 14.6391 27.103 13.8198 27.103 12.9021C27.103 12.0894 26.9129 11.3553 26.5327 10.6998C26.1526 10.0313 25.5758 9.50693 24.8023 9.12677C24.042 8.74661 23.1179 8.55653 22.0298 8.55653H16.3864V22.3602H19.7489V17.1494H20.5551ZM21.8332 14.7702H19.7489V11.3487H21.8332C22.4493 11.3487 22.9081 11.4995 23.2096 11.801C23.5242 12.1025 23.6815 12.5154 23.6815 13.0398C23.6815 13.5904 23.5242 14.0164 23.2096 14.3179C22.9081 14.6194 22.4493 14.7702 21.8332 14.7702ZM10.4818 19.922H5.32998L4.50412 22.3602H0.984375L5.97887 8.55653H9.87222L14.8667 22.3602H11.3076L10.4818 19.922ZM9.6166 17.3264L7.90588 12.2729L6.21483 17.3264H9.6166Z" fill="black"/>
<path fill-rule="evenodd" clip-rule="evenodd" d="M45.269 0.266602C44.1943 0.266602 43.1599 0.683422 42.3942 1.4313C41.6278 2.17981 41.1937 3.19918 41.1937 4.26626V7.87525C41.1937 8.32774 41.5605 8.69456 42.013 8.69456C42.4655 8.69456 42.8323 8.32774 42.8323 7.87525V4.26626C42.8323 3.64637 43.0842 3.04787 43.5391 2.60352C43.9947 2.15854 44.6166 1.90522 45.269 1.90522H49.3895C49.842 1.90522 50.2088 1.5384 50.2088 1.08591C50.2088 0.633418 49.842 0.266602 49.3895 0.266602H45.269ZM65.212 0.266602C64.7596 0.266602 64.3927 0.633418 64.3927 1.08591C64.3927 1.5384 64.7596 1.90522 65.212 1.90522H68.4246C69.077 1.90522 69.6989 2.15854 70.1545 2.60352C70.6094 3.04787 70.8613 3.64637 70.8613 4.26626V7.87525C70.8613 8.32774 71.2282 8.69456 71.6806 8.69456C72.1331 8.69456 72.5 8.32774 72.5 7.87525V4.26626C72.5 3.19918 72.0658 2.17981 71.2994 1.4313C70.5338 0.683422 69.4993 0.266602 68.4246 0.266602H65.212ZM42.8323 24.036C42.8323 23.5835 42.4655 23.2167 42.013 23.2167C41.5605 23.2167 41.1937 23.5835 41.1937 24.036V27.348C41.1937 28.4151 41.6278 29.4344 42.3942 30.183C43.1598 30.9308 44.1943 31.3477 45.269 31.3477H49.3895C49.842 31.3477 50.2088 30.9808 50.2088 30.5283C50.2088 30.0759 49.842 29.709 49.3895 29.709H45.269C44.6166 29.709 43.9947 29.4557 43.5391 29.0107C43.0842 28.5664 42.8323 27.9679 42.8323 27.348V24.036ZM72.5 24.036C72.5 23.5835 72.1331 23.2167 71.6806 23.2167C71.2282 23.2167 70.8613 23.5835 70.8613 24.036V27.348C70.8613 27.9679 70.6094 28.5664 70.1545 29.0107C69.6989 29.4557 69.077 29.709 68.4246 29.709H65.212C64.7596 29.709 64.3927 30.0759 64.3927 30.5283C64.3927 30.9808 64.7596 31.3477 65.212 31.3477H68.4246C69.4993 31.3477 70.5338 30.9308 71.2994 30.183C72.0658 29.4344 72.5 28.4151 72.5 27.348V24.036ZM45.7012 21.5937C46.7892 22.1967 47.9821 22.4983 49.2799 22.4983C50.5777 22.4983 51.764 22.1967 52.839 21.5937C53.9139 20.9907 54.766 20.1518 55.3952 19.0768C56.0244 17.9888 56.339 16.7697 56.339 15.4194C56.339 14.0692 56.0244 12.8566 55.3952 11.7817C54.7791 10.7068 53.927 9.86781 52.839 9.2648C51.764 8.66179 50.5777 8.36029 49.2799 8.36029C47.9821 8.36029 46.7892 8.66179 45.7012 9.2648C44.6262 9.86781 43.7676 10.7068 43.1253 11.7817C42.496 12.8566 42.1814 14.0692 42.1814 15.4194C42.1814 16.7697 42.496 17.9888 43.1253 19.0768C43.7676 20.1518 44.6262 20.9907 45.7012 21.5937ZM51.9148 18.3296C51.2593 19.0637 50.381 19.4308 49.2799 19.4308C48.1656 19.4308 47.2742 19.0703 46.6057 18.3493C45.9502 17.6152 45.6225 16.6386 45.6225 15.4194C45.6225 14.1872 45.9502 13.2106 46.6057 12.4896C47.2742 11.7686 48.1656 11.4081 49.2799 11.4081C50.381 11.4081 51.2593 11.7752 51.9148 12.5093C52.5833 13.2302 52.9176 14.2003 52.9176 15.4194C52.9176 16.6255 52.5833 17.5955 51.9148 18.3296ZM64.7381 22.4983C63.4403 22.4983 62.2474 22.1967 61.1593 21.5937C60.0844 20.9907 59.2258 20.1518 58.5834 19.0768C57.9542 17.9888 57.6396 16.7697 57.6396 15.4194C57.6396 14.0692 57.9542 12.8566 58.5834 11.7817C59.2258 10.7068 60.0844 9.86781 61.1593 9.2648C62.2474 8.66179 63.4403 8.36029 64.7381 8.36029C66.0359 8.36029 67.2222 8.66179 68.2971 9.2648C69.3852 9.86781 70.2373 10.7068 70.8534 11.7817C71.4826 12.8566 71.7972 14.0692 71.7972 15.4194C71.7972 16.7697 71.4826 17.9888 70.8534 19.0768C70.2241 20.1518 69.3721 20.9907 68.2971 21.5937C67.2222 22.1967 66.0359 22.4983 64.7381 22.4983ZM64.7381 19.4308C65.8392 19.4308 66.7175 19.0637 67.373 18.3296C68.0415 17.5955 68.3758 16.6255 68.3758 15.4194C68.3758 14.2003 68.0415 13.2302 67.373 12.5093C66.7175 11.7752 65.8392 11.4081 64.7381 11.4081C63.6238 11.4081 62.7324 11.7686 62.0638 12.4896C61.4084 13.2106 61.0807 14.1872 61.0807 15.4194C61.0807 16.6386 61.4084 17.6152 62.0638 18.3493C62.7324 19.0703 63.6238 19.4308 64.7381 19.4308ZM81.6709 22.3602L77.0304 16.2646V22.3602H73.6679V8.55653H77.0304V14.6129L81.6316 8.55653H85.5839L80.2355 15.3207L85.7806 22.3602H81.6709ZM36.7415 19.7647H41.1461V22.3602H33.379V8.55653H36.7415V19.7647ZM20.5551 17.1494L23.4259 22.3602H27.2209L24.0355 16.8938C25.0449 16.5923 25.8052 16.0811 26.3164 15.3601C26.8408 14.6391 27.103 13.8198 27.103 12.9021C27.103 12.0894 26.9129 11.3553 26.5327 10.6998C26.1526 10.0313 25.5758 9.50693 24.8023 9.12677C24.042 8.74661 23.1179 8.55653 22.0298 8.55653H16.3864V22.3602H19.7489V17.1494H20.5551ZM21.8332 14.7702H19.7489V11.3487H21.8332C22.4493 11.3487 22.9081 11.4995 23.2096 11.801C23.5242 12.1025 23.6815 12.5154 23.6815 13.0398C23.6815 13.5904 23.5242 14.0164 23.2096 14.3179C22.9081 14.6194 22.4493 14.7702 21.8332 14.7702ZM10.4818 19.922H5.32998L4.50412 22.3602H0.984375L5.97887 8.55653H9.87222L14.8667 22.3602H11.3076L10.4818 19.922ZM9.6166 17.3264L7.90588 12.2729L6.21483 17.3264H9.6166Z" fill="url(#paint0_linear_1538_407)"/>
<path fill-rule="evenodd" clip-rule="evenodd" d="M45.269 0.266602C44.1943 0.266602 43.1599 0.683422 42.3942 1.4313C41.6278 2.17981 41.1937 3.19918 41.1937 4.26626V7.87525C41.1937 8.32774 41.5605 8.69456 42.013 8.69456C42.4655 8.69456 42.8323 8.32774 42.8323 7.87525V4.26626C42.8323 3.64637 43.0842 3.04787 43.5391 2.60352C43.9947 2.15854 44.6166 1.90522 45.269 1.90522H49.3895C49.842 1.90522 50.2088 1.5384 50.2088 1.08591C50.2088 0.633418 49.842 0.266602 49.3895 0.266602H45.269ZM65.212 0.266602C64.7596 0.266602 64.3927 0.633418 64.3927 1.08591C64.3927 1.5384 64.7596 1.90522 65.212 1.90522H68.4246C69.077 1.90522 69.6989 2.15854 70.1545 2.60352C70.6094 3.04787 70.8613 3.64637 70.8613 4.26626V7.87525C70.8613 8.32774 71.2282 8.69456 71.6806 8.69456C72.1331 8.69456 72.5 8.32774 72.5 7.87525V4.26626C72.5 3.19918 72.0658 2.17981 71.2994 1.4313C70.5338 0.683422 69.4993 0.266602 68.4246 0.266602H65.212ZM42.8323 24.036C42.8323 23.5835 42.4655 23.2167 42.013 23.2167C41.5605 23.2167 41.1937 23.5835 41.1937 24.036V27.348C41.1937 28.4151 41.6278 29.4344 42.3942 30.183C43.1598 30.9308 44.1943 31.3477 45.269 31.3477H49.3895C49.842 31.3477 50.2088 30.9808 50.2088 30.5283C50.2088 30.0759 49.842 29.709 49.3895 29.709H45.269C44.6166 29.709 43.9947 29.4557 43.5391 29.0107C43.0842 28.5664 42.8323 27.9679 42.8323 27.348V24.036ZM72.5 24.036C72.5 23.5835 72.1331 23.2167 71.6806 23.2167C71.2282 23.2167 70.8613 23.5835 70.8613 24.036V27.348C70.8613 27.9679 70.6094 28.5664 70.1545 29.0107C69.6989 29.4557 69.077 29.709 68.4246 29.709H65.212C64.7596 29.709 64.3927 30.0759 64.3927 30.5283C64.3927 30.9808 64.7596 31.3477 65.212 31.3477H68.4246C69.4993 31.3477 70.5338 30.9308 71.2994 30.183C72.0658 29.4344 72.5 28.4151 72.5 27.348V24.036ZM45.7012 21.5937C46.7892 22.1967 47.9821 22.4983 49.2799 22.4983C50.5777 22.4983 51.764 22.1967 52.839 21.5937C53.9139 20.9907 54.766 20.1518 55.3952 19.0768C56.0244 17.9888 56.339 16.7697 56.339 15.4194C56.339 14.0692 56.0244 12.8566 55.3952 11.7817C54.7791 10.7068 53.927 9.86781 52.839 9.2648C51.764 8.66179 50.5777 8.36029 49.2799 8.36029C47.9821 8.36029 46.7892 8.66179 45.7012 9.2648C44.6262 9.86781 43.7676 10.7068 43.1253 11.7817C42.496 12.8566 42.1814 14.0692 42.1814 15.4194C42.1814 16.7697 42.496 17.9888 43.1253 19.0768C43.7676 20.1518 44.6262 20.9907 45.7012 21.5937ZM51.9148 18.3296C51.2593 19.0637 50.381 19.4308 49.2799 19.4308C48.1656 19.4308 47.2742 19.0703 46.6057 18.3493C45.9502 17.6152 45.6225 16.6386 45.6225 15.4194C45.6225 14.1872 45.9502 13.2106 46.6057 12.4896C47.2742 11.7686 48.1656 11.4081 49.2799 11.4081C50.381 11.4081 51.2593 11.7752 51.9148 12.5093C52.5833 13.2302 52.9176 14.2003 52.9176 15.4194C52.9176 16.6255 52.5833 17.5955 51.9148 18.3296ZM64.7381 22.4983C63.4403 22.4983 62.2474 22.1967 61.1593 21.5937C60.0844 20.9907 59.2258 20.1518 58.5834 19.0768C57.9542 17.9888 57.6396 16.7697 57.6396 15.4194C57.6396 14.0692 57.9542 12.8566 58.5834 11.7817C59.2258 10.7068 60.0844 9.86781 61.1593 9.2648C62.2474 8.66179 63.4403 8.36029 64.7381 8.36029C66.0359 8.36029 67.2222 8.66179 68.2971 9.2648C69.3852 9.86781 70.2373 10.7068 70.8534 11.7817C71.4826 12.8566 71.7972 14.0692 71.7972 15.4194C71.7972 16.7697 71.4826 17.9888 70.8534 19.0768C70.2241 20.1518 69.3721 20.9907 68.2971 21.5937C67.2222 22.1967 66.0359 22.4983 64.7381 22.4983ZM64.7381 19.4308C65.8392 19.4308 66.7175 19.0637 67.373 18.3296C68.0415 17.5955 68.3758 16.6255 68.3758 15.4194C68.3758 14.2003 68.0415 13.2302 67.373 12.5093C66.7175 11.7752 65.8392 11.4081 64.7381 11.4081C63.6238 11.4081 62.7324 11.7686 62.0638 12.4896C61.4084 13.2106 61.0807 14.1872 61.0807 15.4194C61.0807 16.6386 61.4084 17.6152 62.0638 18.3493C62.7324 19.0703 63.6238 19.4308 64.7381 19.4308ZM81.6709 22.3602L77.0304 16.2646V22.3602H73.6679V8.55653H77.0304V14.6129L81.6316 8.55653H85.5839L80.2355 15.3207L85.7806 22.3602H81.6709ZM36.7415 19.7647H41.1461V22.3602H33.379V8.55653H36.7415V19.7647ZM20.5551 17.1494L23.4259 22.3602H27.2209L24.0355 16.8938C25.0449 16.5923 25.8052 16.0811 26.3164 15.3601C26.8408 14.6391 27.103 13.8198 27.103 12.9021C27.103 12.0894 26.9129 11.3553 26.5327 10.6998C26.1526 10.0313 25.5758 9.50693 24.8023 9.12677C24.042 8.74661 23.1179 8.55653 22.0298 8.55653H16.3864V22.3602H19.7489V17.1494H20.5551ZM21.8332 14.7702H19.7489V11.3487H21.8332C22.4493 11.3487 22.9081 11.4995 23.2096 11.801C23.5242 12.1025 23.6815 12.5154 23.6815 13.0398C23.6815 13.5904 23.5242 14.0164 23.2096 14.3179C22.9081 14.6194 22.4493 14.7702 21.8332 14.7702ZM10.4818 19.922H5.32998L4.50412 22.3602H0.984375L5.97887 8.55653H9.87222L14.8667 22.3602H11.3076L10.4818 19.922ZM9.6166 17.3264L7.90588 12.2729L6.21483 17.3264H9.6166Z" fill="white"/>
<defs>
<linearGradient id="paint0_linear_1538_407" x1="92.7652" y1="-9.0661" x2="-6.88083" y2="29.5193" gradientUnits="userSpaceOnUse">
<stop stop-color="#56FED8"/>
<stop offset="1" stop-color="#2B6FFE"/>
</linearGradient>
</defs>
</svg>
