<svg width="393" height="140" viewBox="0 0 393 140" fill="none" xmlns="http://www.w3.org/2000/svg">
<g clip-path="url(#clip0_1422_1803)">
<rect y="-0.349609" width="393" height="215.384" fill="url(#paint0_linear_1422_1803)"/>
<g style="mix-blend-mode:lighten" opacity="0.5" clip-path="url(#clip1_1422_1803)">
<path d="M382 102.523V167.477L325.547 200V135.046L382 102.523Z" fill="url(#paint1_linear_1422_1803)"/>
<path d="M382 102.523L325.547 135.046L269 102.523L325.547 70L382 102.523Z" fill="url(#paint2_linear_1422_1803)"/>
<path d="M325.547 135.046V200L269 167.477V102.523L325.547 135.046Z" fill="url(#paint3_linear_1422_1803)"/>
</g>
<g style="mix-blend-mode:overlay" filter="url(#filter0_f_1422_1803)">
<circle cx="369.728" cy="101.343" r="66.8571" fill="#4EE2E0" fill-opacity="0.5"/>
</g>
<g style="mix-blend-mode:overlay" filter="url(#filter1_f_1422_1803)">
<circle cx="68.6865" cy="-17.9702" r="119.313" fill="#4EE2E0" fill-opacity="0.5"/>
</g>
<path style="mix-blend-mode:screen" opacity="0.2" d="M90.1876 129.834L48 154.374L90.46 178.906L132.648 154.374L90.1876 129.834Z" fill="url(#paint4_linear_1422_1803)"/>
<path style="mix-blend-mode:screen" opacity="0.3" d="M251.309 18L225 33.3003L271.409 60.0849L297.719 44.7846L251.309 18Z" fill="url(#paint5_linear_1422_1803)"/>
<path style="mix-blend-mode:screen" opacity="0.3" d="M354.043 109.728L331.955 122.575L370.911 145.062L392.999 132.215L354.043 109.728Z" fill="url(#paint6_linear_1422_1803)"/>
<path style="mix-blend-mode:screen" opacity="0.3" d="M293.074 80.199L250.887 104.73L293.347 129.271L335.534 104.73L293.074 80.199Z" fill="url(#paint7_linear_1422_1803)"/>
<path style="mix-blend-mode:screen" d="M34.5419 140.722C34.5419 142.254 33.2938 143.498 31.7563 143.498C30.2189 143.498 28.9707 142.254 28.9707 140.722C28.9707 139.189 30.2189 137.945 31.7563 137.945C33.2938 137.945 34.5419 139.189 34.5419 140.722Z" fill="url(#paint8_radial_1422_1803)"/>
<path style="mix-blend-mode:screen" d="M9.84253 116L-28 138.005L10.0868 160.018L47.9293 138.005L9.84253 116Z" fill="url(#paint9_linear_1422_1803)"/>
<g opacity="0.5" clip-path="url(#clip2_1422_1803)">
<path d="M128 36.5139V75.4861L94.5273 95V56.0278L128 36.5139Z" fill="url(#paint10_linear_1422_1803)"/>
<path d="M128 36.5139L94.5276 56.0278L61 36.5139L94.5276 17L128 36.5139Z" fill="url(#paint11_linear_1422_1803)"/>
<path d="M94.5276 56.0278V95L61 75.4861V36.5139L94.5276 56.0278Z" fill="url(#paint12_linear_1422_1803)"/>
</g>
</g>
<defs>
<filter id="filter0_f_1422_1803" x="222.871" y="-45.5139" width="293.715" height="293.714" filterUnits="userSpaceOnUse" color-interpolation-filters="sRGB">
<feFlood flood-opacity="0" result="BackgroundImageFix"/>
<feBlend mode="normal" in="SourceGraphic" in2="BackgroundImageFix" result="shape"/>
<feGaussianBlur stdDeviation="40" result="effect1_foregroundBlur_1422_1803"/>
</filter>
<filter id="filter1_f_1422_1803" x="-130.627" y="-217.284" width="398.627" height="398.627" filterUnits="userSpaceOnUse" color-interpolation-filters="sRGB">
<feFlood flood-opacity="0" result="BackgroundImageFix"/>
<feBlend mode="normal" in="SourceGraphic" in2="BackgroundImageFix" result="shape"/>
<feGaussianBlur stdDeviation="40" result="effect1_foregroundBlur_1422_1803"/>
</filter>
<linearGradient id="paint0_linear_1422_1803" x1="-3.64409" y1="-12.0461" x2="390.001" y2="203.919" gradientUnits="userSpaceOnUse">
<stop stop-color="#004675"/>
<stop offset="1" stop-color="#001674"/>
</linearGradient>
<linearGradient id="paint1_linear_1422_1803" x1="339.59" y1="126.8" x2="367.706" y2="175.721" gradientUnits="userSpaceOnUse">
<stop stop-color="#4074EE"/>
<stop offset="1" stop-color="#7B3AE0"/>
</linearGradient>
<linearGradient id="paint2_linear_1422_1803" x1="325.546" y1="134.954" x2="325.546" y2="70" gradientUnits="userSpaceOnUse">
<stop stop-color="#29A5FB"/>
<stop offset="0.09" stop-color="#37B3F7"/>
<stop offset="0.34" stop-color="#56D4EF"/>
<stop offset="0.59" stop-color="#6DECE9"/>
<stop offset="0.81" stop-color="#7BFAE5"/>
<stop offset="1" stop-color="#80FFE4"/>
</linearGradient>
<linearGradient id="paint3_linear_1422_1803" x1="269" y1="102.431" x2="325.231" y2="200.181" gradientUnits="userSpaceOnUse">
<stop stop-color="#1ED2FF"/>
<stop offset="0.49" stop-color="#5E92FF"/>
<stop offset="1" stop-color="#9958FE"/>
</linearGradient>
<linearGradient id="paint4_linear_1422_1803" x1="48" y1="154.374" x2="132.648" y2="154.374" gradientUnits="userSpaceOnUse">
<stop stop-color="#006FBA"/>
<stop offset="0.19" stop-color="#0A4E9B"/>
<stop offset="0.38" stop-color="#113482"/>
<stop offset="0.57" stop-color="#162271"/>
<stop offset="0.77" stop-color="#191767"/>
<stop offset="1" stop-color="#1B1464"/>
</linearGradient>
<linearGradient id="paint5_linear_1422_1803" x1="225" y1="39.0425" x2="297.719" y2="39.0425" gradientUnits="userSpaceOnUse">
<stop stop-color="#006FBA"/>
<stop offset="0.19" stop-color="#0A4E9B"/>
<stop offset="0.38" stop-color="#113482"/>
<stop offset="0.57" stop-color="#162271"/>
<stop offset="0.77" stop-color="#191767"/>
<stop offset="1" stop-color="#1B1464"/>
</linearGradient>
<linearGradient id="paint6_linear_1422_1803" x1="331.955" y1="127.399" x2="392.999" y2="127.399" gradientUnits="userSpaceOnUse">
<stop stop-color="#006FBA"/>
<stop offset="0.19" stop-color="#0A4E9B"/>
<stop offset="0.38" stop-color="#113482"/>
<stop offset="0.57" stop-color="#162271"/>
<stop offset="0.77" stop-color="#191767"/>
<stop offset="1" stop-color="#1B1464"/>
</linearGradient>
<linearGradient id="paint7_linear_1422_1803" x1="250.887" y1="104.73" x2="335.534" y2="104.73" gradientUnits="userSpaceOnUse">
<stop stop-color="#006FBA"/>
<stop offset="0.19" stop-color="#0A4E9B"/>
<stop offset="0.38" stop-color="#113482"/>
<stop offset="0.57" stop-color="#162271"/>
<stop offset="0.77" stop-color="#191767"/>
<stop offset="1" stop-color="#1B1464"/>
</linearGradient>
<radialGradient id="paint8_radial_1422_1803" cx="0" cy="0" r="1" gradientUnits="userSpaceOnUse" gradientTransform="translate(31.7563 140.722) scale(2.78561 2.77623)">
<stop stop-color="#00FEFE"/>
<stop offset="0.12" stop-color="#00C3C3"/>
<stop offset="0.25" stop-color="#008F8F"/>
<stop offset="0.37" stop-color="#006363"/>
<stop offset="0.5" stop-color="#003F3F"/>
<stop offset="0.62" stop-color="#002323"/>
<stop offset="0.75" stop-color="#000F0F"/>
<stop offset="0.87" stop-color="#000303"/>
<stop offset="1"/>
</radialGradient>
<linearGradient id="paint9_linear_1422_1803" x1="-28" y1="138.005" x2="47.9293" y2="138.005" gradientUnits="userSpaceOnUse">
<stop stop-color="#006FBA"/>
<stop offset="0.19" stop-color="#0A4E9B"/>
<stop offset="0.38" stop-color="#113482"/>
<stop offset="0.57" stop-color="#162271"/>
<stop offset="0.77" stop-color="#191767"/>
<stop offset="1" stop-color="#1B1464"/>
</linearGradient>
<linearGradient id="paint10_linear_1422_1803" x1="102.854" y1="51.0798" x2="119.824" y2="80.2588" gradientUnits="userSpaceOnUse">
<stop stop-color="#4074EE"/>
<stop offset="1" stop-color="#7B3AE0"/>
</linearGradient>
<linearGradient id="paint11_linear_1422_1803" x1="94.5276" y1="55.9722" x2="94.5276" y2="17" gradientUnits="userSpaceOnUse">
<stop stop-color="#29A5FB"/>
<stop offset="0.09" stop-color="#37B3F7"/>
<stop offset="0.34" stop-color="#56D4EF"/>
<stop offset="0.59" stop-color="#6DECE9"/>
<stop offset="0.81" stop-color="#7BFAE5"/>
<stop offset="1" stop-color="#80FFE4"/>
</linearGradient>
<linearGradient id="paint12_linear_1422_1803" x1="61" y1="36.4583" x2="94.939" y2="94.7605" gradientUnits="userSpaceOnUse">
<stop stop-color="#1ED2FF"/>
<stop offset="0.49" stop-color="#5E92FF"/>
<stop offset="1" stop-color="#9958FE"/>
</linearGradient>
<clipPath id="clip0_1422_1803">
<rect width="393" height="140" fill="white"/>
</clipPath>
<clipPath id="clip1_1422_1803">
<rect width="113" height="130" fill="white" transform="translate(269 70)"/>
</clipPath>
<clipPath id="clip2_1422_1803">
<rect width="67" height="78" fill="white" transform="translate(61 17)"/>
</clipPath>
</defs>
</svg>
