<svg width="51" height="56" viewBox="0 0 51 56" fill="none" xmlns="http://www.w3.org/2000/svg">
<path d="M20.0352 6.79906L26.0928 3.29541L32.1504 6.79906" stroke="#D1D1D1" stroke-width="2" stroke-linecap="round" stroke-linejoin="round"/>
<path d="M26.0938 3.29541V12.0545" stroke="#D1D1D1" stroke-width="2" stroke-miterlimit="10" stroke-linecap="round"/>
<path d="M32.1504 48.843L26.0928 52.3467L20.0352 48.843" stroke="#D1D1D1" stroke-width="2" stroke-linecap="round" stroke-linejoin="round"/>
<path d="M26.0938 52.3465V43.5874" stroke="#D1D1D1" stroke-width="2" stroke-miterlimit="10" stroke-linecap="round"/>
<path d="M4.89258 22.5118V15.5582L10.7614 12.1082" stroke="#D1D1D1" stroke-width="2" stroke-linecap="round" stroke-linejoin="round"/>
<path d="M4.89258 15.5581L12.3227 19.9377" stroke="#D1D1D1" stroke-width="2" stroke-miterlimit="10" stroke-linecap="round"/>
<path d="M47.2946 33.1301V40.0838L41.4258 43.5338" stroke="#D1D1D1" stroke-width="2" stroke-linecap="round" stroke-linejoin="round"/>
<path d="M47.2954 40.0837L39.8652 35.7041" stroke="#D1D1D1" stroke-width="2" stroke-miterlimit="10" stroke-linecap="round"/>
<path d="M10.7614 43.5874L4.89258 40.0838V33.1301" stroke="#D1D1D1" stroke-width="2" stroke-linecap="round" stroke-linejoin="round"/>
<path d="M4.89258 40.0837L12.2509 35.7041" stroke="#D1D1D1" stroke-width="2" stroke-miterlimit="10" stroke-linecap="round"/>
<path d="M41.4258 12.1082L47.2946 15.5582V22.5118" stroke="#D1D1D1" stroke-width="2" stroke-linecap="round" stroke-linejoin="round"/>
<path d="M47.2954 15.5581L39.8652 19.9377" stroke="#D1D1D1" stroke-width="2" stroke-miterlimit="10" stroke-linecap="round"/>
<path d="M26.0938 34.8283V27.821L32.1514 24.3174" stroke="#D1D1D1" stroke-width="2" stroke-miterlimit="10" stroke-linecap="round"/>
<path d="M26.0928 27.821L20.0352 24.3174" stroke="#D1D1D1" stroke-width="2" stroke-miterlimit="10" stroke-linecap="round"/>
</svg>
