<svg xmlns="http://www.w3.org/2000/svg" version="1.2" viewBox="0 0 100 100" id="3dm">
  <path d="m77.5 25-20-20h-40c-5.523 0-10 4.477-10 10v70c0 5.523 4.477 10 10 10h50c5.523 0 10-4.477 10-10v-5H95V40H77.5V25zM55 13.107 69.393 27.5H57.5A2.503 2.503 0 0 1 55 25V13.107zM70 85c0 1.378-1.122 2.5-2.5 2.5h-50A2.503 2.503 0 0 1 15 85V15c0-1.379 1.122-2.5 2.5-2.5h30V25c0 5.523 4.477 10 10 10H70v5H20v40h50v5zm20-40v30H25V45h65z"></path>
  <path d="m70 58.09 5 10 5-10V70h5V50h-6.545L75 56.91 71.545 50H65v20h5zM45 63.75A6.205 6.205 0 0 0 43.738 60 6.205 6.205 0 0 0 45 56.25 6.257 6.257 0 0 0 38.75 50H30v5h8.75c.689 0 1.25.561 1.25 1.25s-.561 1.25-1.25 1.25H32.5v5h6.25c.689 0 1.25.561 1.25 1.25S39.439 65 38.75 65H30v5h8.75A6.257 6.257 0 0 0 45 63.75zm17.5-1.25v-5c0-4.136-3.364-7.5-7.5-7.5h-7.5v20H55c4.136 0 7.5-3.364 7.5-7.5zm-10-7.5H55c1.378 0 2.5 1.122 2.5 2.5v5c0 1.378-1.122 2.5-2.5 2.5h-2.5V55z"></path>
</svg>
