<svg width="40" height="32" viewBox="0 0 40 32" fill="none" xmlns="http://www.w3.org/2000/svg">
<path d="M19.0265 19.9865C19.934 19.9865 20.7149 19.6678 21.3692 19.0304C22.0235 18.3827 22.3506 17.6116 22.3506 16.7171C22.3506 16.1208 22.1976 15.5759 21.8916 15.0824C21.5961 14.5889 21.1951 14.1931 20.6886 13.8949C20.182 13.5968 19.628 13.4477 19.0265 13.4477C18.1084 13.4477 17.3223 13.7716 16.668 14.4193C16.0137 15.067 15.6866 15.8329 15.6866 16.7171C15.6866 17.6116 16.0137 18.3827 16.668 19.0304C17.3223 19.6678 18.1084 19.9865 19.0265 19.9865ZM12.8532 29.2549H35.1721C35.7948 29.2549 36.2907 29.075 36.6601 28.7152C37.04 28.3553 37.2299 27.8618 37.2299 27.2347V25.3224L31.2465 19.894C30.9405 19.6267 30.6081 19.4262 30.2493 19.2925C29.9011 19.1589 29.5423 19.092 29.1729 19.092C28.7825 19.092 28.4131 19.1537 28.0649 19.2771C27.7272 19.4005 27.3948 19.601 27.0677 19.8786L20.831 25.2916L18.2984 23.0863C18.024 22.8292 17.7285 22.639 17.412 22.5157C17.0954 22.3923 16.763 22.3306 16.4147 22.3306C16.1192 22.3306 15.8185 22.3923 15.5125 22.5157C15.2064 22.639 14.911 22.8241 14.626 23.0708L10.7796 26.4482V27.2193C10.7796 27.8464 10.9643 28.3399 11.3336 28.6998C11.7135 29.0699 12.22 29.2549 12.8532 29.2549ZM13.2014 32C11.4919 32 10.1992 31.5785 9.32331 30.7354C8.44743 29.8924 8.0095 28.6432 8.0095 26.988V12.3373C8.0095 10.6924 8.44743 9.44835 9.32331 8.6053C10.1992 7.75197 11.4919 7.3253 13.2014 7.3253H34.8081C36.5071 7.3253 37.7945 7.75197 38.6704 8.6053C39.5568 9.45863 40 10.7027 40 12.3373V26.988C40 28.6432 39.5568 29.8924 38.6704 30.7354C37.7945 31.5785 36.5071 32 34.8081 32H13.2014ZM13.2014 5.08916C11.6291 5.08916 10.2836 5.37703 9.16502 5.95277C8.04643 6.52851 7.18639 7.36129 6.58488 8.45108C5.98338 9.5306 5.68263 10.826 5.68263 12.3373V24.6747H5.12861C3.42963 24.6541 2.14747 24.2223 1.28215 23.3793C0.427384 22.5362 0 21.2973 0 19.6627V5.01205C0 3.35679 0.437937 2.10763 1.31381 1.26458C2.18968 0.421526 3.48239 0 5.19193 0H26.7986C28.4765 0 29.7533 0.411245 30.6292 1.23373C31.5156 2.05622 31.9694 3.2694 31.9905 4.87325V5.08916H13.2014Z" fill="#EDEDF2" style="mix-blend-mode:color-dodge"/>
</svg>
