<svg width="29" height="32" viewBox="0 0 29 32" fill="none" xmlns="http://www.w3.org/2000/svg">
<path d="M1.38281 9.33643V22.6636C1.38281 23.2592 1.70013 23.8104 2.21785 24.111L13.758 30.7745C14.2757 31.0752 14.9104 31.0752 15.4281 30.7745L26.9683 24.111C27.486 23.8104 27.8033 23.2592 27.8033 22.6636V9.33643C27.8033 8.74077 27.486 8.18965 26.9683 7.88903L15.4281 1.22546C14.9104 0.924847 14.2757 0.924847 13.758 1.22546L2.21785 7.88903C1.70013 8.18965 1.38281 8.74077 1.38281 9.33643Z" stroke="white" stroke-width="2" stroke-linejoin="round"/>
<path d="M11.1758 14.2744V17.7258C11.1758 17.8817 11.2593 18.0209 11.3929 18.0988L14.3823 19.8246C14.5159 19.9025 14.6829 19.9025 14.8165 19.8246L17.806 18.0988C17.9396 18.0209 18.0231 17.8761 18.0231 17.7258V14.2744C18.0231 14.1185 17.9396 13.9793 17.806 13.9014L14.8165 12.1756C14.6829 12.0977 14.5159 12.0977 14.3823 12.1756L11.3929 13.9014C11.2593 13.9793 11.1758 14.1241 11.1758 14.2744Z" stroke="white" stroke-width="1.96" stroke-linejoin="round"/>
<path d="M14.5938 20.3594V30.9977" stroke="white" stroke-width="1.96" stroke-linecap="round" stroke-linejoin="round"/>
<path d="M14.5938 1.33752V12.1707" stroke="white" stroke-width="1.96" stroke-linecap="round" stroke-linejoin="round"/>
<path d="M17.8711 17.9767L27.5297 23.577" stroke="white" stroke-width="1.96" stroke-linecap="round" stroke-linejoin="round"/>
<path d="M2.03906 8.80188L11.1743 14.096" stroke="white" stroke-width="1.96" stroke-linecap="round" stroke-linejoin="round"/>
<path d="M10.9978 18.2051L1.66211 23.5771" stroke="white" stroke-width="1.96" stroke-linecap="round" stroke-linejoin="round"/>
<path d="M27.3529 8.80188L17.9727 14.1962" stroke="white" stroke-width="1.96" stroke-linecap="round" stroke-linejoin="round"/>
</svg>
