<svg width="27" height="32" viewBox="0 0 27 32" fill="none" xmlns="http://www.w3.org/2000/svg">
<path d="M5.03906 10.8019V17.5343C5.03906 17.8198 5.18987 18.0891 5.43762 18.2345L10.9636 21.5684C11.2222 21.7246 11.5507 21.7246 11.8092 21.5684L17.3352 18.2345C17.583 18.0837 17.7338 17.8198 17.7338 17.5343V10.8019C17.7338 10.5164 17.583 10.2471 17.3352 10.1017L11.8092 6.76778C11.5507 6.61159 11.2222 6.61159 10.9636 6.76778L5.43762 10.1017C5.18987 10.2525 5.03906 10.5164 5.03906 10.8019Z" stroke="white" stroke-width="1.5" stroke-linejoin="round"/>
<path d="M5.08203 10.5281L11.3836 14.169L17.7337 10.4204" stroke="white" stroke-width="1.5" stroke-linejoin="round"/>
<path d="M11.3848 14.1686V21.6874" stroke="white" stroke-width="1.5" stroke-linejoin="round"/>
<path d="M7.07555 26.7455V24.8281H7.87268V28.3506H7.10787L7.09171 27.8604C6.84396 28.2482 6.4831 28.4421 5.99836 28.4421C5.63211 28.4421 5.34127 28.3344 5.1366 28.119C4.93194 27.9035 4.82422 27.6073 4.82422 27.2303V24.8281H5.62134V27.0579C5.62134 27.505 5.82601 27.7258 6.22996 27.7258C6.47771 27.7258 6.68238 27.6396 6.83857 27.4673C6.99476 27.2949 7.07017 27.0525 7.07017 26.7401L7.07555 26.7455Z" fill="white"/>
<path d="M10.1673 28.4579C9.70415 28.4579 9.34329 28.3556 9.07937 28.1563C8.81546 27.957 8.67004 27.6608 8.62695 27.273L9.37022 27.2515C9.42408 27.6662 9.69876 27.8709 10.1889 27.8709C10.4205 27.8709 10.6036 27.8278 10.7329 27.747C10.8621 27.6662 10.9268 27.5477 10.9268 27.3969C10.9268 27.1761 10.7598 27.036 10.4205 26.966L9.71492 26.8206C9.04706 26.6806 8.71313 26.3466 8.71313 25.8242C8.71313 25.4903 8.83701 25.2263 9.07937 25.0271C9.32713 24.8278 9.66106 24.7308 10.0812 24.7308C10.5013 24.7308 10.846 24.8278 11.1045 25.0217C11.363 25.2156 11.5138 25.4903 11.5623 25.8457L10.819 25.8673C10.7598 25.501 10.512 25.3125 10.0704 25.3125C9.8765 25.3125 9.72031 25.3502 9.61259 25.4202C9.50487 25.4903 9.45101 25.598 9.45101 25.7326C9.45101 25.9373 9.6072 26.0719 9.91959 26.142L10.6413 26.2928C10.9968 26.3682 11.2553 26.492 11.4223 26.6536C11.5892 26.8152 11.67 27.0306 11.67 27.2946C11.67 27.6554 11.5354 27.9355 11.2661 28.1402C10.9968 28.3448 10.6251 28.4418 10.1566 28.4418L10.1673 28.4579Z" fill="white"/>
<path d="M14.7287 25.2155V23.4866H15.5258V28.3447H14.8202L14.8041 27.8492C14.5563 28.2424 14.2008 28.4417 13.7269 28.4417C13.2529 28.4417 12.9028 28.2639 12.6228 27.9138C12.3427 27.5638 12.1973 27.1059 12.1973 26.5512C12.1973 25.9964 12.3373 25.5656 12.612 25.2316C12.8921 24.9031 13.2475 24.7415 13.6784 24.7415C14.1308 24.7415 14.4809 24.8977 14.7233 25.2101L14.7287 25.2155ZM13.8669 27.7469C14.1308 27.7469 14.3463 27.6392 14.5132 27.4183C14.6802 27.1975 14.7664 26.912 14.7664 26.5566C14.7664 26.2011 14.6856 25.9156 14.5186 25.711C14.3463 25.5117 14.1254 25.4094 13.8615 25.4094C13.5976 25.4094 13.3768 25.5117 13.2206 25.711C13.0644 25.9103 12.9836 26.1903 12.9836 26.5512C12.9836 26.9121 13.0644 27.2029 13.2206 27.4237C13.3768 27.6445 13.5922 27.7469 13.8615 27.7469H13.8669Z" fill="white"/>
<path d="M19.1345 25.4092L17.2117 27.6982H19.2314V28.3446H16.2422V27.736L18.165 25.4685H16.3876V24.8221H19.1291V25.4092H19.1345Z" fill="white"/>
<path d="M24.095 26.5875L24.095 29.0557C24.095 30.1221 23.2225 31.0001 22.1507 31.0001H2.94434C1.87791 31.0001 1 30.1275 1 29.0557V2.96069C1 1.89427 1.87253 1.01636 2.94434 1.01636H17.4757C20.0609 3.60162 21.5098 5.05045 24.1004 7.6411L24.1004 15.5584" stroke="white" stroke-width="1.5" stroke-linecap="round" stroke-linejoin="round"/>
<path d="M23.6152 7.43624H18.9832C18.0461 7.43624 17.2812 6.67143 17.2812 5.73427V1" stroke="white" stroke-width="1.5" stroke-linejoin="round"/>
<path d="M19.7109 20.9229H25.5924L23.4057 18.7362" stroke="white" stroke-width="1.5" stroke-linecap="round" stroke-linejoin="round"/>
<path d="M25.5933 20.9231L23.6328 22.8836" stroke="white" stroke-width="1.5" stroke-linecap="round" stroke-linejoin="round"/>
</svg>
